P3
#cherryNewDarkenIntensity
50 50
255

6 0 0
0 0 0
0 0 0
0 0 0
0 0 0
0 0 0
0 0 0
0 0 0
0 0 0
0 0 0
0 0 0
0 0 0
0 0 0
0 0 0
0 0 0
0 0 0
0 0 0
0 0 0
0 0 0
0 0 0
0 0 0
0 0 0
0 0 0
0 0 0
0 0 0
0 0 0
0 0 0
0 0 0
0 0 0
0 0 0
0 0 0
0 0 0
0 0 0
0 0 0
0 0 0
0 0 0
0 0 0
0 0 0
0 0 0
0 0 0
0 0 0
0 0 0
0 0 0
0 0 0
0 0 0
0 0 0
0 0 0
0 0 0
0 0 0
0 0 0
0 0 0
0 0 0
0 0 0
0 0 0
0 0 0
0 0 0
0 0 0
0 0 0
0 0 0
0 0 0
2 0 0
7 0 0
7 0 0
2 0 0
0 0 1
0 5 5
0 1 1
0 0 0
0 0 0
0 0 0
0 0 0
0 0 0
0 0 0
0 0 0
0 0 0
0 0 0
0 0 0
0 0 0
0 0 0
0 0 0
0 0 0
0 0 0
0 0 0
0 0 0
0 0 0
0 0 0
0 0 0
0 0 0
0 0 0
0 0 0
0 0 0
0 0 0
0 0 0
0 0 0
0 0 0
0 0 0
0 0 0
0 0 0
0 0 0
0 0 0
0 0 0
0 0 0
0 0 0
0 0 0
0 0 0
0 0 0
0 0 0
2 0 0
11 0 0
3 0 0
8 0 0
43 0 0
41 0 0
12 0 0
0 1 5
0 27 29
0 4 5
0 0 1
0 5 5
0 1 1
0 0 0
0 0 0
0 0 0
0 0 0
0 0 0
0 0 0
0 0 0
0 0 0
0 0 0
0 0 0
0 0 0
0 0 0
0 0 0
0 0 0
0 0 0
0 0 0
0 0 0
0 0 0
0 0 0
0 0 0
0 0 0
0 0 0
0 0 0
0 0 0
0 0 0
0 0 0
0 0 0
0 0 0
0 0 0
0 0 0
0 0 0
0 0 0
0 0 0
0 0 0
0 0 0
2 0 0
11 0 0
14 0 0
68 0 0
18 0 0
9 0 0
15 0 0
15 0 0
10 0 0
7 0 0
0 0 4
6 0 0
0 0 4
0 28 29
0 7 7
0 6 6
0 1 1
0 0 0
0 0 0
0 0 0
0 0 0
0 0 0
0 0 0
0 0 0
0 0 0
0 0 0
0 0 0
0 0 0
0 0 0
0 0 0
0 0 0
0 0 0
0 0 0
0 0 0
0 0 0
0 0 0
0 0 0
0 0 0
0 0 0
0 0 0
0 0 0
0 0 0
0 0 0
0 0 0
0 0 0
0 0 0
0 0 0
0 0 0
0 0 0
2 0 0
22 0 0
70 0 0
20 0 0
19 0 0
11 0 0
9 0 0
7 0 0
0 0 5
8 0 0
14 0 0
15 0 0
10 0 0
8 0 0
0 0 5
0 0 6
0 30 31
0 10 10
0 1 1
0 0 0
0 0 0
0 0 0
0 0 0
0 0 0
0 0 0
0 0 0
0 0 0
0 0 0
0 0 0
0 0 0
0 0 0
0 0 0
0 0 0
0 0 0
0 0 0
0 0 0
0 0 0
0 0 0
0 0 0
0 0 0
0 0 0
0 0 0
0 0 0
0 0 0
0 0 0
0 0 0
0 0 0
0 0 0
0 0 0
2 0 0
22 0 0
71 0 0
29 0 0
11 0 0
8 0 0
0 0 5
5 0 0
0 2 6
0 28 31
0 1 3
39 0 0
46 0 0
14 0 0
10 0 0
20 0 0
9 0 0
0 4 9
0 31 32
0 10 10
0 1 1
0 0 0
0 0 0
0 0 0
0 0 0
0 0 0
0 0 0
0 0 0
0 0 0
0 0 0
0 0 0
0 0 0
0 0 0
0 0 0
0 0 0
0 0 0
0 0 0
0 0 0
0 0 0
0 0 0
0 0 0
0 0 0
0 0 0
0 0 0
0 0 0
0 0 0
0 0 0
0 0 0
0 0 0
2 0 0
22 0 0
71 0 0
29 0 0
9 0 0
0 0 5
0 1 5
0 30 32
0 5 5
0 0 1
0 5 6
0 0 1
9 0 0
9 0 1
0 0 3
11 0 0
71 0 0
30 0 0
9 0 0
0 4 9
0 31 32
0 10 10
0 1 1
0 0 0
0 0 0
0 0 0
0 0 0
0 0 0
0 0 0
0 0 0
0 0 0
0 0 0
0 0 0
0 0 0
0 0 0
0 0 0
0 0 0
0 0 0
0 0 0
0 0 0
0 0 0
0 0 0
0 0 0
0 0 0
0 0 0
0 0 0
0 0 0
0 0 0
0 0 0
2 0 0
22 0 0
71 0 0
29 0 0
9 0 0
0 4 10
0 31 33
0 5 6
0 4 7
3 0 4
1 0 6
0 0 6
3 0 8
14 0 16
5 0 27
0 0 27
0 0 15
20 0 0
73 0 0
26 0 0
9 0 0
0 4 9
0 31 32
0 10 10
0 1 1
0 0 0
0 0 0
0 0 0
0 0 0
0 0 0
0 0 0
0 0 0
0 0 0
0 0 0
0 0 0
0 0 0
0 0 0
0 0 0
0 0 0
0 0 0
0 0 0
0 0 0
0 0 0
0 0 0
0 0 0
0 0 0
0 0 0
0 0 0
0 0 0
0 0 0
13 0 0
78 0 0
32 0 0
10 0 0
0 4 10
0 32 34
0 9 12
3 0 4
6 0 9
25 0 22
2 0 37
0 0 39
0 0 39
1 0 41
0 0 43
0 0 43
0 0 41
0 0 38
17 0 27
45 0 0
21 0 0
9 0 0
0 5 11
0 35 36
0 6 6
0 1 1
0 0 0
0 0 0
0 0 0
0 0 0
0 0 0
0 0 0
0 0 0
0 0 0
0 0 0
0 0 0
0 0 0
0 0 0
0 0 0
0 0 0
0 0 0
0 0 0
0 0 0
0 0 0
0 0 0
0 0 0
0 0 0
0 0 0
0 0 0
2 0 0
24 0 0
80 0 0
21 0 0
0 0 5
0 34 38
0 1 14
2 0 10
25 0 22
3 0 38
2 0 42
0 0 44
0 0 45
0 0 45
0 0 45
0 0 45
0 0 45
0 0 45
0 0 45
0 0 43
13 0 29
47 0 0
19 0 0
0 0 5
0 32 35
0 12 13
0 2 2
0 0 0
0 0 0
0 0 0
0 0 0
0 0 0
0 0 0
0 0 0
0 0 0
0 0 0
0 0 0
0 0 0
0 0 0
0 0 0
0 0 0
0 0 0
0 0 0
0 0 0
0 0 0
0 0 0
0 0 0
0 0 0
0 0 0
0 0 0
13 0 0
78 0 0
31 0 0
9 0 0
0 4 11
0 15 42
41 0 25
0 0 44
0 0 44
0 0 45
0 0 45
0 0 45
0 0 45
0 0 45
0 0 45
0 0 45
0 0 45
0 0 45
0 0 45
0 0 45
2 0 40
29 0 10
38 0 0
12 0 0
0 3 9
0 31 33
0 10 10
0 1 1
0 0 0
0 0 0
0 0 0
0 0 0
0 0 0
0 0 0
0 0 0
3 0 0
11 0 0
3 0 0
2 0 0
2 0 0
2 0 0
1 0 0
0 1 1
0 5 5
0 1 1
0 0 0
0 0 0
0 0 0
0 0 0
0 0 0
15 0 0
89 0 0
23 0 0
0 0 5
0 23 39
54 0 27
46 0 49
25 0 58
0 0 56
0 0 48
0 0 46
0 0 45
0 0 45
0 0 45
0 0 45
0 0 45
0 0 45
0 0 45
0 0 45
0 0 45
0 0 44
9 0 33
48 0 0
22 0 0
9 0 0
0 5 10
0 36 37
0 6 6
0 0 0
0 0 0
0 0 0
0 0 0
0 0 0
2 0 0
11 0 0
15 0 0
68 0 0
18 0 0
8 0 0
8 0 0
8 0 0
6 0 0
0 4 9
0 26 27
0 10 10
0 1 1
0 0 0
0 0 0
0 0 0
0 0 0
15 0 0
89 0 0
23 0 0
0 0 6
0 13 47
70 0 33
45 0 54
36 0 58
29 0 58
20 0 56
0 0 55
0 0 48
0 0 45
0 0 45
0 0 45
0 0 45
0 0 45
0 0 45
0 0 45
0 0 45
0 0 45
0 0 43
13 0 29
51 0 0
16 0 0
0 0 5
0 35 36
0 11 11
0 1 1
0 0 0
0 0 0
0 0 0
2 0 0
22 0 0
70 0 0
20 0 0
19 0 0
11 0 0
9 0 0
9 0 0
9 0 0
9 0 0
6 0 1
0 4 9
0 31 32
0 10 10
0 1 1
0 0 0
0 0 0
0 0 0
15 0 0
89 0 0
23 0 0
7 0 9
0 0 62
39 0 57
38 0 58
37 0 58
37 0 58
35 0 58
24 0 58
0 0 56
0 0 47
0 0 46
0 0 45
0 0 45
0 0 45
0 0 45
0 0 45
0 0 45
0 0 45
0 0 45
6 0 36
50 0 0
22 0 0
9 0 0
0 5 10
0 35 36
0 6 6
0 0 0
0 0 0
2 0 0
22 0 0
71 0 0
29 0 0
11 0 0
9 0 1
10 0 8
12 0 7
13 0 7
13 0 7
13 0 5
13 0 0
8 0 0
0 5 9
0 31 32
0 10 10
0 1 1
0 0 0
0 0 0
15 0 0
89 0 0
23 0 0
9 0 9
7 0 64
33 0 61
37 0 58
37 0 58
37 0 58
37 0 58
36 0 58
30 0 58
23 0 55
0 0 56
0 0 48
0 0 45
0 0 45
0 0 45
0 0 45
0 0 45
0 0 45
0 0 45
0 0 43
14 0 28
51 0 0
16 0 0
0 0 5
0 35 36
0 11 11
0 1 1
0 0 0
13 0 0
79 0 0
31 0 0
11 0 0
9 0 4
11 0 20
13 0 56
31 0 53
34 0 51
34 0 50
32 0 38
33 0 1
16 0 0
8 0 0
0 4 10
0 31 33
0 10 10
0 1 1
0 0 0
15 0 0
89 0 0
23 0 0
8 0 8
7 0 64
33 0 61
37 0 58
37 0 58
37 0 58
37 0 58
37 0 58
37 0 58
36 0 58
24 0 59
0 0 56
0 0 48
0 0 46
0 0 45
0 0 45
0 0 45
0 0 45
0 0 45
0 0 45
6 0 36
50 0 0
22 0 0
9 0 0
0 5 11
0 35 36
0 6 6
2 0 0
24 0 0
80 0 0
21 0 0
9 0 3
8 0 32
18 0 58
32 0 60
37 0 59
37 0 58
38 0 58
37 0 56
38 0 43
36 0 0
15 0 0
7 0 0
0 7 11
0 34 35
0 6 6
0 0 0
15 0 0
89 0 0
23 0 0
9 0 9
7 0 64
33 0 61
37 0 58
37 0 58
37 0 58
37 0 58
37 0 58
37 0 58
37 0 58
36 0 58
30 0 58
23 0 56
0 0 56
0 0 48
0 0 45
0 0 45
0 0 45
0 0 45
0 0 45
0 0 43
13 0 28
51 0 0
16 0 0
0 0 5
0 35 36
0 11 11
11 0 0
80 0 0
31 0 0
11 0 0
8 0 15
11 0 60
32 0 61
37 0 59
37 0 58
37 0 58
37 0 58
37 0 58
37 0 56
38 0 38
35 0 0
13 0 0
0 0 6
0 39 40
0 7 7
0 0 0
15 0 0
89 0 0
23 0 0
9 0 9
7 0 63
33 0 60
37 0 58
37 0 58
37 0 58
37 0 58
37 0 58
37 0 58
37 0 58
37 0 58
37 0 58
36 0 58
24 0 59
0 0 56
0 0 48
0 0 47
0 0 45
0 0 45
0 0 45
0 0 45
6 0 36
50 0 0
22 0 0
9 0 0
0 5 10
0 35 35
13 0 0
80 0 0
21 0 0
9 0 8
7 0 57
30 0 61
37 0 59
37 0 58
37 0 58
37 0 58
37 0 58
37 0 58
37 0 58
38 0 48
39 0 0
13 0 0
0 0 6
0 39 40
0 7 7
0 0 0
14 0 0
82 0 0
29 0 0
10 0 6
6 0 49
27 0 60
36 0 59
37 0 58
37 0 58
37 0 58
37 0 58
37 0 58
37 0 58
37 0 58
37 0 58
37 0 58
36 0 58
30 0 58
25 0 57
0 0 56
0 0 48
0 0 45
0 0 45
0 0 45
0 0 43
13 0 28
51 0 0
16 0 0
0 0 5
0 28 30
58 0 0
29 0 0
11 0 0
9 0 18
10 0 64
33 0 60
37 0 58
37 0 58
37 0 58
37 0 58
37 0 58
37 0 58
37 0 58
39 0 49
39 0 0
13 0 0
0 0 6
0 39 40
0 7 7
0 0 0
5 0 0
37 0 0
69 0 0
19 0 0
8 0 13
11 0 58
31 0 61
37 0 59
37 0 58
37 0 58
37 0 58
37 0 58
37 0 58
37 0 58
37 0 58
37 0 58
37 0 58
37 0 58
36 0 58
24 0 59
0 0 57
0 0 47
0 0 47
0 0 45
0 0 45
6 0 36
50 0 0
22 0 0
9 0 0
0 0 4
17 0 0
11 0 0
9 0 8
7 0 58
30 0 61
37 0 59
37 0 58
37 0 58
37 0 58
37 0 58
37 0 58
37 0 58
37 0 58
39 0 49
39 0 0
13 0 0
0 0 6
0 39 40
0 7 7
0 0 0
1 0 0
16 0 0
80 0 0
28 0 0
10 0 1
10 0 23
12 0 62
33 0 60
37 0 59
37 0 58
37 0 58
37 0 58
37 0 58
37 0 58
37 0 58
37 0 58
37 0 58
37 0 58
37 0 58
36 0 58
30 0 58
25 0 57
0 0 56
0 0 48
0 0 45
0 0 43
13 0 28
51 0 0
16 0 0
9 0 0
9 0 0
9 0 0
8 0 16
11 0 64
33 0 60
37 0 58
37 0 58
37 0 58
37 0 58
37 0 58
37 0 58
37 0 58
37 0 58
38 0 48
39 0 0
13 0 0
0 0 6
0 39 40
0 7 7
0 0 0
0 0 0
6 0 0
40 0 0
67 0 0
18 0 0
9 0 7
6 0 45
26 0 55
33 0 59
37 0 59
37 0 58
37 0 58
37 0 58
37 0 58
37 0 58
37 0 58
37 0 58
37 0 58
37 0 58
37 0 58
37 0 58
36 0 58
24 0 59
0 0 57
0 0 47
0 0 47
5 0 36
50 0 0
22 0 0
10 0 0
9 0 0
8 0 7
7 0 57
30 0 61
37 0 59
37 0 58
37 0 58
37 0 58
37 0 58
37 0 58
37 0 58
37 0 58
37 0 56
37 0 38
35 0 0
12 0 0
0 2 8
0 38 39
0 7 7
0 0 0
0 0 0
1 0 0
16 0 0
77 0 0
31 0 0
11 0 0
9 0 6
11 0 16
12 0 56
30 0 54
34 0 59
37 0 59
37 0 58
37 0 58
37 0 58
37 0 58
37 0 58
37 0 58
37 0 58
37 0 58
37 0 58
37 0 58
36 0 58
30 0 58
25 0 57
0 0 56
0 0 46
14 0 28
51 0 0
16 0 0
9 0 0
8 0 15
10 0 64
33 0 60
37 0 58
37 0 58
37 0 58
37 0 58
37 0 58
37 0 58
38 0 58
38 0 53
36 0 44
35 0 0
16 0 0
3 0 2
0 18 21
0 25 25
0 4 4
0 0 0
0 0 0
0 0 0
2 0 0
22 0 0
71 0 0
29 0 0
11 0 0
10 0 1
9 0 8
12 0 17
12 0 56
31 0 53
34 0 51
34 0 52
34 0 54
33 0 58
36 0 58
37 0 58
37 0 58
37 0 58
37 0 58
37 0 58
37 0 58
37 0 58
36 0 58
24 0 59
0 0 57
10 0 38
54 0 0
17 0 0
9 0 5
7 0 41
22 0 62
35 0 59
38 0 58
37 0 57
37 0 53
35 0 51
34 0 51
34 0 51
34 0 46
36 0 15
21 0 4
13 0 0
8 0 0
0 4 10
0 33 34
0 9 9
0 1 1
0 0 0
0 0 0
0 0 0
0 0 0
2 0 0
22 0 0
70 0 0
23 0 0
17 0 0
10 0 0
10 0 1
9 0 7
12 0 7
13 0 7
13 0 9
14 0 22
12 0 49
29 0 52
34 0 51
34 0 51
34 0 51
34 0 51
34 0 51
34 0 51
34 0 51
34 0 51
33 0 51
27 0 51
31 0 41
37 0 0
13 0 0
9 0 0
8 0 13
10 0 57
30 0 52
33 0 48
33 0 39
34 0 18
21 0 6
14 0 6
13 0 7
13 0 6
14 0 1
11 0 0
8 0 0
0 4 9
0 31 32
0 10 10
0 1 1
0 0 0
0 0 0
0 0 0
0 0 0
0 0 0
0 0 0
2 0 0
15 0 0
33 0 0
51 0 0
17 0 0
19 0 0
11 0 0
9 0 0
9 0 0
10 0 0
10 0 2
9 0 6
12 0 7
13 0 7
13 0 7
13 0 7
13 0 7
13 0 7
13 0 7
13 0 7
13 0 7
13 0 7
13 0 7
13 0 6
13 0 0
9 0 0
9 0 0
9 0 0
9 0 8
12 0 7
12 0 6
13 0 5
13 0 1
11 0 0
9 0 0
9 0 0
9 0 0
8 0 0
0 0 4
0 0 5
0 30 31
0 10 10
0 1 1
0 0 0
0 0 0
0 0 0
0 0 0
0 0 0
0 0 0
0 0 0
0 0 0
1 0 0
6 0 0
9 0 0
13 0 0
68 0 0
18 0 0
8 0 0
9 0 0
13 0 0
17 0 0
10 0 0
9 0 0
9 0 0
9 0 0
9 0 0
9 0 0
9 0 0
9 0 0
9 0 0
9 0 0
9 0 0
9 0 0
9 0 0
9 0 0
9 0 0
9 0 0
9 0 0
9 0 0
9 0 0
9 0 0
9 0 0
5 0 2
1 0 3
7 0 0
8 0 0
8 0 0
0 0 5
0 29 30
0 5 6
0 5 5
0 1 1
0 0 0
0 0 0
0 0 0
0 0 0
0 0 0
0 0 0
0 0 0
0 0 0
0 0 0
0 0 0
0 0 0
0 0 0
2 0 0
11 0 0
3 0 0
2 0 0
5 0 0
28 0 0
53 0 0
15 0 0
8 0 0
8 0 0
8 0 0
8 0 0
8 0 0
8 0 0
8 0 0
8 0 0
8 0 0
8 0 0
8 0 0
10 0 0
19 0 0
11 0 0
8 0 0
0 0 5
7 0 0
8 0 0
8 0 0
4 0 1
0 8 12
0 21 22
0 3 4
1 0 0
2 0 0
0 0 1
0 5 5
0 1 1
0 0 0
0 0 0
0 0 0
0 0 0
0 0 0
0 0 0
0 0 0
0 0 0
0 0 0
0 0 0
0 0 0
0 0 0
0 0 0
0 0 0
0 0 0
0 0 0
0 0 0
0 0 0
1 0 0
5 0 0
9 0 0
3 0 0
2 0 0
2 0 0
2 0 0
2 0 0
2 0 0
2 0 0
2 0 0
2 0 0
2 0 0
2 0 0
2 0 0
15 0 0
79 0 0
21 0 0
0 0 5
0 34 36
0 5 6
2 0 0
2 0 0
1 0 0
0 2 3
0 4 4
0 1 1
0 0 0
0 0 0
0 0 0
0 0 0
0 0 0
0 0 0
0 0 0
0 0 0
0 0 0
0 0 0
0 0 0
0 0 0
0 0 0
0 0 0
0 0 0
0 0 0
0 0 0
0 0 0
0 0 0
0 0 0
0 0 0
0 0 0
0 0 0
0 0 0
0 0 0
0 0 0
0 0 0
3 0 0
11 0 0
3 0 0
1 0 0
0 1 2
0 4 4
0 1 1
0 0 0
0 0 0
0 0 0
0 0 0
15 0 0
89 0 0
23 0 0
0 0 6
0 39 40
0 7 7
0 0 0
0 0 0
0 0 0
0 0 0
2 0 0
10 0 0
4 0 0
2 0 0
0 0 1
0 5 6
0 1 1
0 0 0
0 0 0
0 0 0
0 0 0
0 0 0
0 0 0
0 0 0
0 0 0
0 0 0
0 0 0
0 0 0
0 0 0
0 0 0
0 0 0
0 0 0
0 0 0
0 0 0
0 0 0
0 0 0
2 0 0
11 0 0
3 0 0
14 0 0
67 0 0
18 0 0
6 0 0
0 6 9
0 25 26
0 4 5
0 5 5
0 1 1
0 0 0
0 0 0
15 0 0
89 0 0
23 0 0
0 0 6
0 39 40
0 7 7
0 0 0
0 0 0
2 0 0
11 0 0
13 0 0
62 0 0
22 0 0
9 0 0
0 0 5
0 28 29
0 4 5
0 0 1
0 5 5
0 1 1
0 0 0
0 0 0
0 0 0
0 0 0
0 0 0
0 0 0
0 0 0
0 0 0
0 0 0
0 0 0
0 0 0
0 0 0
0 0 0
0 0 0
0 0 0
2 0 0
22 0 0
69 0 0
19 0 0
11 0 0
19 0 0
11 0 0
9 0 0
6 0 1
0 0 4
0 0 5
0 29 30
0 5 6
0 5 5
0 1 1
15 0 0
89 0 0
23 0 0
0 0 6
0 39 40
0 7 7
0 0 0
1 0 0
15 0 0
76 0 0
21 0 0
18 0 0
12 0 0
9 0 0
8 0 0
0 0 4
6 0 0
0 0 4
0 30 31
0 10 10
0 1 1
0 0 0
0 0 0
0 0 0
0 0 0
0 0 0
0 0 0
0 0 0
0 0 0
0 0 0
0 0 0
0 0 0
0 0 0
0 0 0
2 0 0
22 0 0
71 0 0
29 0 0
11 0 0
8 0 0
1 0 3
4 0 1
13 0 0
12 0 0
9 0 0
8 0 0
0 0 4
0 1 7
0 35 36
0 6 6
13 0 0
78 0 0
20 0 0
0 0 6
0 35 36
0 6 6
0 0 0
4 0 0
33 0 0
71 0 0
19 0 0
9 0 0
6 0 0
6 0 0
8 0 0
10 0 0
9 0 0
8 0 0
0 4 9
0 31 32
0 10 10
0 1 1
0 0 0
0 0 0
0 0 0
0 0 0
0 0 0
0 0 0
0 0 0
0 0 0
0 0 0
0 0 0
0 0 0
2 0 0
22 0 0
71 0 0
29 0 0
9 0 0
0 0 5
0 0 4
0 20 22
0 18 6
31 26 0
30 0 0
8 3 0
10 0 0
9 0 0
0 0 6
0 39 40
0 7 7
2 0 0
11 0 0
3 0 0
0 0 1
0 5 5
0 1 1
2 0 0
13 1 0
42 2 0
38 0 0
10 0 0
2 8 0
0 43 0
0 43 0
0 21 0
9 1 0
4 2 0
11 0 0
8 0 0
0 4 9
0 30 32
0 10 10
0 1 1
0 0 0
0 0 0
0 0 0
0 0 0
0 0 0
0 0 0
0 0 0
0 0 0
0 0 0
2 0 0
19 0 0
74 0 0
30 0 0
9 0 0
0 4 10
0 31 33
0 5 6
0 5 2
0 9 0
7 20 0
25 48 0
0 67 0
13 11 0
4 5 0
0 12 0
0 40 39
0 7 7
5 0 0
9 0 0
1 0 0
0 4 5
0 2 2
0 1 1
9 1 0
50 6 0
5 39 0
0 44 0
0 46 0
0 47 0
0 53 0
0 53 0
0 50 0
0 56 0
0 70 0
13 6 0
12 0 0
8 0 0
0 4 10
0 34 35
0 7 7
0 1 1
0 0 0
0 0 0
0 0 0
0 0 0
0 0 0
0 0 0
0 0 0
0 0 0
10 0 0
61 0 0
48 0 0
13 0 0
0 9 2
0 37 36
0 12 10
3 8 0
2 17 0
20 43 0
0 76 0
0 88 0
0 91 0
0 82 0
0 80 0
0 74 0
0 37 20
0 2 3
29 0 0
53 0 0
6 0 0
0 21 24
0 11 12
0 2 1
6 7 0
48 15 0
0 48 0
0 54 0
0 54 0
0 54 0
0 54 0
0 56 0
0 63 0
0 90 0
0 92 0
0 71 0
16 4 0
14 0 0
0 0 4
0 27 31
0 17 17
0 2 2
0 0 0
0 0 0
0 0 0
0 0 0
0 0 0
0 0 0
0 0 0
0 0 0
15 0 0
86 0 0
26 0 0
2 3 0
0 67 0
0 51 19
0 22 0
20 49 0
0 79 0
0 87 0
0 92 0
0 92 0
0 89 0
0 87 0
0 80 0
0 62 0
11 0 0
10 0 0
13 0 0
17 0 0
9 0 0
0 0 3
4 0 1
4 0 0
0 34 0
0 41 0
0 52 0
0 54 0
0 54 0
0 59 0
0 61 0
0 75 0
0 91 0
0 94 0
0 94 0
0 89 0
0 58 0
24 0 0
11 0 0
0 3 9
0 36 37
0 6 6
0 0 0
0 0 0
0 0 0
0 0 0
0 0 0
0 0 0
0 0 0
0 0 0
15 0 0
89 0 0
23 0 0
1 6 0
0 88 0
0 88 0
0 83 0
0 88 0
0 93 0
0 92 0
0 88 0
0 84 0
0 57 0
0 44 0
7 8 0
6 1 0
11 0 0
9 0 0
9 0 0
3 0 1
10 0 0
11 0 0
9 0 0
9 0 0
6 0 0
2 7 0
0 45 0
0 53 0
0 59 0
0 89 0
0 90 0
0 91 0
0 94 0
0 94 0
0 93 0
0 93 0
0 77 0
23 0 0
12 0 0
0 0 6
0 39 40
0 7 7
0 0 0
0 0 0
0 0 0
0 0 0
0 0 0
0 0 0
0 0 0
1 0 0
16 0 0
88 0 0
23 0 0
1 7 0
0 91 0
0 95 0
0 93 0
0 93 0
0 92 0
0 84 0
0 58 0
0 56 0
0 41 0
10 2 0
11 0 0
9 0 0
7 0 0
0 0 4
1 0 3
0 16 11
15 12 0
23 0 0
7 2 0
11 0 0
9 0 0
9 0 0
2 5 0
0 44 0
0 59 0
0 90 0
0 94 0
0 94 0
0 93 0
0 93 0
0 93 0
0 93 0
0 79 0
23 0 0
12 0 0
0 0 6
0 39 40
0 7 7
0 0 0
0 0 0
0 0 0
0 0 0
0 0 0
0 0 0
0 0 0
1 0 0
18 0 0
86 0 0
22 0 0
1 7 0
0 91 0
0 95 0
0 93 0
0 92 0
0 84 0
0 57 0
0 53 0
0 47 0
9 4 0
10 0 0
8 0 0
0 0 3
0 4 8
0 29 30
0 5 5
0 4 0
10 14 0
25 47 0
0 67 0
11 14 0
10 0 0
10 0 0
9 0 0
2 8 0
0 51 0
0 64 0
0 90 0
0 94 0
0 94 0
0 93 0
0 93 0
0 93 0
0 79 0
22 0 0
11 0 0
0 0 6
0 39 40
0 7 7
0 0 0
0 0 0
0 0 0
0 0 0
0 0 0
0 0 0
0 0 0
1 0 0
16 0 0
88 0 0
23 0 0
0 7 0
0 91 0
0 95 0
0 93 0
0 88 0
0 58 0
0 52 0
0 52 0
0 40 0
12 0 0
9 0 0
0 0 3
0 34 26
0 16 12
0 12 0
0 13 0
4 22 0
14 51 0
0 84 0
0 91 0
0 75 0
5 25 0
14 0 0
10 0 0
6 0 0
0 43 0
0 54 0
0 64 0
0 94 0
0 94 0
0 93 0
0 93 0
0 93 0
0 79 0
23 0 0
12 0 0
0 0 6
0 39 40
0 7 7
0 0 0
0 0 0
0 0 0
0 0 0
0 0 0
0 0 0
0 0 0
0 0 0
15 0 0
89 0 0
23 0 0
1 6 0
0 89 0
0 94 0
0 93 0
0 86 0
0 53 0
0 53 0
0 46 0
10 4 0
10 0 0
8 0 0
0 14 0
0 63 6
0 36 0
16 49 0
0 77 0
0 84 0
0 88 0
0 93 0
0 93 0
0 87 0
0 43 0
12 1 0
10 0 0
9 0 0
2 7 0
0 50 0
0 60 0
0 93 0
0 94 0
0 93 0
0 93 0
0 93 0
0 77 0
23 0 0
12 0 0
0 0 6
0 39 40
0 7 7
0 0 0
0 0 0
0 0 0
0 0 0
0 0 0
0 0 0
0 0 0
0 0 0
15 0 0
87 0 0
24 0 0
2 3 0
0 72 0
0 93 0
0 91 0
0 70 0
0 52 0
0 53 0
0 45 0
13 0 0
10 0 0
2 5 0
0 79 0
0 92 0
0 86 0
0 88 0
0 93 0
0 93 0
0 93 0
0 93 0
0 93 0
0 87 0
0 52 0
0 38 0
12 0 0
10 0 0
5 0 0
0 50 0
0 58 0
0 80 0
0 93 0
0 94 0
0 93 0
0 89 0
0 57 0
24 0 0
11 0 0
0 4 10
0 36 37
0 6 6
0 0 0
0 0 0
0 0 0
0 0 0
0 0 0
0 0 0
0 0 0
0 0 0
11 0 0
67 0 0
41 0 0
12 0 0
0 14 0
0 81 0
0 88 0
0 55 0
0 53 0
0 54 0
0 45 0
13 0 0
10 0 0
0 6 0
0 84 0
0 85 0
0 88 0
0 93 0
0 93 0
0 93 0
0 93 0
0 93 0
0 92 0
0 83 0
0 53 0
0 45 0
13 0 0
10 0 0
5 1 0
0 50 0
0 54 0
0 62 0
0 94 0
0 94 0
0 92 0
0 70 0
16 4 0
14 0 0
0 0 4
0 28 31
0 16 17
0 2 2
0 0 0
0 0 0
0 0 0
0 0 0
0 0 0
0 0 0
0 0 0
0 0 0
2 0 0
21 0 0
73 0 0
30 0 0
10 0 0
0 15 0
0 73 0
0 47 0
0 49 0
0 53 0
0 45 0
13 0 0
10 0 0
0 1 4
0 49 30
0 28 0
18 58 0
0 89 0
0 93 0
0 93 0
0 93 0
0 93 0
0 88 0
0 57 0
0 53 0
0 45 0
13 0 0
10 0 0
5 0 0
0 50 0
0 54 0
0 59 0
0 87 0
0 82 0
0 69 0
14 5 0
13 0 0
8 0 0
0 5 10
0 35 35
0 7 7
0 1 1
0 0 0
0 0 0
0 0 0
0 0 0
0 0 0
0 0 0
0 0 0
0 0 0
0 0 0
2 0 0
22 0 0
71 0 0
29 0 0
10 0 0
2 3 0
5 4 0
0 25 0
0 46 0
0 45 0
13 0 0
10 0 0
0 2 3
0 53 21
4 46 0
0 77 0
0 92 0
0 93 0
0 93 0
0 93 0
0 92 0
0 83 0
0 53 0
0 53 0
0 46 0
13 0 0
10 0 0
5 0 0
0 48 0
0 48 0
0 46 0
0 39 0
7 7 0
6 3 0
11 0 0
8 0 0
0 4 9
0 31 32
0 11 11
0 1 1
0 0 0
0 0 0
0 0 0
0 0 0
0 0 0
0 0 0
0 0 0
0 0 0
0 0 0
0 0 0
0 0 0
2 0 0
22 0 0
71 0 0
29 0 0
11 0 0
9 0 0
7 0 0
0 7 0
0 41 0
20 0 0
12 0 0
1 4 0
0 76 0
0 88 0
0 92 0
0 93 0
0 93 0
0 93 0
0 90 0
0 84 0
0 57 0
0 53 0
0 53 0
0 40 0
12 0 0
10 0 0
4 0 0
0 41 0
16 0 0
8 0 0
7 0 0
10 0 0
9 0 0
8 0 0
0 4 9
0 31 32
0 10 10
0 1 1
0 0 0
0 0 0
0 0 0
0 0 0
0 0 0
0 0 0
0 0 0
0 0 0
0 0 0
0 0 0
0 0 0
0 0 0
0 0 0
2 0 0
22 0 0
70 0 0
20 0 0
19 0 0
11 0 0
0 0 4
0 34 27
58 0 0
29 0 0
9 0 0
0 25 0
0 92 0
0 95 0
0 92 0
0 89 0
0 86 0
0 73 0
0 56 0
0 53 0
0 54 0
0 47 0
9 5 0
9 0 0
8 0 0
0 5 9
0 29 22
69 0 0
21 0 0
8 0 0
0 0 4
6 0 0
0 0 4
0 30 31
0 10 10
0 1 1
0 0 0
0 0 0
0 0 0
0 0 0
0 0 0
0 0 0
0 0 0
0 0 0
0 0 0
0 0 0
0 0 0
0 0 0
0 0 0
0 0 0
0 0 0
2 0 0
11 0 0
14 0 0
70 0 0
29 0 0
0 0 6
0 38 39
11 0 0
81 0 0
21 0 0
1 6 0
0 78 0
0 89 0
0 84 0
0 59 0
0 58 0
0 56 0
0 53 0
0 54 0
0 52 0
0 39 0
13 0 0
10 0 0
0 0 5
0 35 36
0 3 4
86 0 0
21 0 0
0 4 10
0 29 31
0 5 6
0 0 1
0 5 5
0 1 1
0 0 0
0 0 0
0 0 0
0 0 0
0 0 0
0 0 0
0 0 0
0 0 0
0 0 0
0 0 0
0 0 0
0 0 0
0 0 0
0 0 0
0 0 0
0 0 0
0 0 0
0 0 0
2 0 0
22 0 0
68 0 0
0 0 4
0 32 32
3 0 0
80 0 0
31 0 0
10 0 0
0 10 0
0 46 0
0 51 0
0 51 0
0 53 0
0 53 0
0 51 0
0 46 0
0 38 0
10 1 0
11 0 0
8 0 0
0 5 11
0 35 36
0 0 0
73 0 0
12 0 0
0 29 31
0 10 11
0 1 1
0 0 0
0 0 0
0 0 0
0 0 0
0 0 0
0 0 0
