P3
#lovely12
20 20
255

255 255 255
255 255 255
255 255 255
255 255 253
254 255 255
255 255 255
254 255 255
255 255 255
255 255 255
255 255 255
255 255 255
255 255 255
255 255 255
255 255 255
255 255 255
255 255 255
255 255 255
255 255 255
255 255 255
255 255 255
255 255 255
255 255 255
255 255 255
253 253 253
11 1 0
11 1 0
253 253 253
255 255 255
255 255 253
255 255 255
255 255 255
255 255 255
255 255 255
255 255 255
255 255 255
255 255 255
255 255 255
255 255 255
255 255 255
255 255 255
255 255 255
254 255 255
21 27 235
0 27 255
0 27 255
0 26 251
0 27 255
21 28 240
0 0 0
0 0 0
0 0 0
0 0 0
255 255 255
255 255 255
255 255 255
255 255 255
255 255 255
255 255 255
255 255 255
255 255 255
254 254 254
253 253 253
0 27 255
254 253 251
1 28 255
2 26 251
232 252 244
0 24 253
1 1 1
0 0 0
0 0 0
0 0 0
255 255 255
255 255 255
255 255 255
255 255 255
255 255 255
255 255 255
255 255 255
255 255 255
255 254 255
10 0 0
0 27 255
253 253 254
0 27 215
0 27 255
254 202 254
0 26 255
244 203 255
0 0 0
0 0 0
0 0 0
255 255 255
255 255 255
255 255 255
255 255 255
255 255 255
255 255 255
255 255 255
255 255 255
255 255 255
10 0 0
253 253 253
0 27 251
0 27 255
0 23 246
1 28 255
251 203 255
241 252 233
0 0 0
0 0 0
0 0 0
255 255 255
255 255 255
255 255 255
255 255 255
255 255 255
255 255 255
255 255 255
255 255 255
255 255 255
253 253 253
0 27 255
0 29 253
0 27 255
0 24 253
0 255 0
0 255 0
0 255 0
0 255 0
0 255 0
0 255 0
0 255 0
0 255 0
0 255 0
0 255 0
255 255 255
255 255 255
255 255 255
255 255 255
255 255 255
255 255 255
22 29 241
0 27 255
250 254 253
251 201 254
0 255 0
0 255 0
0 255 0
0 253 0
0 1 0
0 1 0
0 253 0
0 255 0
0 255 0
0 255 0
255 255 255
255 255 255
255 255 255
255 255 255
255 255 255
255 255 253
0 0 0
2 2 2
245 202 255
243 198 251
0 255 0
0 255 0
0 228 0
0 228 0
0 228 0
0 229 0
0 228 0
0 227 0
0 255 0
0 255 0
255 255 255
255 255 255
255 255 255
255 255 255
255 255 255
255 255 255
0 0 0
0 0 0
0 0 0
0 0 0
0 254 0
0 253 0
0 228 0
0 2 0
0 227 0
0 229 0
0 1 0
0 229 0
0 254 0
0 255 0
255 255 255
255 255 255
255 255 255
255 255 255
255 255 255
255 255 255
0 0 0
0 0 0
0 0 0
0 0 0
0 254 0
0 0 0
0 228 0
0 2 0
0 228 0
0 228 0
0 1 0
0 229 0
0 2 0
0 255 0
255 255 255
255 255 255
255 255 255
255 255 255
255 255 255
255 255 255
0 0 0
0 0 0
0 0 0
0 0 0
0 255 0
0 0 0
0 0 0
0 228 0
0 228 0
0 228 0
0 227 0
0 0 0
0 1 0
0 255 0
255 255 255
255 255 255
255 255 255
255 255 255
255 255 255
255 255 255
255 255 255
255 255 255
255 255 255
255 255 255
0 255 0
0 253 0
0 228 0
0 226 0
0 228 0
0 227 0
0 226 0
0 229 0
0 254 0
0 255 0
255 255 255
255 255 255
255 255 255
255 255 255
255 255 255
255 255 255
255 255 255
255 255 255
255 255 255
255 255 255
0 255 0
0 255 0
0 226 0
0 228 0
0 1 0
0 0 0
0 228 0
0 231 0
0 255 0
0 255 0
255 255 255
255 255 255
255 255 255
255 255 255
255 255 255
255 255 255
255 255 255
255 255 255
255 255 255
255 255 255
0 255 0
0 255 0
0 255 0
0 253 0
0 1 0
0 1 0
0 252 0
0 254 0
0 255 0
0 255 0
255 255 255
255 255 255
255 255 255
255 255 255
255 255 255
255 255 255
255 255 255
255 255 255
255 255 255
255 255 255
0 255 0
0 255 0
0 255 0
0 255 0
0 255 0
0 255 0
0 255 0
0 255 0
0 255 0
0 255 0
255 255 255
255 255 255
255 255 255
255 255 255
255 255 255
255 255 255
255 255 255
255 255 255
255 255 255
255 255 255
255 255 255
255 255 255
255 255 255
255 255 255
255 255 255
255 255 255
255 255 255
255 255 255
255 255 255
255 255 255
255 255 255
255 255 255
255 255 255
255 255 255
255 255 255
255 255 255
255 255 255
255 255 255
255 255 255
255 255 255
255 255 255
255 255 255
255 255 255
255 255 255
255 255 255
255 255 255
255 255 255
255 255 255
255 255 255
255 255 255
255 255 255
255 255 255
255 255 255
255 255 255
255 255 255
255 255 255
255 255 255
255 255 255
255 255 255
255 255 255
255 255 255
255 255 255
255 255 255
255 255 255
255 255 255
255 255 255
255 255 255
255 255 255
255 255 255
255 255 255
255 255 255
255 255 255
255 255 255
255 255 255
255 255 255
255 255 255
255 255 255
255 255 255
255 255 255
255 255 255
255 255 255
255 255 255
255 255 255
255 255 255
255 255 255
255 255 255
255 255 255
255 255 255
255 255 255
255 255 255
255 255 255
255 255 255
255 255 255
255 255 255
