P3
#multiply5
20 20
255

255 0 0
255 0 0
255 0 0
255 0 0
254 0 0
255 0 0
254 0 0
255 0 0
255 0 0
255 0 0
0 0 0
0 0 0
0 0 0
0 0 0
0 0 0
0 0 0
0 0 0
0 0 0
0 0 0
0 0 0
255 0 0
255 0 0
255 0 0
253 0 0
11 0 0
11 0 0
253 0 0
255 0 0
255 0 0
255 0 0
0 0 0
0 0 0
0 0 0
0 0 0
0 0 0
0 0 0
0 0 0
0 0 0
0 0 0
0 0 0
255 0 0
254 0 0
234 0 0
255 0 0
255 0 0
255 0 0
255 0 0
234 0 0
255 0 0
255 0 0
0 0 0
0 0 0
0 0 0
0 0 0
0 0 0
0 0 0
0 0 0
0 0 0
0 0 0
0 0 0
254 0 0
253 0 0
255 0 0
255 255 255
255 255 255
255 255 255
255 255 253
254 255 255
255 255 255
254 255 255
255 255 255
255 255 255
255 255 255
0 0 0
0 0 0
0 0 0
0 0 0
0 0 0
0 0 0
0 0 0
255 0 0
10 0 0
255 0 0
255 255 255
255 255 255
255 255 255
253 253 253
11 1 0
11 1 0
253 253 253
255 255 255
255 255 253
255 255 255
0 0 0
0 0 0
0 0 0
0 0 0
0 0 0
0 0 0
0 0 0
255 0 0
10 0 0
0 0 0
255 255 255
254 255 255
234 228 20
255 228 0
255 228 0
255 229 0
255 228 0
234 227 15
255 255 255
255 255 255
0 0 0
0 0 0
0 0 0
0 0 0
0 0 0
0 0 0
0 0 0
255 0 0
253 0 0
255 0 0
254 254 254
253 253 253
255 228 0
2 2 2
127 127 127
126 126 126
11 11 0
1 255 255
254 254 254
254 255 255
0 0 0
0 0 0
0 0 0
0 0 0
0 0 0
0 0 0
0 0 0
255 0 0
255 0 0
233 0 0
255 254 255
10 0 0
255 228 0
1 1 1
127 127 127
127 127 127
0 0 0
5 0 0
0 0 0
253 253 253
0 0 0
0 0 0
0 0 0
0 0 0
0 0 0
0 0 0
0 0 0
255 0 0
255 0 0
255 0 0
255 255 255
10 0 0
0 0 0
127 127 127
0 254 254
117 114 10
127 113 0
0 0 0
6 5 0
255 228 0
0 0 0
0 0 0
0 0 0
0 0 0
0 0 0
0 0 0
0 0 0
255 0 0
255 0 0
255 0 0
255 255 255
253 253 253
255 228 0
127 127 127
126 126 126
127 114 0
0 1 2
126 112 0
252 228 0
1 1 10
0 0 0
0 0 0
0 0 0
0 0 0
0 0 0
0 0 0
0 0 0
0 0 0
0 0 0
0 0 0
255 255 255
255 255 255
233 226 14
254 0 254
0 0 0
2 1 0
0 1 0
126 112 0
255 228 0
1 1 1
0 0 0
0 0 0
0 0 0
0 0 0
0 0 0
0 0 0
0 0 0
0 0 0
0 0 0
0 0 0
255 255 255
255 255 253
255 255 255
253 253 253
0 0 0
0 0 0
252 225 0
254 227 0
255 228 0
254 227 0
0 0 0
0 0 0
0 0 0
0 0 0
0 0 0
0 0 0
0 0 0
0 0 0
0 0 0
0 0 0
255 255 255
255 255 255
255 255 255
255 255 255
253 253 253
255 228 0
255 226 1
254 227 0
255 227 0
254 226 4
0 0 0
0 0 0
0 0 0
0 0 0
0 0 0
0 0 0
0 0 0
0 0 0
0 0 0
0 0 0
0 0 0
0 0 0
0 0 0
0 0 0
0 0 0
0 0 0
0 0 0
0 0 0
0 0 0
0 0 0
0 0 0
0 0 0
0 0 0
0 0 0
0 0 0
0 0 0
0 0 0
0 0 0
0 0 0
0 0 0
0 0 0
0 0 0
0 0 0
0 0 0
0 0 0
0 0 0
0 0 0
0 0 0
0 0 0
0 0 0
0 0 0
0 0 0
0 0 0
0 0 0
0 0 0
0 0 0
0 0 0
0 0 0
0 0 0
0 0 0
0 0 0
0 0 0
0 0 0
0 0 0
0 0 0
0 0 0
0 0 0
0 0 0
0 0 0
0 0 0
0 0 0
0 0 0
0 0 0
0 0 0
0 0 0
0 0 0
0 0 0
0 0 0
0 0 0
0 0 0
0 0 0
0 0 0
0 0 0
0 0 0
0 0 0
0 0 0
0 0 0
0 0 0
0 0 0
0 0 0
0 0 0
0 0 0
0 0 0
0 0 0
0 0 0
0 0 0
0 0 0
0 0 0
0 0 0
0 0 0
0 0 0
0 0 0
0 0 0
0 0 0
0 0 0
0 0 0
0 0 0
0 0 0
0 0 0
0 0 0
0 0 0
0 0 0
0 0 0
0 0 0
0 0 0
0 0 0
0 0 0
0 0 0
0 0 0
0 0 0
0 0 0
0 0 0
0 0 0
0 0 0
0 0 0
0 0 0
0 0 0
0 0 0
0 0 0
0 0 0
0 0 0
0 0 0
0 0 0
0 0 0
0 0 0
0 0 0
0 0 0
0 0 0
0 0 0
0 0 0
0 0 0
0 0 0
0 0 0
0 0 0
0 0 0
0 0 0
0 0 0
0 0 0
0 0 0
0 0 0
0 0 0
0 0 0
0 0 0
0 0 0
0 0 0
0 0 0
0 0 0
