P3
#sane1
10 10
255

255 255 255
255 75 132
255 255 255
255 255 255
255 255 255
255 255 255
255 255 255
255 255 255
255 255 255
255 255 255
255 255 255
255 255 255
255 255 255
255 255 255
255 255 255
255 255 255
255 255 255
255 255 255
255 255 255
255 255 255
255 255 255
255 255 255
255 248 127
255 248 127
255 248 127
255 248 127
255 248 127
255 248 127
255 255 255
255 255 255
255 255 255
255 255 255
255 248 127
127 127 127
255 248 127
255 248 127
127 127 127
255 248 127
255 255 255
255 255 255
255 255 255
255 255 255
255 248 127
255 248 127
255 248 127
255 248 127
255 248 127
255 248 127
255 255 255
255 255 255
255 255 255
255 255 255
255 248 127
127 127 127
255 248 127
255 248 127
127 127 127
255 248 127
255 255 255
255 255 255
255 255 255
255 255 255
255 248 127
127 127 127
127 127 127
127 127 127
127 127 127
255 248 127
255 255 255
255 255 255
255 255 255
255 255 255
255 248 127
255 248 127
255 248 127
255 248 127
255 248 127
255 248 127
255 255 255
255 255 255
255 255 255
255 255 255
255 255 255
255 255 255
255 255 255
255 255 255
255 255 255
255 255 255
255 255 255
211 242 141
255 255 255
255 255 255
255 255 255
255 255 255
255 255 255
255 255 255
255 255 255
255 255 255
255 255 255
255 255 255
