P3
#sanity28
10 10
255

255 255 255
255 255 255
255 255 255
255 255 255
255 255 255
255 255 255
255 255 255
255 255 255
255 255 255
255 255 255
255 255 255
255 255 255
255 255 255
255 255 255
255 255 255
255 255 255
255 255 255
255 255 255
255 255 255
255 255 255
255 255 255
255 255 255
255 255 255
255 255 255
255 255 255
255 255 255
255 255 255
255 255 255
255 255 255
255 255 255
255 255 255
255 255 255
255 255 255
0 0 0
0 0 0
0 0 0
0 0 2
1 0 0
0 0 0
1 0 0
255 255 255
255 255 255
255 255 255
0 0 0
0 0 0
0 0 0
2 2 2
244 254 255
244 254 255
2 2 2
255 255 255
255 255 255
255 255 255
0 0 0
1 0 0
21 27 235
0 27 255
0 27 255
0 26 255
0 27 255
255 255 255
255 255 255
255 255 255
1 1 1
2 2 2
0 27 255
255 255 255
255 255 255
255 255 255
255 255 253
255 255 255
255 255 255
255 255 255
0 1 0
245 255 255
0 27 255
255 255 255
255 255 255
255 255 255
253 253 253
255 255 255
255 255 255
255 255 255
0 0 0
245 255 255
255 255 255
255 255 255
254 255 255
234 228 20
255 228 0
255 255 255
255 255 255
255 255 255
0 0 0
2 2 2
0 27 255
254 254 254
253 253 253
255 228 0
1 2 4
