P3
#cherryNewBrightenValue
50 50
255

255 255 255
255 255 255
255 255 255
255 255 255
255 255 255
255 255 255
255 255 255
255 255 255
255 255 255
255 255 255
255 255 255
255 255 255
255 255 255
255 255 255
255 255 255
255 255 255
255 255 255
255 255 255
255 255 255
255 255 255
255 255 255
255 255 255
255 255 255
255 255 255
255 255 255
255 255 255
255 255 255
255 255 255
255 255 255
255 255 255
255 255 255
255 255 255
255 255 255
255 255 255
255 255 255
255 255 255
255 255 255
255 255 255
255 255 255
255 255 255
255 255 255
255 255 255
255 255 255
255 255 255
255 255 255
255 255 255
255 255 255
255 255 255
255 255 255
255 255 255
255 255 255
255 255 255
255 255 255
255 255 255
255 255 255
255 255 255
255 255 255
255 255 255
255 255 255
255 255 255
255 255 255
255 255 255
255 255 255
255 255 255
255 255 255
255 255 255
255 255 255
255 255 255
255 255 255
255 255 255
255 255 255
255 255 255
255 255 255
255 255 255
255 255 255
255 255 255
255 255 255
255 255 255
255 255 255
255 255 255
255 255 255
255 255 255
255 255 255
255 255 255
255 255 255
255 255 255
255 255 255
255 255 255
255 255 255
255 255 255
255 255 255
255 255 255
255 255 255
255 255 255
255 255 255
255 255 255
255 255 255
255 255 255
255 255 255
255 255 255
255 255 255
255 255 255
255 255 255
255 255 255
255 255 255
255 255 255
255 255 255
255 255 255
255 255 255
255 255 255
255 255 255
255 255 255
255 255 255
224 203 209
221 228 232
255 255 255
255 255 255
255 255 255
255 255 255
255 255 255
255 255 255
255 255 255
255 255 255
255 255 255
255 255 255
255 255 255
255 255 255
255 255 255
255 255 255
255 255 255
255 255 255
255 255 255
255 255 255
255 255 255
255 255 255
255 255 255
255 255 255
255 255 255
255 255 255
255 255 255
255 255 255
255 255 255
255 255 255
255 255 255
255 255 255
255 255 255
255 255 255
255 255 255
255 255 255
255 255 255
255 255 255
255 255 255
255 255 255
255 255 255
255 255 255
255 255 255
255 255 255
255 255 255
255 255 255
240 210 216
210 193 200
206 181 188
188 163 170
172 154 161
170 156 163
181 180 186
204 192 198
216 217 222
255 255 255
255 255 255
255 255 255
255 255 255
255 255 255
255 255 255
255 255 255
255 255 255
255 255 255
255 255 255
255 255 255
255 255 255
255 255 255
255 255 255
255 255 255
255 255 255
255 255 255
255 255 255
255 255 255
255 255 255
255 255 255
255 255 255
255 255 255
255 255 255
255 255 255
255 255 255
255 255 255
255 255 255
255 255 255
255 255 255
255 255 255
255 255 255
255 255 255
255 255 255
255 255 255
255 255 255
255 255 255
255 255 255
255 255 255
240 207 213
204 172 179
174 155 162
170 153 160
170 156 163
182 181 188
206 192 198
208 184 190
190 164 171
172 154 161
170 155 162
180 179 186
214 218 224
255 255 255
255 255 255
255 255 255
255 255 255
255 255 255
255 255 255
255 255 255
255 255 255
255 255 255
255 255 255
255 255 255
255 255 255
255 255 255
255 255 255
255 255 255
255 255 255
255 255 255
255 255 255
255 255 255
255 255 255
255 255 255
255 255 255
255 255 255
255 255 255
255 255 255
255 255 255
255 255 255
255 255 255
255 255 255
255 255 255
255 255 255
255 255 255
255 255 255
255 255 255
255 255 255
255 255 255
234 187 194
174 155 162
170 156 162
181 182 188
206 196 201
224 232 236
255 255 255
255 255 255
255 255 255
255 255 255
228 205 211
212 194 200
206 173 180
174 157 164
196 213 218
255 255 255
255 255 255
255 255 255
255 255 255
255 255 255
255 255 255
255 255 255
255 255 255
255 255 255
255 255 255
255 255 255
255 255 255
255 255 255
255 255 255
255 255 255
255 255 255
255 255 255
255 255 255
255 255 255
255 255 255
255 255 255
255 255 255
255 255 255
255 255 255
255 255 255
255 255 255
255 255 255
255 255 255
255 255 255
255 255 255
255 255 255
255 255 255
255 255 255
255 255 255
234 187 194
174 158 164
181 182 188
216 222 226
255 255 255
255 255 255
255 255 255
255 255 255
255 255 255
255 255 255
255 255 255
255 255 255
255 255 255
255 255 255
236 189 195
174 157 164
196 213 218
255 255 255
255 255 255
255 255 255
255 255 255
255 255 255
255 255 255
255 255 255
255 255 255
255 255 255
255 255 255
255 255 255
255 255 255
255 255 255
255 255 255
255 255 255
255 255 255
255 255 255
255 255 255
255 255 255
255 255 255
255 255 255
255 255 255
255 255 255
255 255 255
255 255 255
255 255 255
255 255 255
255 255 255
255 255 255
255 255 255
255 255 255
255 255 255
234 187 194
174 158 164
198 216 222
255 255 255
255 255 255
255 255 255
255 255 255
255 255 255
255 255 255
255 255 255
255 255 255
255 255 255
255 255 255
255 255 255
255 255 255
255 255 255
222 180 188
172 156 163
196 213 218
255 255 255
255 255 255
255 255 255
255 255 255
255 255 255
255 255 255
255 255 255
255 255 255
255 255 255
255 255 255
255 255 255
255 255 255
255 255 255
255 255 255
255 255 255
255 255 255
255 255 255
255 255 255
255 255 255
255 255 255
255 255 255
255 255 255
255 255 255
255 255 255
255 255 255
255 255 255
255 255 255
255 255 255
255 255 255
255 255 255
244 193 200
176 158 165
198 216 222
255 255 255
255 255 255
255 255 255
255 255 255
255 255 255
255 255 255
255 255 255
255 255 255
255 255 255
255 255 255
255 255 255
255 255 255
255 255 255
255 255 255
255 245 255
208 173 181
172 157 162
199 218 224
255 255 255
255 255 255
255 255 255
255 255 255
255 255 255
255 255 255
255 255 255
255 255 255
255 255 255
255 255 255
255 255 255
255 255 255
255 255 255
255 255 255
255 255 255
255 255 255
255 255 255
255 255 255
255 255 255
255 255 255
255 255 255
255 255 255
255 255 255
255 255 255
255 255 255
255 255 255
255 255 255
255 255 255
255 255 255
206 171 178
179 182 188
255 255 255
255 255 255
255 255 255
255 255 255
255 255 255
255 255 255
255 255 255
255 255 255
255 255 255
255 255 255
255 255 255
255 255 255
255 255 255
255 255 255
255 255 255
255 255 255
255 240 255
200 168 176
177 177 184
255 255 255
255 255 255
255 255 255
255 255 255
255 255 255
255 255 255
255 255 255
255 255 255
255 255 255
255 255 255
255 255 255
255 255 255
255 255 255
255 255 255
255 255 255
255 255 255
255 255 255
255 255 255
255 255 255
255 255 255
255 255 255
255 255 255
255 255 255
255 255 255
255 255 255
255 255 255
255 255 255
255 255 255
242 192 199
174 158 164
199 217 224
255 255 255
255 255 255
255 255 255
255 255 255
255 255 255
255 255 255
255 255 255
255 255 255
255 255 255
255 255 255
255 255 255
255 255 255
255 255 255
255 255 255
255 255 255
255 255 255
255 255 255
255 209 221
182 161 168
195 210 216
255 255 255
255 255 255
255 255 255
255 255 255
255 255 255
255 255 255
255 255 255
255 255 255
255 255 255
255 255 255
255 255 255
255 255 255
255 255 255
255 255 255
255 255 255
255 255 255
255 255 255
255 255 255
255 255 255
255 255 255
255 255 255
255 255 255
255 255 255
255 255 255
255 255 255
255 255 255
255 255 255
210 173 180
179 182 188
255 255 255
255 255 255
255 182 255
255 207 255
255 255 255
255 255 255
255 255 255
255 255 255
255 255 255
255 255 255
255 255 255
255 255 255
255 255 255
255 255 255
255 255 255
255 255 255
255 255 255
255 255 255
255 249 255
210 174 182
172 156 163
199 219 224
255 255 255
255 255 255
255 255 255
255 255 255
255 255 255
255 255 255
255 255 255
255 255 255
255 255 255
255 255 255
255 255 255
240 210 216
210 195 201
210 195 201
210 195 201
210 198 204
235 251 255
255 255 255
255 255 255
255 255 255
255 255 255
255 255 255
255 255 255
255 255 255
255 255 255
255 255 255
210 173 180
180 182 190
255 255 255
255 241 255
255 165 255
255 168 255
255 189 255
255 228 255
255 255 255
255 255 255
255 255 255
255 255 255
255 255 255
255 255 255
255 255 255
255 255 255
255 255 255
255 255 255
255 255 255
255 255 255
255 255 255
255 236 251
190 163 170
178 180 186
255 255 255
255 255 255
255 255 255
255 255 255
255 255 255
255 255 255
255 255 255
255 255 255
255 255 255
240 207 213
204 172 179
174 155 162
170 153 160
170 153 160
170 153 160
170 153 160
170 158 165
198 213 218
255 255 255
255 255 255
255 255 255
255 255 255
255 255 255
255 255 255
255 255 255
255 255 255
210 173 180
172 151 174
250 193 255
255 169 255
255 165 255
255 165 255
255 165 255
255 171 255
255 206 255
255 255 255
255 255 255
255 255 255
255 255 255
255 255 255
255 255 255
255 255 255
255 255 255
255 255 255
255 255 255
255 255 255
255 255 255
255 254 255
210 174 182
172 156 163
199 219 224
255 255 255
255 255 255
255 255 255
255 255 255
255 255 255
255 255 255
255 255 255
234 187 194
174 154 162
170 151 162
172 146 170
180 150 175
182 151 176
182 151 176
182 153 174
180 157 166
170 155 162
195 212 216
255 255 255
255 255 255
255 255 255
255 255 255
255 255 255
255 255 255
255 255 255
210 173 180
170 145 170
239 161 255
255 165 255
255 165 255
255 165 255
255 165 255
255 165 255
255 168 255
255 187 255
255 215 255
255 255 255
255 255 255
255 255 255
255 255 255
255 255 255
255 255 255
255 255 255
255 255 255
255 255 255
255 255 255
255 255 255
255 236 251
190 163 170
178 181 186
255 255 255
255 255 255
255 255 255
255 255 255
255 255 255
255 255 255
240 190 197
174 154 162
170 148 165
185 145 194
239 158 255
255 161 255
255 161 255
255 161 255
255 164 255
246 179 214
190 162 171
170 155 162
197 214 220
255 255 255
255 255 255
255 255 255
255 255 255
255 255 255
255 255 255
210 173 180
170 146 170
239 162 255
255 165 255
255 165 255
255 165 255
255 165 255
255 165 255
255 165 255
255 165 255
255 169 255
255 206 255
255 255 255
255 255 255
255 255 255
255 255 255
255 255 255
255 255 255
255 255 255
255 255 255
255 255 255
255 255 255
255 253 255
210 174 182
172 156 163
199 218 224
255 255 255
255 255 255
255 255 255
255 255 255
255 255 255
204 170 177
170 149 164
198 150 222
252 160 255
255 163 255
255 165 255
255 165 255
255 164 255
255 164 255
255 160 255
254 183 218
188 161 170
170 156 163
204 228 232
255 255 255
255 255 255
255 255 255
255 255 255
255 255 255
210 173 180
170 145 170
239 161 255
255 165 255
255 165 255
255 165 255
255 165 255
255 165 255
255 165 255
255 165 255
255 165 255
255 168 255
255 187 255
255 213 255
255 255 255
255 255 255
255 255 255
255 255 255
255 255 255
255 255 255
255 255 255
255 255 255
255 255 255
255 236 252
190 163 170
178 180 186
255 255 255
255 255 255
255 255 255
255 255 255
240 190 197
174 154 163
177 147 184
241 161 255
255 164 255
255 165 255
255 165 255
255 165 255
255 165 255
255 165 255
255 165 255
255 162 255
250 187 208
180 158 165
182 188 194
255 255 255
255 255 255
255 255 255
255 255 255
255 255 255
210 173 180
170 145 170
238 162 255
255 164 255
255 165 255
255 165 255
255 165 255
255 165 255
255 165 255
255 165 255
255 165 255
255 165 255
255 165 255
255 168 255
255 206 255
255 255 255
255 255 255
255 255 255
255 255 255
255 255 255
255 255 255
255 255 255
255 255 255
255 253 255
210 174 182
172 156 163
199 219 224
255 255 255
255 255 255
255 255 255
204 170 177
170 145 169
230 159 255
255 164 255
255 165 255
255 165 255
255 165 255
255 165 255
255 165 255
255 165 255
255 165 255
255 162 255
255 191 216
182 159 166
181 186 192
255 255 255
255 255 255
255 255 255
255 255 255
255 255 255
232 186 193
174 150 170
223 164 255
255 165 255
255 165 255
255 165 255
255 165 255
255 165 255
255 165 255
255 165 255
255 165 255
255 165 255
255 165 255
255 165 255
255 168 255
255 186 255
255 210 255
255 255 255
255 255 255
255 255 255
255 255 255
255 255 255
255 255 255
255 255 255
255 236 251
190 163 170
178 180 186
255 255 255
255 255 255
234 187 194
174 153 163
179 145 188
246 162 255
255 165 255
255 165 255
255 165 255
255 165 255
255 165 255
255 165 255
255 165 255
255 165 255
255 161 255
255 191 216
182 159 166
181 186 192
255 255 255
255 255 255
255 255 255
255 255 255
255 255 255
255 255 255
198 166 175
175 147 180
237 159 255
255 163 255
255 165 255
255 165 255
255 165 255
255 165 255
255 165 255
255 165 255
255 165 255
255 165 255
255 165 255
255 165 255
255 165 255
255 168 255
255 206 255
255 255 255
255 255 255
255 255 255
255 255 255
255 255 255
255 255 255
255 254 255
210 174 182
172 156 163
178 175 182
198 169 176
174 155 162
170 146 169
231 160 255
255 164 255
255 165 255
255 165 255
255 165 255
255 165 255
255 165 255
255 165 255
255 165 255
255 165 255
255 161 255
255 191 216
182 159 166
181 186 192
255 255 255
255 255 255
255 255 255
255 255 255
255 255 255
255 255 255
230 185 192
172 151 163
185 143 198
248 162 255
255 164 255
255 165 255
255 165 255
255 165 255
255 165 255
255 165 255
255 165 255
255 165 255
255 165 255
255 165 255
255 165 255
255 165 255
255 168 255
255 186 255
255 209 255
255 255 255
255 255 255
255 255 255
255 255 255
255 255 255
255 236 251
190 163 170
170 153 160
170 153 160
170 152 161
178 147 186
245 161 255
255 165 255
255 165 255
255 165 255
255 165 255
255 165 255
255 165 255
255 165 255
255 165 255
255 165 255
255 162 255
255 191 216
182 159 166
181 186 192
255 255 255
255 255 255
255 255 255
255 255 255
255 255 255
255 255 255
255 255 255
196 165 173
170 146 168
219 163 255
255 162 255
255 164 255
255 165 255
255 165 255
255 165 255
255 165 255
255 165 255
255 165 255
255 165 255
255 165 255
255 165 255
255 165 255
255 165 255
255 165 255
255 168 255
255 206 255
255 255 255
255 255 255
255 255 255
255 255 255
255 254 255
212 175 183
172 154 161
170 153 160
170 147 169
230 159 255
255 164 255
255 165 255
255 165 255
255 165 255
255 165 255
255 165 255
255 165 255
255 165 255
255 165 255
255 165 255
255 162 255
248 186 207
180 159 166
189 200 206
255 255 255
255 255 255
255 255 255
255 255 255
255 255 255
255 255 255
255 255 255
238 189 196
174 154 163
170 148 167
185 147 190
238 160 255
255 162 255
255 164 255
255 165 255
255 165 255
255 165 255
255 165 255
255 165 255
255 165 255
255 165 255
255 165 255
255 165 255
255 165 255
255 165 255
255 168 255
255 186 255
255 209 255
255 255 255
255 255 255
255 255 255
255 236 251
190 163 170
170 152 161
177 148 184
244 162 255
255 165 255
255 165 255
255 165 255
255 165 255
255 165 255
255 165 255
255 165 255
255 164 255
255 161 255
255 160 255
252 182 217
190 162 171
170 163 169
248 255 255
255 255 255
255 255 255
255 255 255
255 255 255
255 255 255
255 255 255
255 255 255
255 255 255
234 187 194
174 155 162
170 151 161
170 145 169
187 147 192
238 160 255
255 161 255
255 161 255
255 162 255
255 161 255
255 165 255
255 164 255
255 165 255
255 165 255
255 165 255
255 165 255
255 165 255
255 165 255
255 165 255
255 168 255
255 206 255
255 255 255
255 255 255
255 239 255
192 164 171
170 149 166
212 158 246
255 164 255
255 165 255
255 164 255
255 165 255
255 162 255
255 162 255
255 161 255
255 161 255
255 160 255
254 167 233
206 161 189
182 158 167
170 155 162
198 216 222
255 255 255
255 255 255
255 255 255
255 255 255
255 255 255
255 255 255
255 255 255
255 255 255
255 255 255
255 255 255
238 200 207
194 166 173
172 154 161
170 151 161
172 147 170
180 150 175
182 151 176
182 148 178
192 142 200
235 163 255
255 162 255
255 161 255
255 161 255
255 161 255
255 161 255
255 161 255
255 161 255
255 161 255
255 161 255
255 164 255
255 184 255
255 181 255
255 192 214
182 159 166
170 152 161
175 147 180
235 160 255
255 162 255
255 164 255
255 163 255
248 162 232
208 161 193
186 153 178
182 151 176
182 151 175
182 155 169
174 154 162
170 155 162
196 213 218
255 255 255
255 255 255
255 255 255
255 255 255
255 255 255
255 255 255
255 255 255
255 255 255
255 255 255
255 255 255
255 255 255
255 255 255
255 255 255
230 202 208
204 172 179
174 155 162
170 153 160
170 153 160
170 152 160
170 150 162
172 148 169
180 150 175
182 151 176
182 151 176
182 151 176
182 151 176
182 151 176
182 151 176
182 151 176
182 151 176
182 151 176
182 151 176
182 152 175
180 157 166
170 153 160
170 153 160
170 152 161
170 146 169
180 150 175
182 152 176
182 153 174
180 154 168
174 154 162
170 153 160
170 153 160
170 153 160
170 155 162
180 180 186
213 217 222
255 255 255
255 255 255
255 255 255
255 255 255
255 255 255
255 255 255
255 255 255
255 255 255
255 255 255
255 255 255
255 255 255
255 255 255
255 255 255
255 255 255
255 255 255
255 255 255
240 210 216
210 195 201
210 194 200
208 186 193
196 168 175
172 154 161
170 153 160
170 153 160
170 153 160
170 153 160
170 153 160
170 153 160
170 153 160
170 153 160
170 153 160
170 153 160
170 153 160
170 153 160
170 153 160
170 153 160
170 153 160
170 153 160
170 153 160
170 153 160
170 153 160
170 154 161
170 160 167
186 182 188
206 193 199
210 195 201
210 195 201
217 218 224
255 255 255
255 255 255
255 255 255
255 255 255
255 255 255
255 255 255
255 255 255
255 255 255
255 255 255
255 255 255
255 255 255
255 255 255
255 255 255
255 255 255
255 255 255
255 255 255
255 255 255
255 255 255
255 255 255
255 255 255
255 255 255
255 255 255
255 255 255
230 205 211
210 195 201
210 195 201
210 195 201
210 195 201
210 195 201
210 195 201
210 195 201
210 195 201
210 195 201
210 195 201
210 195 201
210 192 198
204 172 179
174 155 162
170 155 162
181 182 188
206 193 199
210 195 201
210 195 201
210 201 207
251 255 255
255 255 255
255 255 255
255 255 255
255 255 255
255 255 255
255 255 255
255 255 255
255 255 255
255 255 255
255 255 255
255 255 255
255 255 255
255 255 255
255 255 255
255 255 255
255 255 255
255 255 255
255 255 255
255 255 255
255 255 255
255 255 255
255 255 255
255 255 255
255 255 255
255 255 255
255 255 255
255 255 255
255 255 255
255 255 255
255 255 255
255 255 255
255 255 255
255 255 255
255 255 255
255 255 255
255 255 255
255 255 255
255 255 255
255 255 255
255 255 255
255 255 255
255 255 255
204 170 177
178 180 186
255 255 255
255 255 255
255 255 255
255 255 255
255 255 255
255 255 255
255 255 255
255 255 255
255 255 255
255 255 255
255 255 255
255 255 255
255 255 255
255 255 255
255 255 255
255 255 255
255 255 255
255 255 255
255 255 255
255 255 255
255 255 255
255 255 255
255 255 255
255 255 255
255 255 255
255 255 255
255 255 255
255 255 255
255 255 255
255 255 255
255 255 255
255 255 255
255 255 255
255 255 255
255 255 255
255 255 255
255 255 255
255 255 255
255 255 255
255 255 255
255 255 255
255 255 255
255 255 255
255 255 255
255 255 255
255 255 255
255 255 255
255 255 255
210 173 180
181 186 192
255 255 255
255 255 255
255 255 255
255 255 255
255 255 255
255 255 255
255 255 255
255 255 255
255 255 255
255 255 255
255 255 255
255 255 255
255 255 255
255 255 255
255 255 255
255 255 255
255 255 255
255 255 255
255 255 255
255 255 255
255 255 255
255 255 255
255 255 255
255 255 255
255 255 255
255 255 255
255 255 255
255 255 255
255 255 255
255 255 255
255 255 255
255 255 255
255 255 255
255 255 255
255 255 255
255 255 255
255 255 255
240 210 216
210 198 204
236 255 255
255 255 255
255 255 255
255 255 255
255 255 255
255 255 255
255 255 255
255 255 255
255 255 255
210 173 180
181 186 192
255 255 255
255 255 255
255 255 255
255 255 255
255 255 255
255 255 255
255 255 255
255 255 255
255 220 226
212 196 202
217 218 224
255 255 255
255 255 255
255 255 255
255 255 255
255 255 255
255 255 255
255 255 255
255 255 255
255 255 255
255 255 255
255 255 255
255 255 255
255 255 255
255 255 255
255 255 255
255 255 255
255 255 255
255 255 255
255 255 255
255 255 255
255 255 255
255 255 255
255 255 255
242 211 217
210 191 198
204 172 179
174 155 162
170 153 160
170 158 165
184 181 188
215 218 224
255 255 255
255 255 255
255 255 255
255 255 255
255 255 255
255 255 255
210 173 180
181 186 192
255 255 255
255 255 255
255 255 255
255 255 255
255 255 255
255 255 255
244 209 216
204 174 181
178 157 164
170 153 160
170 155 162
180 180 186
204 192 198
217 220 224
255 255 255
255 255 255
255 255 255
255 255 255
255 255 255
255 255 255
255 255 255
255 255 255
255 255 255
255 255 255
255 255 255
255 255 255
255 255 255
255 255 255
255 255 255
255 255 255
255 255 255
255 255 255
255 255 255
234 187 194
174 155 162
170 155 161
174 170 176
194 187 191
206 190 183
182 162 166
170 153 160
170 155 162
180 180 186
217 224 230
255 255 255
255 255 255
255 255 255
255 255 255
244 212 218
220 224 230
255 255 255
255 255 255
255 255 255
255 255 255
255 255 255
255 255 255
198 167 174
170 155 160
170 164 160
172 166 161
172 160 162
172 154 161
170 153 160
170 155 162
196 213 218
255 255 255
255 255 255
255 255 255
255 255 255
255 255 255
255 255 255
255 255 255
255 255 255
255 255 255
255 255 255
255 255 255
255 255 255
255 255 255
255 255 255
255 255 255
255 255 255
255 255 255
234 187 194
174 158 164
181 182 188
211 210 216
255 255 255
255 255 255
255 255 255
255 252 223
188 183 171
176 159 163
170 153 160
181 186 192
255 255 255
255 255 255
255 255 255
255 255 255
255 255 255
255 255 255
255 255 255
255 255 255
255 255 255
255 255 255
255 255 255
255 237 226
186 174 168
178 184 167
234 255 226
248 255 232
218 242 203
190 182 172
176 174 166
176 158 163
170 155 162
196 213 218
255 255 255
255 255 255
255 255 255
255 255 255
255 255 255
255 255 255
255 255 255
255 255 255
255 255 255
255 255 255
255 255 255
255 255 255
255 255 255
255 255 255
255 255 255
236 188 195
174 158 164
198 216 222
255 255 255
255 255 255
255 255 255
255 255 255
255 255 255
255 255 255
255 255 255
228 226 193
183 184 170
199 222 210
255 255 255
255 255 255
255 255 255
255 255 255
255 255 255
255 255 255
255 255 255
255 255 255
255 255 255
255 255 255
255 255 255
255 255 240
255 255 237
255 255 239
255 255 248
255 255 250
255 255 246
255 255 255
255 255 255
224 217 193
182 162 166
170 155 162
198 216 222
255 255 255
255 255 255
255 255 255
255 255 255
255 255 255
255 255 255
255 255 255
255 255 255
255 255 255
255 255 255
255 255 255
255 255 255
255 255 255
255 226 232
184 162 167
189 208 201
255 255 255
255 255 255
255 255 255
255 255 255
255 255 255
255 255 255
255 255 255
255 255 255
255 255 255
255 255 255
255 255 255
255 255 255
255 255 255
255 255 255
255 255 255
232 221 225
255 255 255
255 255 255
255 255 255
255 255 255
255 255 255
255 255 251
255 255 251
255 255 251
255 255 251
255 255 251
255 255 255
255 255 255
255 255 255
255 255 255
255 255 255
230 218 196
186 163 168
175 173 180
255 255 255
255 255 255
255 255 255
255 255 255
255 255 255
255 255 255
255 255 255
255 255 255
255 255 255
255 255 255
255 255 255
255 255 255
255 255 255
220 179 185
171 172 164
255 255 255
255 255 255
255 255 255
255 255 255
255 255 255
255 255 255
255 255 255
255 255 255
255 255 255
255 255 255
255 255 255
255 255 255
236 224 215
212 195 201
208 186 193
196 168 175
172 156 163
175 172 178
196 187 193
208 203 201
255 255 251
255 255 242
255 255 249
255 255 251
255 255 252
255 255 255
255 255 255
255 255 255
255 255 255
255 255 255
255 255 255
255 255 255
255 255 255
234 203 195
178 159 166
195 210 216
255 255 255
255 255 255
255 255 255
255 255 255
255 255 255
255 255 255
255 255 255
255 255 255
255 255 255
255 255 255
255 255 255
255 255 255
210 173 180
175 180 168
255 255 255
255 255 255
255 255 255
255 255 255
255 255 255
255 255 255
255 255 255
255 255 255
255 255 255
255 255 242
199 200 179
182 177 169
178 159 164
170 153 160
170 154 161
172 165 170
186 171 171
176 157 163
170 153 160
170 154 160
170 163 160
177 182 167
238 255 229
255 255 249
255 255 255
255 255 255
255 255 255
255 255 255
255 255 255
255 255 255
255 255 255
255 255 255
255 255 255
236 208 196
178 157 164
181 186 192
255 255 255
255 255 255
255 255 255
255 255 255
255 255 255
255 255 255
255 255 255
255 255 255
255 255 255
255 255 255
255 255 255
255 255 255
210 173 180
176 182 169
255 255 255
255 255 255
255 255 255
255 255 255
255 255 255
255 255 255
255 255 255
255 255 255
252 255 230
192 184 172
176 157 163
170 153 160
170 157 163
182 182 188
208 205 210
255 255 255
255 255 255
252 227 208
186 181 171
178 161 164
170 153 160
170 154 160
173 176 164
237 255 228
255 255 255
255 255 255
255 255 255
255 255 255
255 255 255
255 255 255
255 255 255
255 255 255
255 255 255
236 209 196
178 157 164
181 186 192
255 255 255
255 255 255
255 255 255
255 255 255
255 255 255
255 255 255
255 255 255
255 255 255
255 255 255
255 255 255
255 255 255
255 255 255
208 172 179
176 182 169
255 255 255
255 255 255
255 255 255
255 255 255
255 255 255
255 255 255
255 255 252
255 255 239
194 189 172
174 157 162
170 155 162
178 177 182
218 232 236
255 255 255
255 255 255
255 255 255
255 255 255
255 255 255
255 255 255
231 234 195
182 169 166
172 155 161
170 154 160
176 182 166
247 255 240
255 255 255
255 255 255
255 255 255
255 255 255
255 255 255
255 255 255
255 255 255
255 255 255
236 212 195
176 156 163
181 186 192
255 255 255
255 255 255
255 255 255
255 255 255
255 255 255
255 255 255
255 255 255
255 255 255
255 255 255
255 255 255
255 255 255
255 255 255
210 173 180
177 184 170
255 255 255
255 255 255
255 255 255
255 255 255
255 255 255
255 255 252
255 255 249
246 255 227
190 174 170
170 153 160
174 174 178
255 255 255
255 255 255
255 255 255
255 255 255
255 255 255
255 255 255
255 255 255
255 255 255
255 255 255
250 255 217
192 171 171
172 154 161
170 164 160
233 255 226
255 255 250
255 255 255
255 255 255
255 255 255
255 255 255
255 255 255
255 255 255
255 255 255
236 209 196
178 157 164
181 186 192
255 255 255
255 255 255
255 255 255
255 255 255
255 255 255
255 255 255
255 255 255
255 255 255
255 255 255
255 255 255
255 255 255
255 255 255
210 173 180
175 180 168
255 255 255
255 255 255
255 255 255
255 255 255
255 255 255
255 255 251
255 255 240
194 188 172
174 156 162
170 156 160
193 216 198
255 255 255
255 255 255
255 255 255
255 255 255
255 255 255
255 255 255
255 255 255
255 255 255
255 255 255
255 255 249
200 189 176
174 156 162
170 154 160
175 180 166
246 255 238
255 255 255
255 255 255
255 255 255
255 255 255
255 255 255
255 255 255
255 255 255
236 208 196
178 157 164
181 186 192
255 255 255
255 255 255
255 255 255
255 255 255
255 255 255
255 255 255
255 255 255
255 255 255
255 255 255
255 255 255
255 255 255
255 255 255
214 175 182
171 172 164
255 255 255
255 255 255
255 255 255
255 255 255
255 255 255
255 255 251
255 255 237
194 177 172
172 154 161
173 176 166
255 255 255
255 255 255
255 255 255
255 255 255
255 255 255
255 255 255
255 255 255
255 255 255
255 255 255
255 255 255
255 255 255
248 255 226
190 174 170
172 154 161
170 165 160
242 255 237
255 255 255
255 255 255
255 255 255
255 255 255
255 255 255
255 255 255
255 255 255
234 202 195
178 159 166
196 212 218
255 255 255
255 255 255
255 255 255
255 255 255
255 255 255
255 255 255
255 255 255
255 255 255
255 255 255
255 255 255
255 255 255
255 255 255
255 213 220
180 160 165
189 208 185
255 255 255
255 255 255
255 255 255
255 255 251
255 255 251
255 255 237
194 177 172
172 154 161
176 182 172
255 255 255
255 255 255
255 255 255
255 255 255
255 255 255
255 255 255
255 255 255
255 255 255
255 255 255
255 255 255
255 255 255
255 255 237
194 177 172
172 154 161
170 166 160
244 255 238
255 255 251
255 255 255
255 255 255
255 255 255
255 255 255
255 255 255
230 218 196
186 163 168
175 173 180
255 255 255
255 255 255
255 255 255
255 255 255
255 255 255
255 255 255
255 255 255
255 255 255
255 255 255
255 255 255
255 255 255
255 255 255
255 255 255
255 255 255
236 188 195
174 158 162
190 210 186
255 255 255
255 255 250
255 255 243
255 255 250
255 255 237
194 177 172
172 154 161
179 185 188
255 255 255
255 255 255
255 255 255
255 255 255
255 255 255
255 255 255
255 255 255
255 255 255
255 255 255
255 255 255
255 255 252
255 255 237
194 177 172
172 154 161
170 165 160
243 255 237
255 255 251
255 255 255
255 255 255
255 255 255
255 255 255
228 219 195
184 163 167
170 155 162
198 217 222
255 255 255
255 255 255
255 255 255
255 255 255
255 255 255
255 255 255
255 255 255
255 255 255
255 255 255
255 255 255
255 255 255
255 255 255
255 255 255
255 255 255
255 255 255
234 187 194
174 157 162
171 172 164
176 175 164
206 238 197
246 255 234
251 255 235
192 176 171
172 154 161
178 185 186
255 255 255
255 255 255
255 255 255
255 255 255
255 255 255
255 255 255
255 255 255
255 255 255
255 255 255
255 255 255
255 255 251
255 255 238
194 178 172
172 154 161
170 165 160
241 255 235
255 255 239
254 255 238
247 255 234
198 198 178
182 179 169
178 159 164
170 155 162
196 213 218
255 255 255
255 255 255
255 255 255
255 255 255
255 255 255
255 255 255
255 255 255
255 255 255
255 255 255
255 255 255
255 255 255
255 255 255
255 255 255
255 255 255
255 255 255
255 255 255
255 255 255
234 187 194
174 155 162
170 153 160
170 159 160
177 184 171
243 255 247
218 190 187
178 157 164
173 176 168
255 255 255
255 255 255
255 255 255
255 255 255
255 255 255
255 255 255
255 255 255
255 255 255
255 255 255
255 255 252
255 255 248
246 255 227
190 174 170
172 154 161
170 166 163
242 255 247
218 202 188
180 170 166
174 164 163
172 155 161
170 153 160
170 155 162
196 213 218
255 255 255
255 255 255
255 255 255
255 255 255
255 255 255
255 255 255
255 255 255
255 255 255
255 255 255
255 255 255
255 255 255
255 255 255
255 255 255
255 255 255
255 255 255
255 255 255
255 255 255
255 255 255
255 255 255
238 206 212
204 172 179
174 155 162
178 182 186
255 255 255
255 255 255
234 187 194
174 159 162
204 238 197
255 255 255
255 255 255
255 255 255
255 255 255
255 255 255
255 255 255
255 255 255
255 255 252
255 255 251
255 255 239
194 190 172
172 156 161
170 155 162
196 214 218
255 255 255
255 255 255
204 170 177
170 155 162
180 180 186
204 192 198
217 219 224
255 255 255
255 255 255
255 255 255
255 255 255
255 255 255
255 255 255
255 255 255
255 255 255
255 255 255
255 255 255
255 255 255
255 255 255
255 255 255
255 255 255
255 255 255
255 255 255
255 255 255
255 255 255
255 255 255
255 255 255
255 255 255
255 255 255
234 188 195
185 190 196
255 255 255
255 255 255
255 255 255
204 170 177
175 180 167
255 255 255
255 255 255
255 255 255
255 255 255
255 255 255
255 255 255
255 255 251
255 255 251
255 255 249
246 255 227
192 175 171
172 154 161
178 180 186
255 255 255
255 255 255
255 255 255
212 177 184
196 212 218
255 255 255
255 255 255
255 255 255
255 255 255
255 255 255
255 255 255
255 255 255
255 255 255
255 255 255
255 255 255
255 255 255
255 255 255
255 255 255
255 255 255
255 255 255
255 255 255
255 255 255
255 255 255
255 255 255
255 255 255
255 255 255
255 255 255
255 255 255
255 255 255
255 255 255
255 255 255
251 254 255
255 255 255
255 255 255
255 255 255
240 190 197
174 157 162
182 194 176
245 255 238
255 255 250
255 255 248
255 255 250
255 255 250
255 255 247
255 255 238
242 255 225
194 185 173
176 157 163
170 155 162
199 218 224
255 255 255
255 255 255
255 255 255
255 236 241
255 255 255
255 255 255
255 255 255
255 255 255
255 255 255
255 255 255
255 255 255
255 255 255
255 255 255
