P3
#cherryNewHope
50 50
255

0 0 0
0 0 0
0 0 0
0 0 0
0 0 0
0 0 0
0 0 0
0 0 0
0 0 0
0 0 0
0 0 0
0 0 0
0 0 0
0 0 0
0 0 0
0 0 0
0 0 0
0 0 0
0 0 0
0 0 0
0 0 0
0 0 0
0 0 0
0 0 0
0 0 0
0 0 0
0 0 0
0 0 0
0 0 0
0 0 0
0 0 0
0 0 0
0 0 0
0 0 0
0 0 0
0 0 0
0 0 0
0 0 0
0 0 0
0 0 0
0 0 0
0 0 0
0 0 0
0 0 0
0 0 0
0 0 0
0 0 0
0 0 0
0 0 0
0 0 0
0 0 0
255 246 246
246 246 246
246 246 246
246 246 246
246 246 246
246 246 246
246 246 246
246 246 246
246 246 246
246 246 246
246 246 246
246 246 246
246 246 246
246 246 246
246 246 246
246 246 246
246 246 246
246 246 246
246 246 246
246 246 246
246 246 246
246 246 246
246 246 246
246 246 246
246 246 246
246 246 246
246 246 246
246 246 246
246 246 246
246 246 246
246 246 246
246 246 246
246 246 246
246 246 246
246 246 246
246 246 246
246 246 246
246 246 246
246 246 246
246 246 246
246 246 246
246 246 246
246 246 246
246 246 246
246 246 246
246 246 246
246 246 246
246 246 246
246 246 246
0 0 0
246 246 246
246 246 246
246 246 246
246 246 246
246 246 246
246 246 246
246 246 246
246 246 246
246 246 246
246 246 246
246 244 244
244 234 234
235 225 225
227 224 224
226 227 228
229 243 243
243 246 246
246 246 246
246 246 246
246 246 246
246 246 246
246 246 246
246 246 246
246 246 246
246 246 246
246 246 246
246 246 246
246 246 246
246 246 246
246 246 246
246 246 246
246 246 246
246 246 246
246 246 246
246 246 246
246 246 246
246 246 246
246 246 246
246 246 246
246 246 246
246 246 246
246 246 246
246 246 246
246 246 246
246 246 246
246 246 246
246 246 246
246 246 246
246 246 246
0 0 0
246 246 246
246 246 246
246 246 246
246 246 246
246 246 246
246 246 246
246 246 246
246 243 243
243 226 227
228 223 224
226 214 216
218 153 156
162 99 104
112 91 97
105 112 116
124 206 208
210 223 224
225 226 227
228 242 242
243 246 246
246 246 246
246 246 246
246 246 246
246 246 246
246 246 246
246 246 246
246 246 246
246 246 246
246 246 246
246 246 246
246 246 246
246 246 246
246 246 246
246 246 246
246 246 246
246 246 246
246 246 246
246 246 246
246 246 246
246 246 246
246 246 246
246 246 246
246 246 246
246 246 246
246 246 246
246 246 246
246 246 246
246 246 246
246 246 246
0 0 0
246 246 246
246 246 246
246 246 246
246 246 246
246 246 246
246 243 243
243 226 227
228 207 208
211 106 112
120 90 96
105 88 95
103 78 85
94 69 76
86 68 75
85 71 78
88 87 93
102 90 96
105 106 111
119 203 204
207 226 226
227 243 243
243 246 246
246 246 246
246 246 246
246 246 246
246 246 246
246 246 246
246 246 246
246 246 246
246 246 246
246 246 246
246 246 246
246 246 246
246 246 246
246 246 246
246 246 246
246 246 246
246 246 246
246 246 246
246 246 246
246 246 246
246 246 246
246 246 246
246 246 246
246 246 246
246 246 246
246 246 246
246 246 246
246 246 246
0 0 0
246 246 246
246 246 246
246 246 246
246 246 246
246 243 243
243 210 211
213 106 112
120 87 93
102 70 77
87 68 75
85 68 75
85 71 78
88 87 94
103 89 95
104 80 86
95 69 76
86 68 75
85 70 77
87 86 93
102 106 112
119 210 211
213 243 243
243 246 246
246 246 246
246 246 246
246 246 246
246 246 246
246 246 246
246 246 246
246 246 246
246 246 246
246 246 246
246 246 246
246 246 246
246 246 246
246 246 246
246 246 246
246 246 246
246 246 246
246 246 246
246 246 246
246 246 246
246 246 246
246 246 246
246 246 246
246 246 246
246 246 246
246 246 246
246 246 246
0 0 0
246 246 246
246 246 246
246 246 246
246 243 243
243 210 211
213 104 109
117 70 77
87 68 75
85 71 77
87 88 94
103 93 98
106 114 118
124 210 213
215 219 221
223 163 166
171 101 105
114 91 97
106 88 94
103 70 77
87 70 77
87 104 109
117 210 211
213 243 243
243 246 246
246 246 246
246 246 246
246 246 246
246 246 246
246 246 246
246 246 246
246 246 246
246 246 246
246 246 246
246 246 246
246 246 246
246 246 246
246 246 246
246 246 246
246 246 246
246 246 246
246 246 246
246 246 246
246 246 246
246 246 246
246 246 246
246 246 246
246 246 246
246 246 246
246 246 246
0 0 0
246 246 246
246 246 246
246 243 243
243 210 211
213 104 109
117 70 77
87 71 77
87 88 94
103 109 113
121 212 214
216 230 230
232 233 234
235 249 250
250 249 251
250 234 240
238 221 230
226 223 229
227 209 212
214 105 110
118 71 77
87 70 77
87 104 109
117 210 211
213 243 243
243 246 246
246 246 246
246 246 246
246 246 246
246 246 246
246 246 246
246 246 246
246 246 246
246 246 246
246 246 246
246 246 246
246 246 246
246 246 246
246 246 246
246 246 246
246 246 246
246 246 246
246 246 246
246 246 246
246 246 246
246 246 246
246 246 246
246 246 246
246 246 246
246 246 246
0 0 0
246 246 246
246 243 243
243 210 211
213 104 109
117 70 77
87 71 77
87 105 111
118 212 214
216 232 233
234 247 250
249 240 250
245 239 250
244 238 250
243 230 248
238 195 240
215 180 237
205 201 243
219 229 246
237 201 213
209 93 108
111 69 77
86 70 77
87 104 109
117 210 211
213 243 243
243 246 246
246 246 246
246 246 246
246 246 246
246 246 246
246 246 246
246 246 246
246 246 246
246 246 246
246 246 246
246 246 246
246 246 246
246 246 246
246 246 246
246 246 246
246 246 246
246 246 246
246 246 246
246 246 246
246 246 246
246 246 246
246 246 246
246 246 246
246 246 246
0 0 0
246 246 246
246 227 227
228 109 114
122 71 78
88 70 77
87 105 111
118 215 217
218 247 250
249 240 250
245 224 248
236 165 233
196 156 231
190 155 231
190 154 230
189 148 229
185 146 229
183 149 230
185 154 231
189 153 228
187 128 197
162 83 106
104 69 77
86 71 76
87 106 112
120 225 226
227 245 245
245 246 246
246 246 246
246 246 246
246 246 246
246 246 246
246 246 246
246 246 246
246 246 246
246 246 246
246 246 246
246 246 246
246 246 246
246 246 246
246 246 246
246 246 246
246 246 246
246 246 246
246 246 246
246 246 246
246 246 246
246 246 246
246 246 246
246 246 246
0 0 0
246 243 243
243 207 208
211 88 94
103 68 75
85 88 94
103 208 212
214 230 243
239 225 247
236 165 233
196 153 231
188 143 228
182 142 228
181 142 228
181 142 228
181 142 228
181 142 228
181 142 228
181 142 228
181 142 228
181 140 225
179 126 195
160 80 99
100 68 76
85 85 92
101 198 201
204 241 242
242 246 246
246 246 246
246 246 246
246 246 246
246 246 246
246 246 246
246 246 246
246 246 246
246 246 246
246 246 246
246 246 246
246 246 246
246 246 246
246 246 246
246 246 246
246 246 246
246 246 246
246 246 246
246 246 246
246 246 246
246 246 246
246 246 246
246 246 246
0 0 0
246 227 227
228 109 114
121 71 78
87 71 77
87 105 112
119 189 216
212 105 196
173 131 218
181 141 227
181 142 228
181 142 228
181 142 228
181 142 228
181 142 228
181 142 228
181 142 228
181 142 228
181 142 228
181 142 228
181 142 228
181 138 219
175 109 156
136 73 85
91 70 77
87 102 108
116 209 211
213 243 243
243 246 246
246 246 246
246 246 246
246 246 246
246 246 246
246 246 246
246 246 246
246 246 246
246 242 243
243 226 227
228 223 224
226 223 224
226 223 224
226 223 224
226 224 225
226 229 229
230 243 243
243 246 246
246 246 246
246 246 246
246 246 246
246 246 246
0 0 0
246 223 224
226 90 96
105 68 75
85 88 94
103 187 203
203 70 176
160 19 163
140 34 173
146 112 213
171 129 221
176 140 227
180 142 228
181 142 228
181 142 228
181 142 228
181 142 228
181 142 228
181 142 228
181 142 228
181 142 228
181 141 227
180 131 204
166 83 107
105 69 77
86 70 77
87 107 112
119 226 227
228 246 246
246 246 246
246 246 246
246 246 246
246 246 246
246 246 246
246 243 243
243 226 227
228 205 207
210 106 112
120 90 96
105 90 96
105 90 96
105 90 96
105 93 99
107 123 128
133 212 213
215 243 243
243 246 246
246 246 246
246 246 246
246 246 246
0 0 0
246 223 224
226 90 96
105 68 75
85 87 95
104 176 210
206 35 169
150 6 159
138 8 160
138 22 167
143 49 179
149 116 214
172 139 227
180 142 228
181 142 228
181 142 228
181 142 228
181 142 228
181 142 228
181 142 228
181 142 228
181 142 228
181 140 225
178 125 194
160 76 91
95 68 75
85 87 93
102 207 208
211 243 243
243 246 246
246 246 246
246 246 246
246 246 246
246 243 243
243 210 211
213 106 112
120 87 93
102 70 77
87 68 75
85 68 75
85 68 75
85 68 75
85 68 75
85 73 80
89 104 109
117 210 211
213 243 243
243 246 246
246 246 246
246 246 246
0 0 0
246 223 224
226 90 96
105 68 75
85 64 87
93 36 157
142 9 160
139 6 159
138 6 159
138 6 159
138 10 161
139 33 173
146 112 213
171 128 220
176 140 227
180 142 228
181 142 228
181 142 228
181 142 228
181 142 228
181 142 228
181 142 228
181 142 228
181 133 211
170 84 108
105 69 77
86 70 77
87 107 112
120 226 227
228 246 246
246 246 246
246 246 246
246 243 243
243 210 211
213 104 109
117 70 77
87 67 75
85 66 77
86 60 84
90 60 85
91 60 85
91 60 85
91 62 83
90 67 76
85 70 77
87 104 108
117 210 211
213 243 243
243 246 246
246 246 246
0 0 0
246 223 224
226 90 96
105 68 75
85 60 85
91 13 148
131 6 159
138 6 159
138 6 159
138 6 159
138 6 159
138 8 160
138 21 166
142 41 174
146 115 214
172 139 227
180 142 228
181 142 228
181 142 228
181 142 228
181 142 228
181 142 228
181 142 228
181 140 225
179 125 193
160 76 91
95 68 75
85 88 93
102 207 208
211 243 243
243 246 246
246 246 246
246 226 227
228 108 113
120 70 77
87 67 75
85 63 80
88 48 97
98 17 141
126 13 148
131 13 148
131 14 147
130 28 136
123 56 91
95 67 76
85 70 77
87 104 110
117 210 212
214 243 243
243 246 246
0 0 0
246 223 224
226 90 96
105 68 75
85 61 85
91 14 148
131 6 159
138 6 159
138 6 159
138 6 159
138 6 159
138 6 159
138 6 159
138 9 160
138 33 173
146 112 213
171 127 220
176 140 227
180 142 228
181 142 228
181 142 228
181 142 228
181 142 228
181 142 228
181 133 211
170 83 109
105 69 77
86 70 77
87 106 112
120 226 227
228 246 246
246 243 243
243 207 208
210 87 93
102 68 75
85 64 79
87 39 111
106 14 146
129 6 157
137 6 159
138 6 159
138 6 158
137 8 156
136 19 141
127 56 91
94 67 76
85 71 78
88 112 116
124 227 228
229 246 246
0 0 0
246 223 224
226 90 96
105 68 75
85 60 85
91 13 148
131 6 159
138 6 159
138 6 159
138 6 159
138 6 159
138 6 159
138 6 159
138 6 159
138 8 160
138 21 166
141 39 174
146 115 214
172 139 227
180 142 228
181 142 228
181 142 228
181 142 228
181 142 228
181 140 225
179 125 194
160 76 92
95 68 75
85 87 93
102 207 208
210 243 243
243 226 227
228 106 112
120 70 77
87 67 76
85 55 92
96 16 145
129 6 158
137 6 159
138 6 159
138 6 159
138 6 159
138 6 159
138 8 157
137 25 137
125 62 83
90 68 75
85 91 97
105 223 224
226 246 246
0 0 0
246 223 224
226 90 96
105 68 75
85 60 85
91 15 147
131 6 158
138 6 159
138 6 159
138 6 159
138 6 159
138 6 159
138 6 159
138 6 159
138 6 159
138 6 159
138 8 160
138 33 173
146 112 213
171 126 220
176 139 227
180 142 228
181 142 228
181 142 228
181 142 228
181 133 211
170 83 109
105 69 77
86 70 77
87 107 112
119 224 224
226 207 208
210 87 93
102 68 75
85 60 84
90 19 140
126 7 157
137 6 159
138 6 159
138 6 159
138 6 159
138 6 159
138 6 159
138 6 159
138 14 148
131 60 85
91 68 75
85 90 96
105 223 224
226 246 246
0 0 0
246 225 226
228 102 108
116 70 77
87 63 83
90 31 133
123 9 156
136 6 159
138 6 159
138 6 159
138 6 159
138 6 159
138 6 159
138 6 159
138 6 159
138 6 159
138 6 159
138 8 160
138 20 166
142 36 174
146 114 214
172 140 227
180 142 228
181 142 228
181 142 228
181 140 225
179 125 194
160 76 91
95 68 75
85 87 93
102 187 189
193 104 109
117 70 77
87 66 76
85 51 94
96 12 150
132 6 159
138 6 159
138 6 159
138 6 159
138 6 159
138 6 159
138 6 159
138 6 159
138 13 148
131 60 85
91 68 75
85 90 96
105 223 224
226 246 246
0 0 0
246 239 239
240 183 186
190 83 90
99 67 76
85 57 90
95 17 142
127 6 157
137 6 159
138 6 159
138 6 159
138 6 159
138 6 159
138 6 159
138 6 159
138 6 159
138 6 159
138 6 159
138 6 159
138 8 160
138 33 173
146 111 213
172 127 220
176 139 227
180 142 228
181 142 228
181 133 211
170 84 108
105 69 77
86 70 77
87 84 91
99 70 77
87 68 75
85 61 84
90 19 141
126 7 157
137 6 159
138 6 159
138 6 159
138 6 159
138 6 159
138 6 159
138 6 159
138 6 159
138 13 148
131 60 85
91 68 75
85 90 96
105 223 224
226 246 246
0 0 0
246 245 245
245 221 223
224 101 107
115 70 77
86 65 77
86 44 99
99 13 149
131 6 158
137 6 159
138 6 159
138 6 159
138 6 159
138 6 159
138 6 159
138 6 159
138 6 159
138 6 159
138 6 159
138 6 159
138 8 160
138 20 166
142 35 174
146 114 214
172 139 227
180 142 228
181 140 225
179 126 194
160 76 91
95 68 75
85 68 75
85 68 75
85 67 76
85 54 93
96 12 149
132 6 159
138 6 159
138 6 159
138 6 159
138 6 159
138 6 159
138 6 159
138 6 159
138 6 159
138 14 148
131 60 85
91 68 75
85 90 96
105 223 224
226 246 246
0 0 0
246 246 246
246 238 238
239 177 181
185 82 89
98 67 75
85 61 83
90 34 129
119 14 148
131 7 157
137 6 159
138 6 159
138 6 159
138 6 159
138 6 159
138 6 159
138 6 159
138 6 159
138 6 159
138 6 159
138 6 159
138 6 159
138 8 160
138 33 173
146 111 213
172 127 220
176 139 227
180 134 211
170 84 108
106 69 77
86 68 75
85 68 75
85 62 84
90 19 140
126 7 157
137 6 159
138 6 159
138 6 159
138 6 159
138 6 159
138 6 159
138 6 159
138 6 159
138 8 157
136 25 137
124 62 83
90 69 76
86 97 103
111 224 225
227 246 246
0 0 0
246 246 246
246 245 245
245 221 222
224 106 111
119 70 77
87 67 76
85 63 82
90 52 95
97 19 141
126 12 150
132 7 157
137 6 159
138 6 159
138 6 159
138 6 159
138 6 159
138 6 159
138 6 159
138 6 159
138 6 159
138 6 159
138 6 159
138 8 160
138 20 166
142 35 174
146 114 214
172 138 224
179 125 193
160 76 91
95 68 75
85 67 76
85 56 92
95 13 149
132 6 159
138 6 159
138 6 159
138 6 159
138 6 159
138 6 159
138 6 159
138 6 158
137 9 152
133 19 141
126 56 91
95 67 76
85 78 84
94 151 154
159 234 234
235 246 246
0 0 0
246 246 246
246 246 246
246 243 243
243 210 211
213 104 109
117 70 77
87 68 75
85 66 76
85 60 84
91 51 96
97 19 141
126 13 148
131 13 148
131 13 149
131 10 151
132 8 157
136 6 158
138 6 159
138 6 159
138 6 159
138 6 159
138 6 159
138 6 159
138 6 159
138 8 160
138 33 173
147 110 213
173 117 201
164 75 93
96 68 75
85 64 81
89 35 123
115 9 155
135 6 159
138 6 158
137 8 157
136 10 152
133 13 149
131 13 148
131 13 148
131 17 143
127 40 106
103 58 86
91 67 76
85 70 77
87 105 111
118 217 218
219 244 244
244 246 246
0 0 0
246 246 246
246 246 246
246 246 246
246 243 243
243 210 211
213 106 111
119 81 88
97 69 76
86 68 75
85 66 76
86 61 84
90 60 85
91 60 85
91 57 87
92 42 100
99 27 136
124 15 147
131 13 148
131 13 148
131 13 148
131 13 148
131 13 148
131 13 148
131 13 148
131 13 148
131 15 149
132 28 156
136 35 146
129 63 85
91 68 75
85 67 76
85 57 90
94 19 141
126 14 148
131 18 146
130 27 136
124 38 108
104 57 89
93 60 85
91 60 85
91 60 84
91 64 78
87 67 75
85 70 77
87 104 109
117 210 211
213 243 243
243 246 246
246 246 246
0 0 0
246 246 246
246 246 246
246 246 246
246 246 246
246 243 243
243 221 221
223 172 176
180 101 107
115 87 93
102 70 77
87 68 75
85 68 75
85 68 75
85 67 75
85 65 77
86 62 83
90 60 85
91 60 85
91 60 85
91 60 85
91 60 85
91 60 85
91 60 85
91 60 85
91 60 85
91 60 85
91 60 85
91 61 84
90 67 76
85 68 75
85 68 75
85 67 76
85 61 84
90 60 85
91 61 85
91 62 83
90 64 78
87 67 75
85 68 75
85 68 75
85 68 75
85 70 77
87 87 93
102 106 111
119 210 211
213 243 243
243 246 246
246 246 246
246 246 246
0 0 0
246 246 246
246 246 246
246 246 246
246 246 246
246 246 246
246 245 245
245 237 237
238 225 226
227 207 208
211 106 112
120 90 96
105 90 96
105 89 95
104 82 89
98 70 77
86 68 75
85 68 75
85 68 75
85 68 75
85 68 75
85 68 75
85 68 75
85 68 75
85 68 75
85 68 75
85 68 75
85 68 75
85 68 75
85 68 75
85 68 75
85 68 75
85 68 75
85 68 75
85 68 75
85 68 75
85 69 76
85 75 82
92 88 94
103 90 96
105 90 96
105 90 96
105 106 112
120 207 208
211 226 227
228 243 243
243 246 246
246 246 246
246 246 246
246 246 246
0 0 0
246 246 246
246 246 246
246 246 246
246 246 246
246 246 246
246 246 246
246 246 246
246 246 246
246 243 243
243 226 227
228 223 224
226 223 224
226 218 220
221 178 180
184 103 108
115 90 96
105 90 96
105 90 96
105 90 96
105 90 96
105 90 96
105 90 96
105 90 96
105 90 96
105 90 96
105 90 96
105 90 96
105 87 93
102 70 77
87 68 75
85 70 77
87 88 94
103 90 96
105 90 96
105 90 96
105 96 102
110 137 141
146 210 211
214 223 224
225 223 224
226 223 224
226 226 227
228 243 243
243 246 246
246 246 246
246 246 246
246 246 246
246 246 246
246 246 246
0 0 0
246 246 246
246 246 246
246 246 246
246 246 246
246 246 246
246 246 246
246 246 246
246 246 246
246 246 246
246 246 246
246 246 246
246 246 246
246 245 245
245 238 238
239 226 226
227 223 224
226 223 224
226 223 224
226 223 224
226 223 224
226 223 224
226 223 224
226 223 224
226 223 224
226 223 224
226 223 224
226 223 224
226 204 205
208 87 93
102 68 75
85 87 93
102 204 206
208 223 224
226 223 224
226 223 224
226 224 225
226 231 232
232 243 243
244 246 246
246 246 246
246 246 246
246 246 246
246 246 246
246 246 246
246 246 246
246 246 246
246 246 246
246 246 246
246 246 246
0 0 0
246 246 246
246 246 246
246 246 246
246 246 246
246 246 246
246 246 246
246 246 246
246 246 246
246 246 246
246 246 246
246 246 246
246 246 246
246 246 246
246 246 246
246 246 246
246 246 246
246 242 242
243 226 227
228 223 224
226 224 225
226 229 230
231 243 243
244 246 246
246 246 246
246 246 246
246 246 246
246 246 246
246 223 224
226 90 96
105 68 75
85 90 96
105 223 224
226 246 246
246 246 246
246 246 246
246 246 246
246 246 246
246 243 243
243 228 229
230 224 224
226 223 224
226 226 227
228 242 243
243 246 246
246 246 246
246 246 246
246 246 246
246 246 246
246 246 246
0 0 0
246 246 246
246 246 246
246 246 246
246 246 246
246 246 246
246 246 246
246 246 246
246 246 246
246 246 246
246 246 246
246 246 246
246 246 246
246 246 246
246 243 243
243 226 227
228 223 224
225 203 205
209 106 112
120 90 96
105 93 99
107 126 129
136 210 211
213 226 227
228 243 243
243 246 246
246 246 246
246 246 246
246 223 224
226 90 96
105 68 75
85 90 96
105 223 224
226 246 246
246 246 246
246 246 246
246 243 243
243 226 227
228 208 210
212 118 122
128 92 98
106 90 96
105 106 112
120 205 206
210 223 224
226 226 227
228 243 243
243 246 246
246 246 246
246 246 246
0 0 0
246 246 246
246 246 246
246 246 246
246 246 246
246 246 246
246 246 246
246 246 246
246 246 246
246 246 246
246 246 246
246 246 246
246 246 246
246 243 243
243 210 211
213 107 112
121 90 96
105 86 93
102 70 77
87 68 75
85 68 75
85 73 80
90 87 94
103 106 112
120 207 208
211 226 227
228 243 243
243 246 246
246 223 224
226 90 96
105 68 75
85 90 96
105 223 224
226 246 246
246 246 246
246 245 245
245 222 223
225 109 114
122 87 94
102 72 79
89 68 75
85 68 75
85 70 77
87 87 93
102 90 96
105 108 112
119 210 211
213 243 243
243 246 246
246 246 246
0 0 0
246 246 246
246 246 246
246 246 246
246 246 246
246 246 246
246 246 246
246 246 246
246 246 246
246 246 246
246 246 246
246 246 246
246 243 243
243 210 211
213 104 109
117 70 77
87 68 75
85 70 76
86 82 88
97 90 94
103 87 80
91 71 75
85 68 75
85 70 77
87 87 93
102 109 115
122 226 227
228 246 246
246 226 227
228 109 115
122 90 96
105 109 115
122 226 227
228 246 246
246 246 246
246 241 240
240 193 189
194 85 90
99 68 75
85 70 75
85 79 75
86 80 75
86 74 76
86 68 75
85 68 75
85 70 77
87 104 109
117 210 211
213 243 243
243 246 246
0 0 0
246 246 246
246 246 246
246 246 246
246 246 246
246 246 246
246 246 246
246 246 246
246 246 246
246 246 246
246 246 246
246 243 243
243 210 211
213 104 109
117 70 77
87 71 77
87 88 94
103 102 108
116 177 179
183 223 211
214 209 128
141 111 82
94 89 77
88 71 75
85 68 75
85 90 96
105 223 224
226 246 246
246 243 243
243 226 227
228 223 224
226 226 227
228 243 243
243 246 246
246 244 243
243 231 217
219 179 134
144 93 82
93 81 75
86 92 75
87 147 79
96 152 80
97 121 82
95 87 77
88 86 78
88 70 75
85 70 77
87 104 109
117 209 211
213 243 243
0 0 0
246 246 246
246 246 246
246 246 246
246 246 246
246 246 246
246 246 246
246 246 246
246 246 246
246 246 246
246 244 244
244 215 216
218 105 110
118 70 77
87 71 77
87 105 111
118 212 214
216 231 232
233 244 241
242 251 234
236 249 203
210 233 114
130 214 97
114 112 79
91 92 78
88 111 99
109 226 225
226 245 245
245 238 238
239 226 226
227 226 226
227 238 239
239 245 245
245 246 246
246 238 229
230 186 125
137 171 88
105 159 81
98 157 80
97 159 80
97 168 80
98 169 81
99 165 81
99 175 85
102 204 96
112 105 81
91 71 75
85 70 77
87 105 111
119 222 223
0 0 0
245 246 246
246 246 246
246 246 246
246 246 246
246 246 246
246 246 246
246 246 246
246 246 246
246 246 246
246 232 232
233 140 143
150 76 82
92 70 75
85 104 97
106 215 214
216 250 248
248 253 236
238 253 218
223 246 142
155 252 121
137 253 107
125 250 103
122 233 100
118 229 100
118 227 116
132 225 208
212 219 220
222 178 181
185 104 109
116 105 109
116 180 183
187 219 220
222 225 224
226 227 207
211 178 100
116 170 81
99 170 81
99 170 81
99 170 81
99 170 81
99 174 82
100 187 85
103 236 99
117 248 103
121 215 98
115 103 81
93 70 75
85 83 90
99 182 186
0 0 0
240 246 246
246 246 246
246 246 246
246 246 246
246 246 246
246 246 246
246 246 246
246 246 246
246 246 246
246 224 225
226 95 101
110 69 75
85 86 78
89 202 116
129 249 217
221 253 220
224 253 136
151 253 120
137 252 107
125 252 104
123 251 103
122 244 101
120 241 101
119 230 101
118 203 102
118 106 97
106 89 95
104 82 89
98 70 77
86 70 77
86 83 89
98 89 95
104 99 97
106 153 98
113 159 83
100 168 81
98 170 81
99 171 81
99 179 83
101 183 84
102 208 90
108 240 100
118 251 103
122 253 104
123 247 104
123 199 101
117 86 78
89 70 77
87 102 108
0 0 0
228 246 246
246 246 246
246 246 246
246 246 246
246 246 246
246 246 246
246 246 246
246 246 246
246 246 246
246 223 224
226 90 96
105 68 75
85 90 78
89 228 103
120 252 120
137 253 120
137 253 106
125 253 104
123 251 103
122 243 101
120 235 99
117 187 86
103 159 83
99 100 79
91 86 78
89 70 75
85 68 75
85 69 76
86 79 84
93 78 78
88 69 75
85 68 75
85 69 75
85 78 75
86 91 76
88 150 79
96 168 81
98 179 83
101 233 99
116 243 101
120 247 102
121 252 103
122 253 104
123 253 104
123 252 104
123 227 101
118 90 78
89 68 75
85 90 96
0 0 0
226 246 246
246 246 246
246 246 246
246 246 246
246 246 246
246 246 246
246 246 246
246 246 246
246 245 245
245 221 223
224 89 96
105 68 75
85 91 78
89 230 100
118 253 104
123 253 104
123 253 104
123 251 103
122 236 99
117 188 86
104 177 83
101 151 79
96 88 76
88 69 75
85 68 75
85 72 78
88 88 94
103 100 105
113 156 151
157 154 115
126 101 82
93 88 78
89 72 75
85 68 75
85 69 75
85 88 76
88 149 79
96 177 83
101 234 99
117 251 103
122 253 104
123 253 104
123 253 104
123 253 104
123 253 104
123 230 100
118 91 78
89 68 75
85 90 96
0 0 0
226 246 246
246 246 246
246 246 246
246 246 246
246 246 246
246 246 246
246 246 246
246 246 246
246 245 245
245 217 219
221 89 95
104 68 75
85 91 78
89 230 100
118 253 104
123 253 104
123 251 103
122 236 99
118 187 85
103 171 81
99 159 80
97 92 75
87 70 75
85 70 77
87 86 91
100 114 118
125 213 214
217 231 231
233 240 235
236 240 203
209 231 114
130 214 97
114 117 78
91 78 75
86 69 75
85 69 75
85 91 75
87 160 80
97 187 85
103 236 99
117 251 103
122 253 104
123 253 104
123 253 104
123 253 104
123 230 100
118 94 77
88 68 75
85 90 96
0 0 0
226 246 246
246 246 246
246 246 246
246 246 246
246 246 246
246 246 246
246 246 246
246 246 246
246 245 245
245 221 223
224 89 96
105 68 75
85 92 78
89 230 100
118 253 104
123 253 104
123 244 101
120 189 86
105 171 81
99 168 81
98 148 79
95 79 75
85 68 75
85 85 89
99 191 183
188 231 227
229 249 234
236 253 232
235 253 206
213 250 134
148 252 106
125 250 103
122 222 98
115 135 82
96 75 75
86 68 75
85 79 75
86 147 79
95 169 81
99 188 86
104 243 101
120 253 104
123 253 104
123 253 104
123 253 104
123 230 100
118 91 78
89 68 75
85 90 96
0 0 0
226 246 246
246 246 246
246 246 246
246 246 246
246 246 246
246 246 246
246 246 246
246 246 246
246 246 246
246 223 224
226 90 96
105 68 75
85 90 78
89 228 100
118 252 104
123 252 103
122 239 100
119 180 83
101 170 81
99 159 81
97 91 75
87 69 75
85 71 75
85 108 90
101 231 174
182 252 214
218 251 138
152 252 122
139 253 117
135 252 106
124 253 104
123 253 104
123 242 101
120 166 83
100 89 76
87 69 75
85 69 75
85 90 76
88 158 80
97 180 83
102 240 100
119 252 104
123 253 104
123 253 104
123 252 104
123 227 101
118 90 78
89 68 75
85 90 96
0 0 0
226 246 246
246 246 246
246 246 246
246 246 246
246 246 246
246 246 246
246 246 246
246 246 246
246 246 246
246 224 225
226 93 100
107 68 75
85 86 78
89 201 99
114 248 104
122 248 102
121 212 94
112 175 82
100 170 81
99 157 80
97 80 75
86 68 75
85 88 78
89 212 99
115 251 113
131 253 119
136 252 106
125 253 104
123 253 104
123 253 104
123 253 104
123 253 104
123 242 101
120 179 84
101 147 79
95 79 75
86 68 75
85 80 75
85 157 80
97 176 83
101 217 95
114 248 103
122 253 104
123 253 104
123 247 104
122 197 101
117 85 78
89 70 77
87 103 109
0 0 0
228 246 246
246 246 246
246 246 246
246 246 246
246 246 246
246 246 246
246 246 246
246 246 246
246 246 246
246 230 230
231 129 133
139 74 81
90 70 75
85 104 81
92 216 98
115 240 101
119 184 85
102 170 81
99 170 81
99 157 80
97 80 75
86 68 75
85 91 81
91 230 117
132 253 121
136 253 106
125 253 104
123 253 104
123 253 104
123 253 104
123 253 104
123 251 103
122 234 99
117 179 83
101 157 80
97 80 75
86 68 75
85 81 75
86 158 80
97 170 81
99 185 85
103 243 101
120 253 104
123 250 103
122 215 98
115 103 81
93 70 75
85 83 90
99 185 188
0 0 0
240 246 246
246 246 246
246 246 246
246 246 246
246 246 246
246 246 246
246 246 246
246 246 246
246 246 246
246 243 244
244 213 214
216 104 110
118 70 77
87 71 75
85 105 81
92 202 95
112 167 83
100 163 80
98 169 81
99 157 80
97 80 75
86 68 75
85 91 94
103 230 211
215 252 207
212 252 118
135 253 104
123 253 104
123 253 104
123 253 104
123 253 104
123 243 101
120 188 86
104 171 81
99 157 80
97 80 75
86 68 75
85 80 75
86 157 80
97 170 81
99 179 83
101 230 99
117 231 100
118 211 98
114 105 81
92 71 75
85 70 77
87 106 111
119 223 223
0 0 0
245 246 246
246 246 246
246 246 246
246 246 246
246 246 246
246 246 246
246 246 246
246 246 246
246 246 246
246 246 246
246 243 243
243 210 211
212 104 109
117 70 77
87 70 75
85 86 78
88 87 76
87 119 78
92 154 80
96 155 80
96 80 75
86 68 75
85 92 93
103 229 197
203 245 151
162 251 109
127 253 104
123 253 104
123 253 104
123 253 104
123 251 103
122 234 99
117 179 83
101 170 81
99 158 80
97 81 75
86 68 75
85 80 75
86 155 80
96 159 80
97 157 81
98 149 85
99 99 79
91 88 78
89 70 75
85 70 77
87 104 109
117 210 211
212 243 243
0 0 0
246 246 246
246 246 246
246 246 246
246 246 246
246 246 246
246 246 246
246 246 246
246 246 246
246 246 246
246 246 246
246 246 246
246 243 243
243 210 211
212 104 109
117 70 77
87 68 75
85 68 75
85 74 75
85 92 79
90 153 94
109 81 78
89 68 75
85 88 80
91 214 110
126 249 108
126 252 104
123 253 104
123 253 104
123 252 104
123 248 103
122 236 99
117 186 85
103 171 81
99 168 80
98 148 79
95 79 75
86 68 75
85 81 78
89 153 94
109 93 79
90 80 76
87 77 76
86 69 75
85 68 75
85 70 77
87 104 109
117 210 211
213 243 243
243 246 246
0 0 0
246 246 246
246 246 246
246 246 246
246 246 246
246 246 246
246 246 246
246 246 246
246 246 246
246 246 246
246 246 246
246 246 246
246 246 246
246 243 243
243 210 211
213 107 111
119 87 93
102 70 77
87 68 75
85 89 93
102 197 190
194 105 109
117 70 77
87 72 75
85 119 78
92 234 100
118 253 104
123 251 103
122 244 101
120 239 100
119 216 95
114 183 85
103 171 81
99 170 81
99 159 80
97 93 75
86 70 75
85 70 77
87 105 109
117 197 190
194 89 93
102 68 75
85 70 77
87 87 93
102 90 96
105 107 112
120 210 211
213 243 243
243 246 246
246 246 246
0 0 0
246 246 246
246 246 246
246 246 246
246 246 246
246 246 246
246 246 246
246 246 246
246 246 246
246 246 246
246 246 246
246 246 246
246 246 246
246 246 246
246 243 243
243 226 227
228 207 208
211 104 109
117 71 78
87 92 98
107 221 222
223 207 208
211 87 93
102 68 75
85 90 77
89 210 98
114 240 101
119 234 99
117 189 86
103 180 83
102 176 82
101 170 81
99 170 81
99 168 81
99 147 80
96 79 75
86 68 75
85 87 93
102 207 208
211 221 222
223 91 97
106 71 78
87 103 109
117 204 206
208 223 224
225 226 227
228 243 243
243 246 246
246 246 246
246 246 246
