P3
#cherryNewDarkenLuma
50 50
255

7 0 0
0 0 0
0 0 0
0 0 0
0 0 0
0 0 0
0 0 0
0 0 0
0 0 0
0 0 0
0 0 0
0 0 0
0 0 0
0 0 0
0 0 0
0 0 0
0 0 0
0 0 0
0 0 0
0 0 0
0 0 0
0 0 0
0 0 0
0 0 0
0 0 0
0 0 0
0 0 0
0 0 0
0 0 0
0 0 0
0 0 0
0 0 0
0 0 0
0 0 0
0 0 0
0 0 0
0 0 0
0 0 0
0 0 0
0 0 0
0 0 0
0 0 0
0 0 0
0 0 0
0 0 0
0 0 0
0 0 0
0 0 0
0 0 0
0 0 0
0 0 0
0 0 0
0 0 0
0 0 0
0 0 0
0 0 0
0 0 0
0 0 0
0 0 0
0 0 0
2 0 0
8 0 0
8 0 0
2 0 0
0 0 1
0 3 3
0 1 1
0 0 0
0 0 0
0 0 0
0 0 0
0 0 0
0 0 0
0 0 0
0 0 0
0 0 0
0 0 0
0 0 0
0 0 0
0 0 0
0 0 0
0 0 0
0 0 0
0 0 0
0 0 0
0 0 0
0 0 0
0 0 0
0 0 0
0 0 0
0 0 0
0 0 0
0 0 0
0 0 0
0 0 0
0 0 0
0 0 0
0 0 0
0 0 0
0 0 0
0 0 0
0 0 0
0 0 0
0 0 0
0 0 0
0 0 0
0 0 0
2 0 0
13 0 0
4 0 0
9 0 0
51 0 0
49 0 0
16 0 1
0 1 5
0 17 19
0 3 4
0 0 1
0 3 3
0 1 1
0 0 0
0 0 0
0 0 0
0 0 0
0 0 0
0 0 0
0 0 0
0 0 0
0 0 0
0 0 0
0 0 0
0 0 0
0 0 0
0 0 0
0 0 0
0 0 0
0 0 0
0 0 0
0 0 0
0 0 0
0 0 0
0 0 0
0 0 0
0 0 0
0 0 0
0 0 0
0 0 0
0 0 0
0 0 0
0 0 0
0 0 0
0 0 0
0 0 0
0 0 0
0 0 0
2 0 0
13 0 0
16 0 0
82 0 0
23 0 0
13 0 3
19 0 1
19 0 1
14 0 3
11 0 4
0 0 5
9 0 3
0 0 5
0 18 19
0 4 4
0 3 3
0 1 1
0 0 0
0 0 0
0 0 0
0 0 0
0 0 0
0 0 0
0 0 0
0 0 0
0 0 0
0 0 0
0 0 0
0 0 0
0 0 0
0 0 0
0 0 0
0 0 0
0 0 0
0 0 0
0 0 0
0 0 0
0 0 0
0 0 0
0 0 0
0 0 0
0 0 0
0 0 0
0 0 0
0 0 0
0 0 0
0 0 0
0 0 0
0 0 0
2 0 0
26 0 0
84 0 0
26 0 0
25 0 0
14 0 2
13 0 3
11 0 4
0 0 6
11 0 3
18 0 0
20 0 1
14 0 3
11 0 3
0 0 6
0 0 6
0 19 20
0 6 6
0 1 1
0 0 0
0 0 0
0 0 0
0 0 0
0 0 0
0 0 0
0 0 0
0 0 0
0 0 0
0 0 0
0 0 0
0 0 0
0 0 0
0 0 0
0 0 0
0 0 0
0 0 0
0 0 0
0 0 0
0 0 0
0 0 0
0 0 0
0 0 0
0 0 0
0 0 0
0 0 0
0 0 0
0 0 0
0 0 0
0 0 0
2 0 0
26 0 0
85 0 0
37 0 0
14 0 2
11 0 3
0 0 6
8 0 3
0 1 5
0 18 21
0 1 3
47 0 0
55 0 0
18 0 1
14 0 2
25 0 0
13 0 3
0 3 8
0 20 21
0 6 6
0 1 1
0 0 0
0 0 0
0 0 0
0 0 0
0 0 0
0 0 0
0 0 0
0 0 0
0 0 0
0 0 0
0 0 0
0 0 0
0 0 0
0 0 0
0 0 0
0 0 0
0 0 0
0 0 0
0 0 0
0 0 0
0 0 0
0 0 0
0 0 0
0 0 0
0 0 0
0 0 0
0 0 0
0 0 0
2 0 0
26 0 0
85 0 0
37 0 0
12 0 2
0 0 6
0 1 5
0 19 21
0 3 3
0 0 1
0 3 4
1 0 2
12 0 2
13 0 5
2 0 5
14 0 0
85 0 0
37 0 0
13 0 3
0 3 8
0 20 21
0 6 6
0 1 1
0 0 0
0 0 0
0 0 0
0 0 0
0 0 0
0 0 0
0 0 0
0 0 0
0 0 0
0 0 0
0 0 0
0 0 0
0 0 0
0 0 0
0 0 0
0 0 0
0 0 0
0 0 0
0 0 0
0 0 0
0 0 0
0 0 0
0 0 0
0 0 0
0 0 0
0 0 0
2 0 0
26 0 0
85 0 0
37 0 0
12 0 2
0 3 9
0 20 22
0 3 4
0 3 6
6 0 7
4 0 9
4 0 10
9 0 14
31 0 33
23 0 45
0 0 38
0 1 18
27 0 3
90 0 0
32 0 0
12 0 3
0 3 8
0 20 21
0 6 6
0 1 1
0 0 0
0 0 0
0 0 0
0 0 0
0 0 0
0 0 0
0 0 0
0 0 0
0 0 0
0 0 0
0 0 0
0 0 0
0 0 0
0 0 0
0 0 0
0 0 0
0 0 0
0 0 0
0 0 0
0 0 0
0 0 0
0 0 0
0 0 0
0 0 0
0 0 0
15 0 0
93 0 0
40 0 0
14 0 3
0 3 9
0 20 22
0 6 9
6 0 7
15 0 18
51 0 48
26 0 61
22 0 63
23 0 63
26 0 66
25 0 69
21 0 68
19 0 65
23 0 62
41 0 51
61 0 5
27 0 0
11 0 1
0 4 10
0 22 23
0 4 4
0 0 0
0 0 0
0 0 0
0 0 0
0 0 0
0 0 0
0 0 0
0 0 0
0 0 0
0 0 0
0 0 0
0 0 0
0 0 0
0 0 0
0 0 0
0 0 0
0 0 0
0 0 0
0 0 0
0 0 0
0 0 0
0 0 0
0 0 0
0 0 0
2 0 0
28 0 0
96 0 0
27 0 0
0 0 6
0 22 26
0 2 15
9 0 17
51 0 48
28 0 63
29 0 69
25 0 71
24 0 71
24 0 71
24 0 71
24 0 71
24 0 71
24 0 71
24 0 71
26 0 70
37 0 53
62 0 1
25 0 1
0 0 6
0 20 23
0 8 9
0 1 1
0 0 0
0 0 0
0 0 0
0 0 0
0 0 0
0 0 0
0 0 0
0 0 0
0 0 0
0 0 0
0 0 0
0 0 0
0 0 0
0 0 0
0 0 0
0 0 0
0 0 0
0 0 0
0 0 0
0 0 0
0 0 0
0 0 0
0 0 0
15 0 0
93 0 0
39 0 0
12 0 2
0 3 10
0 13 40
78 0 62
27 0 72
25 0 71
24 0 71
24 0 71
24 0 71
24 0 71
24 0 71
24 0 71
24 0 71
24 0 71
24 0 71
24 0 71
24 0 71
28 0 66
49 0 30
49 0 0
16 0 2
0 3 9
0 20 22
0 6 6
0 1 1
0 0 0
0 0 0
0 0 0
0 0 0
0 0 0
0 0 0
0 0 0
3 0 0
13 0 0
4 0 0
2 0 0
2 0 0
2 0 0
2 0 1
0 1 1
0 3 3
0 1 1
0 0 0
0 0 0
0 0 0
0 0 0
0 0 0
18 0 0
107 0 0
29 0 0
0 0 6
0 17 33
97 0 70
101 0 104
73 0 106
19 0 86
26 0 76
22 0 73
24 0 72
24 0 71
24 0 71
24 0 71
24 0 71
24 0 71
24 0 71
24 0 71
24 0 71
25 0 71
33 0 57
64 0 5
28 0 0
12 0 3
0 4 9
0 23 24
0 4 4
0 0 0
0 0 0
0 0 0
0 0 0
0 0 0
2 0 0
13 0 0
18 0 0
81 0 0
23 0 0
11 0 2
11 0 2
11 0 2
9 0 3
0 3 8
0 17 18
0 6 6
0 1 1
0 0 0
0 0 0
0 0 0
0 0 0
18 0 0
107 0 0
29 0 0
0 0 8
0 13 47
125 0 88
102 0 111
91 0 113
81 0 110
65 0 101
19 0 84
20 0 75
24 0 72
24 0 71
24 0 71
24 0 71
24 0 71
24 0 71
24 0 71
24 0 71
24 0 71
26 0 70
37 0 53
65 0 0
21 0 1
0 0 6
0 22 23
0 7 7
0 1 1
0 0 0
0 0 0
0 0 0
2 0 0
26 0 0
84 0 0
26 0 0
25 0 0
14 0 2
13 0 3
13 0 3
13 0 3
13 0 3
9 0 4
0 3 8
0 20 21
0 6 6
0 1 1
0 0 0
0 0 0
0 0 0
18 0 0
107 0 0
29 0 0
15 0 17
36 0 100
94 0 112
94 0 114
93 0 114
93 0 114
90 0 113
73 0 107
19 0 86
27 0 76
22 0 73
24 0 72
24 0 71
24 0 71
24 0 71
24 0 71
24 0 71
24 0 71
24 0 71
32 0 62
66 0 4
28 0 0
12 0 3
0 4 9
0 22 23
0 4 4
0 0 0
0 0 0
2 0 0
26 0 0
85 0 0
37 0 0
15 0 3
14 0 6
19 0 17
22 0 17
23 0 17
23 0 17
21 0 13
17 0 3
11 0 3
0 3 7
0 20 21
0 6 6
0 1 1
0 0 0
0 0 0
18 0 0
107 0 0
29 0 0
18 0 18
52 0 109
87 0 115
93 0 114
93 0 114
93 0 114
93 0 114
91 0 113
82 0 110
70 0 102
17 0 85
20 0 75
24 0 72
24 0 71
24 0 71
24 0 71
24 0 71
24 0 71
24 0 71
26 0 70
38 0 52
65 0 0
21 0 1
0 0 5
0 22 23
0 7 7
0 1 1
0 0 0
16 0 0
94 0 0
39 0 0
15 0 3
16 0 11
28 0 37
55 0 98
79 0 101
83 0 100
83 0 99
73 0 79
50 0 18
21 0 2
11 0 3
0 3 9
0 20 22
0 6 6
0 1 1
0 0 0
18 0 0
107 0 0
29 0 0
17 0 17
51 0 108
87 0 115
93 0 114
93 0 114
93 0 114
93 0 114
93 0 114
93 0 114
91 0 113
73 0 108
19 0 86
28 0 77
22 0 73
24 0 72
24 0 71
24 0 71
24 0 71
24 0 71
24 0 71
32 0 62
67 0 6
28 0 0
12 0 3
0 4 10
0 22 23
0 4 4
2 0 0
28 0 0
96 0 0
26 0 0
15 0 9
33 0 57
63 0 103
86 0 114
92 0 114
93 0 114
93 0 113
91 0 110
83 0 88
53 0 17
21 0 3
11 0 4
0 5 9
0 22 23
0 4 4
0 0 0
18 0 0
107 0 0
29 0 0
18 0 18
52 0 109
87 0 115
93 0 114
93 0 114
93 0 114
93 0 114
93 0 114
93 0 114
93 0 114
91 0 113
82 0 110
71 0 104
17 0 85
20 0 75
24 0 72
24 0 71
24 0 71
24 0 71
24 0 71
26 0 70
38 0 53
65 0 0
21 0 1
0 0 6
0 22 23
0 7 7
13 0 0
96 0 0
39 0 0
15 0 4
21 0 28
54 0 103
86 0 115
92 0 114
93 0 114
93 0 114
93 0 114
93 0 114
92 0 111
80 0 80
48 0 6
17 0 2
0 1 7
0 25 26
0 4 4
0 0 0
18 0 0
107 0 0
29 0 0
18 0 18
50 0 106
87 0 114
93 0 114
93 0 114
93 0 114
93 0 114
93 0 114
93 0 114
93 0 114
93 0 114
93 0 114
91 0 113
73 0 108
19 0 86
29 0 78
23 0 74
24 0 72
24 0 71
24 0 71
24 0 71
32 0 62
67 0 6
28 0 0
12 0 3
0 4 9
0 22 22
15 0 0
96 0 0
26 0 0
18 0 17
47 0 97
83 0 114
92 0 114
93 0 114
93 0 114
93 0 114
93 0 114
93 0 114
93 0 114
88 0 98
54 0 8
18 0 2
0 1 7
0 25 26
0 4 4
0 0 0
16 0 0
99 0 0
36 0 0
17 0 13
39 0 82
79 0 112
91 0 114
93 0 114
93 0 114
93 0 114
93 0 114
93 0 114
93 0 114
93 0 114
93 0 114
93 0 114
91 0 113
82 0 110
74 0 106
18 0 86
19 0 74
24 0 72
24 0 71
24 0 71
26 0 70
38 0 53
65 0 0
21 0 1
0 0 6
0 18 20
70 0 0
37 0 0
16 0 5
24 0 33
56 0 110
88 0 115
93 0 114
93 0 114
93 0 114
93 0 114
93 0 114
93 0 114
93 0 114
89 0 99
54 0 8
18 0 2
0 1 7
0 25 26
0 4 4
0 0 0
6 0 0
45 0 0
84 0 0
25 0 2
20 0 25
52 0 99
84 0 114
92 0 114
93 0 114
93 0 114
93 0 114
93 0 114
93 0 114
93 0 114
93 0 114
93 0 114
93 0 114
93 0 114
91 0 113
73 0 108
20 0 87
29 0 77
23 0 74
24 0 72
24 0 71
32 0 62
66 0 4
28 0 0
12 0 3
2 0 6
22 0 0
14 0 2
17 0 16
47 0 98
83 0 114
92 0 114
93 0 114
93 0 114
93 0 114
93 0 114
93 0 114
93 0 114
93 0 114
89 0 99
54 0 8
18 0 2
0 1 7
0 25 26
0 4 4
0 0 0
1 0 0
19 0 0
96 0 0
35 0 0
16 0 7
29 0 42
58 0 108
87 0 114
92 0 114
93 0 114
93 0 114
93 0 114
93 0 114
93 0 114
93 0 114
93 0 114
93 0 114
93 0 114
93 0 114
91 0 113
82 0 110
74 0 106
18 0 86
20 0 75
24 0 72
26 0 70
37 0 52
65 0 0
21 0 1
13 0 3
13 0 3
14 0 5
22 0 30
56 0 109
88 0 115
93 0 114
93 0 114
93 0 114
93 0 114
93 0 114
93 0 114
93 0 114
93 0 114
88 0 98
54 0 8
18 0 2
0 1 7
0 25 26
0 4 4
0 0 0
0 0 0
6 0 0
49 0 0
81 0 0
24 0 1
17 0 15
37 0 76
73 0 102
87 0 113
92 0 114
93 0 114
93 0 114
93 0 114
93 0 114
93 0 114
93 0 114
93 0 114
93 0 114
93 0 114
93 0 114
93 0 114
91 0 113
73 0 108
20 0 87
29 0 77
23 0 74
31 0 62
66 0 4
29 0 0
14 0 3
13 0 3
17 0 16
47 0 97
83 0 114
92 0 114
93 0 114
93 0 114
93 0 114
93 0 114
93 0 114
93 0 114
93 0 114
92 0 111
79 0 80
47 0 6
16 0 2
0 2 8
0 24 25
0 4 4
0 0 0
0 0 0
1 0 0
19 0 0
93 0 0
38 0 0
15 0 4
16 0 13
27 0 32
53 0 97
80 0 104
88 0 113
92 0 114
93 0 114
93 0 114
93 0 114
93 0 114
93 0 114
93 0 114
93 0 114
93 0 114
93 0 114
93 0 114
91 0 113
82 0 110
74 0 106
18 0 86
21 0 73
38 0 52
65 0 0
21 0 1
14 0 5
20 0 27
55 0 109
88 0 115
93 0 114
93 0 114
93 0 114
93 0 114
93 0 114
93 0 114
93 0 113
90 0 105
81 0 89
53 0 18
21 0 2
5 0 4
0 12 15
0 16 16
0 2 2
0 0 0
0 0 0
0 0 0
2 0 0
26 0 0
85 0 0
37 0 0
14 0 2
14 0 5
18 0 17
28 0 33
53 0 97
79 0 101
83 0 100
83 0 101
85 0 105
87 0 112
91 0 113
93 0 114
93 0 114
93 0 114
93 0 114
93 0 114
93 0 114
93 0 114
91 0 113
73 0 108
22 0 88
38 0 66
69 0 0
22 0 1
15 0 11
36 0 70
73 0 113
91 0 115
93 0 113
91 0 111
89 0 105
85 0 101
83 0 100
83 0 100
81 0 93
64 0 43
33 0 16
18 0 3
11 0 3
0 3 9
0 21 22
0 5 5
0 0 0
0 0 0
0 0 0
0 0 0
0 0 0
2 0 0
26 0 0
84 0 0
29 0 0
22 0 1
14 0 3
14 0 5
18 0 16
22 0 17
23 0 17
25 0 21
35 0 43
49 0 86
76 0 99
83 0 100
83 0 100
83 0 100
83 0 100
83 0 100
83 0 100
83 0 100
83 0 100
82 0 100
73 0 97
72 0 82
50 0 6
18 0 2
14 0 5
20 0 25
50 0 97
79 0 101
80 0 95
73 0 79
63 0 47
35 0 20
24 0 16
23 0 17
23 0 16
20 0 7
15 0 3
11 0 3
0 3 8
0 20 21
0 6 6
0 1 1
0 0 0
0 0 0
0 0 0
0 0 0
0 0 0
0 0 0
2 0 0
17 0 0
40 0 0
62 0 0
22 0 0
25 0 0
14 0 2
13 0 3
13 0 3
14 0 4
15 0 7
17 0 14
22 0 17
23 0 17
23 0 17
23 0 17
23 0 17
23 0 17
23 0 17
23 0 17
23 0 17
23 0 17
23 0 17
22 0 15
17 0 3
13 0 3
13 0 3
14 0 5
17 0 16
22 0 17
22 0 16
21 0 13
19 0 7
15 0 3
13 0 3
13 0 3
13 0 3
11 0 3
0 0 6
0 0 5
0 19 20
0 6 6
0 1 1
0 0 0
0 0 0
0 0 0
0 0 0
0 0 0
0 0 0
0 0 0
0 0 0
1 0 0
6 0 0
10 0 0
16 0 0
82 0 0
23 0 0
11 0 2
12 0 2
17 0 2
22 0 1
14 0 3
13 0 3
13 0 3
13 0 3
13 0 3
13 0 3
13 0 3
13 0 3
13 0 3
13 0 3
13 0 3
13 0 3
13 0 3
13 0 3
13 0 3
13 0 3
13 0 3
13 0 3
13 0 3
13 0 3
12 0 3
7 0 4
3 0 5
10 0 3
11 0 2
11 0 2
0 0 6
0 18 19
0 3 4
0 3 3
0 1 1
0 0 0
0 0 0
0 0 0
0 0 0
0 0 0
0 0 0
0 0 0
0 0 0
0 0 0
0 0 0
0 0 0
0 0 0
2 0 0
13 0 0
4 0 0
2 0 0
6 0 0
34 0 0
63 0 0
19 0 0
11 0 2
11 0 2
11 0 2
11 0 2
11 0 2
11 0 2
11 0 2
11 0 2
11 0 2
11 0 2
11 0 2
14 0 2
25 0 0
14 0 2
11 0 3
0 0 6
10 0 3
11 0 2
11 0 2
7 0 4
0 5 9
0 14 15
0 2 3
2 0 1
2 0 0
0 0 1
0 3 3
0 1 1
0 0 0
0 0 0
0 0 0
0 0 0
0 0 0
0 0 0
0 0 0
0 0 0
0 0 0
0 0 0
0 0 0
0 0 0
0 0 0
0 0 0
0 0 0
0 0 0
0 0 0
0 0 0
1 0 0
6 0 0
10 0 0
3 0 0
2 0 0
2 0 0
2 0 0
2 0 0
2 0 0
2 0 0
2 0 0
2 0 0
2 0 0
2 0 0
2 0 0
17 0 0
95 0 0
26 0 0
0 0 6
0 22 24
0 3 4
2 0 0
2 0 0
2 0 1
0 1 2
0 2 2
0 0 0
0 0 0
0 0 0
0 0 0
0 0 0
0 0 0
0 0 0
0 0 0
0 0 0
0 0 0
0 0 0
0 0 0
0 0 0
0 0 0
0 0 0
0 0 0
0 0 0
0 0 0
0 0 0
0 0 0
0 0 0
0 0 0
0 0 0
0 0 0
0 0 0
0 0 0
0 0 0
0 0 0
3 0 0
13 0 0
4 0 0
2 0 1
0 1 2
0 3 3
0 0 0
0 0 0
0 0 0
0 0 0
0 0 0
18 0 0
107 0 0
29 0 0
0 1 7
0 25 26
0 4 4
0 0 0
0 0 0
0 0 0
0 0 0
2 0 0
12 0 0
5 0 0
2 0 0
0 0 1
0 3 4
0 1 1
0 0 0
0 0 0
0 0 0
0 0 0
0 0 0
0 0 0
0 0 0
0 0 0
0 0 0
0 0 0
0 0 0
0 0 0
0 0 0
0 0 0
0 0 0
0 0 0
0 0 0
0 0 0
0 0 0
2 0 0
13 0 0
4 0 0
17 0 0
81 0 0
23 0 0
9 0 3
0 4 7
0 16 17
0 3 4
0 3 3
0 1 1
0 0 0
0 0 0
18 0 0
107 0 0
29 0 0
0 1 7
0 25 26
0 4 4
0 0 0
0 0 0
2 0 0
13 0 0
16 0 0
74 0 0
28 0 0
12 0 2
0 0 6
0 18 19
0 3 4
0 0 1
0 3 3
0 1 1
0 0 0
0 0 0
0 0 0
0 0 0
0 0 0
0 0 0
0 0 0
0 0 0
0 0 0
0 0 0
0 0 0
0 0 0
0 0 0
0 0 0
0 0 0
2 0 0
26 0 0
83 0 0
24 0 0
14 0 2
25 0 0
14 0 2
13 0 3
9 0 4
2 0 6
0 0 6
0 18 19
0 3 4
0 3 3
0 1 1
18 0 0
107 0 0
29 0 0
0 1 7
0 25 26
0 4 4
0 0 0
1 0 0
18 0 0
91 0 0
27 0 0
23 0 0
16 0 2
13 0 3
11 0 3
0 0 6
9 0 3
0 0 4
0 19 20
0 6 6
0 1 1
0 0 0
0 0 0
0 0 0
0 0 0
0 0 0
0 0 0
0 0 0
0 0 0
0 0 0
0 0 0
0 0 0
0 0 0
0 0 0
2 0 0
26 0 0
85 0 0
37 0 0
14 0 2
11 0 2
3 0 5
5 0 2
13 0 0
15 0 0
13 0 3
11 0 3
0 0 6
0 1 7
0 22 23
0 4 4
16 0 0
93 0 0
25 0 0
0 0 6
0 22 23
0 4 4
0 0 0
4 0 0
37 0 0
85 0 0
24 0 0
11 0 1
5 0 0
5 0 0
9 0 0
14 0 3
13 0 3
11 0 3
0 3 8
0 20 21
0 6 6
0 1 1
0 0 0
0 0 0
0 0 0
0 0 0
0 0 0
0 0 0
0 0 0
0 0 0
0 0 0
0 0 0
0 0 0
2 0 0
26 0 0
85 0 0
37 0 0
12 0 2
0 0 6
0 0 5
0 13 15
0 9 0
10 5 0
26 0 0
5 0 0
13 0 0
13 0 3
0 1 7
0 25 26
0 4 4
2 0 0
13 0 0
4 0 0
0 0 1
0 3 3
0 1 1
2 0 0
10 0 0
35 0 0
41 0 0
10 0 0
0 3 0
0 18 0
0 17 0
0 8 0
7 0 0
2 0 0
14 0 1
11 0 3
0 3 8
0 19 21
0 6 6
0 1 1
0 0 0
0 0 0
0 0 0
0 0 0
0 0 0
0 0 0
0 0 0
0 0 0
0 0 0
2 0 0
23 0 0
89 0 0
37 0 0
12 0 2
0 3 9
0 20 22
0 3 4
0 3 0
0 3 0
0 6 0
0 13 0
0 26 0
4 2 0
0 1 0
0 6 0
0 25 24
0 4 4
6 0 0
10 0 0
1 0 0
0 2 3
0 1 1
0 0 0
7 0 0
39 0 0
0 13 0
0 17 0
0 18 0
0 19 0
0 21 0
0 21 0
0 20 0
0 23 0
0 29 0
7 0 0
15 0 0
11 0 3
0 3 9
0 22 23
0 4 4
0 0 0
0 0 0
0 0 0
0 0 0
0 0 0
0 0 0
0 0 0
0 0 0
0 0 0
11 0 0
73 0 0
58 0 0
17 0 0
0 5 0
0 23 22
0 7 5
0 2 0
0 6 0
0 12 0
0 30 0
0 35 0
0 37 0
0 33 0
0 33 0
0 31 0
0 21 4
0 1 2
34 0 0
63 0 0
8 0 1
0 13 16
0 7 8
0 1 0
1 2 0
32 0 0
0 18 0
0 22 0
0 22 0
0 22 0
0 22 0
0 23 0
0 26 0
0 38 0
0 38 0
0 28 0
11 0 0
18 0 0
1 0 6
0 17 21
0 10 10
0 1 1
0 0 0
0 0 0
0 0 0
0 0 0
0 0 0
0 0 0
0 0 0
0 0 0
17 0 0
103 0 0
32 0 0
0 1 0
0 30 0
0 28 0
0 9 0
0 15 0
0 31 0
0 35 0
0 38 0
0 38 0
0 36 0
0 36 0
0 33 0
0 25 0
10 0 0
13 0 2
17 0 2
22 0 1
12 0 3
2 0 5
7 0 4
4 0 0
0 14 0
0 15 0
0 21 0
0 22 0
0 22 0
0 24 0
0 25 0
0 31 0
0 38 0
0 39 0
0 39 0
0 37 0
0 23 0
25 0 0
14 0 2
0 3 9
0 23 24
0 4 4
0 0 0
0 0 0
0 0 0
0 0 0
0 0 0
0 0 0
0 0 0
0 0 0
18 0 0
107 0 0
29 0 0
0 2 0
0 39 0
0 38 0
0 34 0
0 35 0
0 38 0
0 38 0
0 36 0
0 34 0
0 22 0
0 17 0
1 2 0
5 0 0
15 0 1
13 0 3
12 0 3
5 0 3
12 0 0
15 0 2
13 0 3
12 0 2
6 0 0
0 2 0
0 18 0
0 22 0
0 24 0
0 38 0
0 37 0
0 37 0
0 39 0
0 39 0
0 38 0
0 38 0
0 31 0
23 0 0
16 0 2
0 1 7
0 25 26
0 4 4
0 0 0
0 0 0
0 0 0
0 0 0
0 0 0
0 0 0
0 0 0
1 0 0
19 0 0
106 0 0
29 0 0
0 2 0
0 39 0
0 39 0
0 38 0
0 38 0
0 38 0
0 34 0
0 22 0
0 22 0
0 16 0
7 0 0
15 0 2
13 0 3
10 0 3
0 0 6
2 0 4
0 10 5
5 2 0
21 0 0
5 0 0
13 0 0
13 0 3
12 0 2
0 2 0
0 18 0
0 24 0
0 38 0
0 39 0
0 39 0
0 38 0
0 38 0
0 38 0
0 38 0
0 32 0
22 0 0
16 0 2
0 1 7
0 25 26
0 4 4
0 0 0
0 0 0
0 0 0
0 0 0
0 0 0
0 0 0
0 0 0
1 0 0
22 0 0
104 0 0
28 0 0
0 2 0
0 39 0
0 39 0
0 38 0
0 38 0
0 34 0
0 22 0
0 21 0
0 18 0
5 0 0
13 0 1
11 0 3
0 0 4
0 3 7
0 19 20
0 3 3
0 2 0
0 4 0
0 13 0
0 26 0
0 3 0
10 0 0
13 0 2
12 0 2
0 2 0
0 21 0
0 26 0
0 38 0
0 39 0
0 39 0
0 38 0
0 38 0
0 38 0
0 32 0
20 0 0
15 0 2
0 1 7
0 25 26
0 4 4
0 0 0
0 0 0
0 0 0
0 0 0
0 0 0
0 0 0
0 0 0
1 0 0
19 0 0
106 0 0
29 0 0
0 2 0
0 39 0
0 39 0
0 38 0
0 36 0
0 22 0
0 21 0
0 21 0
0 16 0
13 0 0
13 0 3
0 0 4
0 20 12
0 9 5
0 5 0
0 5 0
0 7 0
0 16 0
0 33 0
0 37 0
0 30 0
0 8 0
17 0 0
14 0 3
5 0 0
0 18 0
0 22 0
0 26 0
0 40 0
0 39 0
0 38 0
0 38 0
0 38 0
0 32 0
22 0 0
16 0 2
0 1 7
0 25 26
0 4 4
0 0 0
0 0 0
0 0 0
0 0 0
0 0 0
0 0 0
0 0 0
0 0 0
18 0 0
107 0 0
29 0 0
0 2 0
0 39 0
0 39 0
0 38 0
0 35 0
0 20 0
0 21 0
0 18 0
6 0 0
14 0 2
11 0 1
0 6 0
0 32 0
0 18 0
0 15 0
0 31 0
0 34 0
0 35 0
0 38 0
0 38 0
0 35 0
0 16 0
10 0 0
14 0 2
12 0 2
0 2 0
0 21 0
0 25 0
0 39 0
0 39 0
0 38 0
0 38 0
0 38 0
0 31 0
23 0 0
16 0 2
0 1 7
0 25 26
0 4 4
0 0 0
0 0 0
0 0 0
0 0 0
0 0 0
0 0 0
0 0 0
0 0 0
17 0 0
104 0 0
30 0 0
0 1 0
0 31 0
0 39 0
0 37 0
0 28 0
0 20 0
0 21 0
0 18 0
14 0 0
14 0 3
0 1 0
0 34 0
0 39 0
0 36 0
0 35 0
0 38 0
0 38 0
0 38 0
0 38 0
0 38 0
0 35 0
0 19 0
0 15 0
13 0 0
14 0 3
4 0 0
0 21 0
0 24 0
0 33 0
0 39 0
0 39 0
0 38 0
0 37 0
0 23 0
26 0 0
14 0 2
0 3 9
0 23 24
0 4 4
0 0 0
0 0 0
0 0 0
0 0 0
0 0 0
0 0 0
0 0 0
0 0 0
13 0 0
80 0 0
51 0 0
15 0 0
0 6 0
0 35 0
0 37 0
0 21 0
0 21 0
0 22 0
0 18 0
14 0 0
14 0 3
0 2 0
0 38 0
0 35 0
0 35 0
0 38 0
0 38 0
0 38 0
0 38 0
0 38 0
0 38 0
0 34 0
0 20 0
0 17 0
14 0 0
14 0 3
4 0 0
0 21 0
0 22 0
0 26 0
0 40 0
0 39 0
0 38 0
0 28 0
11 0 0
18 0 0
1 0 6
0 18 21
0 10 11
0 1 1
0 0 0
0 0 0
0 0 0
0 0 0
0 0 0
0 0 0
0 0 0
0 0 0
2 0 0
24 0 0
88 0 0
37 0 0
12 0 0
0 6 0
0 31 0
0 18 0
0 19 0
0 21 0
0 18 0
14 0 0
14 0 3
0 1 4
0 28 9
0 11 0
0 18 0
0 36 0
0 38 0
0 38 0
0 38 0
0 38 0
0 36 0
0 22 0
0 21 0
0 18 0
14 0 0
14 0 3
4 0 0
0 21 0
0 22 0
0 24 0
0 37 0
0 34 0
0 28 0
9 0 0
16 0 0
11 0 3
0 4 9
0 22 22
0 4 4
0 0 0
0 0 0
0 0 0
0 0 0
0 0 0
0 0 0
0 0 0
0 0 0
0 0 0
0 0 0
2 0 0
26 0 0
85 0 0
37 0 0
13 0 1
0 1 0
2 1 0
0 10 0
0 19 0
0 18 0
13 0 0
14 0 3
0 1 2
0 29 0
0 16 0
0 29 0
0 38 0
0 38 0
0 38 0
0 38 0
0 38 0
0 34 0
0 20 0
0 21 0
0 18 0
13 0 0
14 0 3
4 0 0
0 20 0
0 19 0
0 18 0
0 15 0
1 1 0
3 0 0
15 0 1
11 0 3
0 3 8
0 20 21
0 7 7
0 1 1
0 0 0
0 0 0
0 0 0
0 0 0
0 0 0
0 0 0
0 0 0
0 0 0
0 0 0
0 0 0
0 0 0
2 0 0
26 0 0
85 0 0
37 0 0
14 0 2
13 0 3
9 0 0
0 2 0
0 18 0
22 0 0
16 0 2
0 1 0
0 34 0
0 36 0
0 37 0
0 38 0
0 38 0
0 38 0
0 37 0
0 34 0
0 22 0
0 21 0
0 21 0
0 16 0
13 0 0
14 0 3
3 0 0
0 18 0
14 0 0
8 0 0
8 0 0
13 0 2
13 0 3
11 0 3
0 3 8
0 20 21
0 6 6
0 1 1
0 0 0
0 0 0
0 0 0
0 0 0
0 0 0
0 0 0
0 0 0
0 0 0
0 0 0
0 0 0
0 0 0
0 0 0
0 0 0
2 0 0
26 0 0
83 0 0
25 0 0
25 0 0
14 0 2
0 1 5
0 21 14
70 0 0
37 0 0
12 0 0
0 10 0
0 40 0
0 39 0
0 38 0
0 36 0
0 35 0
0 29 0
0 22 0
0 21 0
0 22 0
0 18 0
4 0 0
12 0 1
11 0 3
0 4 8
0 18 11
82 0 0
26 0 0
11 0 3
0 0 6
9 0 3
0 0 5
0 19 20
0 6 6
0 1 1
0 0 0
0 0 0
0 0 0
0 0 0
0 0 0
0 0 0
0 0 0
0 0 0
0 0 0
0 0 0
0 0 0
0 0 0
0 0 0
0 0 0
0 0 0
2 0 0
13 0 0
16 0 0
84 0 0
36 0 0
0 1 7
0 24 25
13 0 0
97 0 0
26 0 0
0 2 0
0 34 0
0 37 0
0 34 0
0 23 0
0 23 0
0 23 0
0 21 0
0 22 0
0 21 0
0 15 0
14 0 0
14 0 3
0 0 6
0 22 23
0 2 3
104 0 0
27 0 0
0 3 9
0 18 20
0 3 4
0 0 1
0 3 3
0 1 1
0 0 0
0 0 0
0 0 0
0 0 0
0 0 0
0 0 0
0 0 0
0 0 0
0 0 0
0 0 0
0 0 0
0 0 0
0 0 0
0 0 0
0 0 0
0 0 0
0 0 0
0 0 0
2 0 0
26 0 0
82 0 0
0 0 4
0 20 20
3 0 0
96 0 0
39 0 0
13 0 1
0 4 0
0 19 0
0 21 0
0 20 0
0 21 0
0 21 0
0 20 0
0 18 0
0 15 0
8 0 0
15 0 2
11 0 3
0 4 10
0 22 23
0 0 0
87 0 0
15 0 0
0 19 21
0 6 7
0 1 1
0 0 0
0 0 0
0 0 0
0 0 0
0 0 0
0 0 0
