P3
#dylan7
20 20
255

255 255 255
255 255 255
255 255 255
255 255 255
255 255 255
255 255 255
255 255 255
255 255 255
255 255 255
255 255 255
0 0 0
0 0 0
0 0 0
0 0 0
0 0 0
0 0 0
0 0 0
0 0 0
0 0 0
0 0 0
255 255 255
255 255 255
255 255 255
255 255 255
22 12 11
22 12 11
255 255 255
255 255 255
255 255 255
255 255 255
0 0 0
0 0 0
0 0 0
0 0 0
0 0 0
0 0 0
0 0 0
0 0 0
0 0 0
0 0 0
255 255 255
255 255 255
255 255 254
255 255 255
255 255 255
255 255 255
255 255 255
255 255 249
255 255 255
255 255 255
0 0 0
0 0 0
0 0 0
0 0 0
0 0 0
0 0 0
0 0 0
0 0 0
0 0 0
0 0 0
255 255 255
255 255 255
255 255 255
250 249 247
0 0 1
0 0 2
243 243 231
1 0 0
0 0 0
1 0 0
0 0 0
0 0 0
0 0 0
0 0 0
0 0 0
0 0 0
0 0 0
0 0 0
0 0 0
0 0 0
255 255 255
20 10 10
255 255 255
253 251 252
0 0 0
0 0 0
251 251 251
244 254 255
11 12 11
2 2 2
0 0 0
0 0 2
0 0 0
0 0 0
0 0 0
0 0 0
0 0 0
0 0 0
0 0 0
0 0 0
255 255 255
20 10 10
0 0 0
0 0 0
1 0 0
21 27 235
0 27 254
255 228 0
231 216 12
0 27 255
21 28 240
0 0 0
0 0 0
0 0 0
0 0 0
0 0 0
0 0 0
0 0 0
0 0 0
0 0 0
255 255 255
255 255 255
255 255 255
1 1 1
2 2 2
0 27 255
255 255 255
255 255 255
255 255 255
255 255 253
254 255 255
255 255 255
254 255 255
255 255 255
255 255 255
255 255 255
0 0 0
0 0 0
0 0 0
0 0 0
255 255 255
255 255 255
255 255 247
0 1 0
0 6 7
247 224 5
255 255 255
255 255 255
255 255 255
253 253 253
11 1 0
11 1 0
253 253 253
255 255 255
255 255 253
255 255 255
0 0 0
0 0 0
0 0 0
0 0 0
255 255 255
255 255 255
255 255 255
0 0 0
10 11 10
24 13 12
255 255 255
254 255 255
234 228 20
255 228 0
255 228 0
255 229 0
255 228 0
234 227 15
255 255 255
255 255 255
0 0 0
0 0 0
0 0 0
0 0 0
255 255 255
255 255 255
255 255 255
0 0 0
2 2 2
0 27 255
254 254 254
253 253 253
255 228 0
1 2 4
254 227 0
253 229 0
1 1 11
255 229 2
254 254 254
255 255 255
0 0 0
0 0 0
0 0 0
0 0 0
0 0 0
0 0 0
0 0 0
0 0 0
0 0 0
22 29 241
255 254 255
10 0 0
255 228 0
0 2 1
255 228 0
255 228 0
1 1 1
255 229 0
11 2 0
255 255 255
0 0 0
0 0 0
0 0 0
0 0 0
0 0 0
0 0 0
0 0 0
0 0 0
0 0 2
0 0 0
255 255 255
10 0 0
0 0 0
255 228 0
255 228 0
255 228 1
254 227 0
0 0 0
12 1 0
255 255 255
0 0 0
0 0 0
0 0 0
0 0 0
0 0 0
0 0 0
0 0 0
0 0 0
0 0 0
0 0 0
255 255 255
253 253 253
255 228 0
255 226 2
255 228 0
255 227 0
254 226 5
253 229 0
254 254 254
255 255 255
0 0 0
0 0 0
0 0 0
0 0 0
0 0 0
0 0 0
0 0 0
0 0 0
0 0 0
0 0 0
255 255 255
255 255 255
233 226 14
255 228 0
5 1 2
4 0 1
255 228 0
240 231 12
255 255 255
255 255 255
0 0 0
0 0 0
0 0 0
0 0 0
0 0 0
0 0 0
0 0 0
0 0 0
0 0 0
0 0 0
255 255 255
255 255 253
255 255 255
253 253 253
10 1 0
12 1 0
252 252 252
254 254 254
255 255 255
255 255 255
0 0 0
0 0 0
0 0 0
0 0 0
0 0 0
0 0 0
0 0 0
0 0 0
0 0 0
0 0 0
255 255 255
255 255 255
255 255 255
255 255 255
255 255 255
255 255 255
255 255 255
255 255 253
255 255 255
255 255 255
0 0 0
0 0 0
0 0 0
0 0 0
0 0 0
0 0 0
0 0 0
0 0 0
0 0 0
0 0 0
0 0 0
0 0 0
0 0 0
0 0 0
0 0 0
0 0 0
0 0 0
0 0 0
0 0 0
0 0 0
0 0 0
0 0 0
0 0 0
0 0 0
0 0 0
0 0 0
0 0 0
0 0 0
0 0 0
0 0 0
0 0 0
0 0 0
0 0 0
0 0 0
0 0 0
0 0 0
0 0 0
0 0 0
0 0 0
0 0 0
0 0 0
0 0 0
0 0 0
0 0 0
0 0 0
0 0 0
0 0 0
0 0 0
0 0 0
0 0 0
0 0 0
0 0 0
0 0 0
0 0 0
0 0 0
0 0 0
0 0 0
0 0 0
0 0 0
0 0 0
0 0 0
0 0 0
0 0 0
0 0 0
0 0 0
0 0 0
0 0 0
0 0 0
0 0 0
0 0 0
0 0 0
0 0 0
0 0 0
0 0 0
0 0 0
0 0 0
0 0 0
0 0 0
0 0 0
0 0 0
0 0 0
0 0 0
0 0 0
0 0 0
