P3
#lovely5
20 20
255

255 255 255
255 255 255
255 255 255
255 255 253
254 255 255
255 255 255
254 255 255
255 255 255
255 255 255
255 255 255
255 255 255
255 255 255
255 255 255
255 255 255
255 255 255
255 255 255
255 255 255
255 255 255
255 255 255
255 255 255
255 255 255
255 255 255
255 255 255
253 253 253
11 1 0
11 1 0
253 253 253
255 255 255
255 255 253
255 255 255
255 255 255
255 255 255
255 255 255
255 255 255
255 255 255
255 255 255
255 255 255
255 255 255
255 255 255
255 255 255
255 255 255
254 255 255
0 255 0
0 255 0
0 255 0
0 255 0
0 255 0
0 255 0
0 255 0
0 255 0
0 255 0
0 255 0
255 255 255
255 255 255
255 255 255
255 255 255
255 255 255
255 255 255
255 255 255
255 255 255
254 254 254
253 253 253
0 255 0
0 255 0
0 255 0
0 253 0
0 1 0
0 1 0
0 253 0
0 255 0
0 255 0
0 255 0
255 255 255
255 255 255
255 255 255
255 255 255
255 255 255
255 255 255
255 255 255
255 255 255
255 254 255
10 0 0
0 255 0
0 255 0
0 228 0
0 228 0
0 228 0
0 229 0
0 228 0
0 227 0
0 255 0
0 255 0
255 255 255
255 255 255
255 255 255
255 255 255
255 255 255
255 255 255
255 255 255
255 255 255
255 255 255
10 0 0
0 254 0
0 253 0
0 228 0
0 2 0
0 227 0
0 229 0
0 1 0
0 229 0
0 254 0
0 255 0
255 255 255
255 255 255
255 255 255
255 255 255
255 255 255
255 255 255
255 255 255
255 255 255
255 255 255
253 253 253
0 254 0
0 0 0
0 228 0
0 2 0
255 27 255
255 27 255
255 254 255
255 26 253
254 253 255
255 0 255
1 0 0
0 0 0
0 0 0
0 0 0
255 255 255
255 255 255
255 255 255
255 255 255
255 255 255
255 255 255
0 255 0
0 0 0
0 0 0
0 228 0
255 27 255
255 27 255
255 28 255
253 253 253
11 0 0
11 254 0
2 2 2
0 0 0
0 0 2
0 0 0
255 255 255
255 255 255
255 255 255
255 255 255
255 255 255
255 255 253
0 255 0
0 253 0
0 228 0
0 226 0
255 27 255
254 28 255
234 2 20
255 1 0
255 26 0
255 26 0
0 27 255
21 28 240
0 0 0
0 0 0
255 255 255
255 255 255
255 255 255
255 255 255
255 255 255
255 255 255
0 255 0
0 255 0
0 226 0
0 228 0
254 253 254
253 253 253
255 0 0
1 229 4
254 28 0
253 26 0
254 254 244
0 26 253
1 1 1
0 0 0
255 255 255
255 255 255
255 255 255
255 255 255
255 255 255
255 255 255
0 255 0
0 255 0
0 255 0
0 253 0
255 253 255
10 1 0
255 24 0
0 252 1
255 27 0
255 27 0
254 254 254
0 26 255
244 253 255
0 0 0
255 255 255
255 255 255
255 255 255
255 255 255
255 255 255
255 255 255
0 255 0
0 255 0
0 255 0
0 255 0
255 0 255
10 255 0
0 255 0
255 27 0
255 27 0
255 27 1
1 28 255
255 255 255
243 254 255
0 0 0
255 255 255
255 255 255
255 255 255
255 255 255
255 255 255
255 255 255
255 255 255
255 255 255
255 255 255
255 255 255
0 0 0
2 2 2
0 27 255
0 29 253
0 27 255
0 28 255
1 29 250
2 26 255
1 1 1
0 0 0
255 255 255
255 255 255
255 255 255
255 255 255
255 255 255
255 255 255
255 255 255
255 255 255
255 255 255
255 255 255
0 0 0
0 0 0
22 29 241
0 27 255
250 254 253
251 255 254
0 27 255
15 24 243
0 0 0
0 0 0
255 255 255
255 255 255
255 255 255
255 255 255
255 255 255
255 255 255
255 255 255
255 255 255
255 255 255
255 255 255
0 0 0
0 0 2
0 0 0
2 2 2
245 254 255
243 254 255
3 3 3
1 1 1
0 0 0
0 0 0
255 255 255
255 255 255
255 255 255
255 255 255
255 255 255
255 255 255
255 255 255
255 255 255
255 255 255
255 255 255
0 0 0
0 0 0
0 0 0
0 0 0
0 0 0
0 0 0
0 0 0
0 0 2
0 0 0
0 0 0
255 255 255
255 255 255
255 255 255
255 255 255
255 255 255
255 255 255
255 255 255
255 255 255
255 255 255
255 255 255
255 255 255
255 255 255
255 255 255
255 255 255
255 255 255
255 255 255
255 255 255
255 255 255
255 255 255
255 255 255
255 255 255
255 255 255
255 255 255
255 255 255
255 255 255
255 255 255
255 255 255
255 255 255
255 255 255
255 255 255
255 255 255
255 255 255
255 255 255
255 255 255
255 255 255
255 255 255
255 255 255
255 255 255
255 255 255
255 255 255
255 255 255
255 255 255
255 255 255
255 255 255
255 255 255
255 255 255
255 255 255
255 255 255
255 255 255
255 255 255
255 255 255
255 255 255
255 255 255
255 255 255
255 255 255
255 255 255
255 255 255
255 255 255
255 255 255
255 255 255
255 255 255
255 255 255
255 255 255
255 255 255
255 255 255
255 255 255
255 255 255
255 255 255
255 255 255
255 255 255
255 255 255
255 255 255
255 255 255
255 255 255
255 255 255
255 255 255
255 255 255
255 255 255
255 255 255
255 255 255
255 255 255
255 255 255
255 255 255
255 255 255
