P3
#sane2
10 10
255

127 127 127
76 0 23
127 127 127
127 127 127
127 127 127
127 127 127
127 127 127
127 127 127
127 127 127
127 127 127
127 127 127
127 127 127
127 127 127
127 127 127
127 127 127
127 127 127
127 127 127
127 127 127
127 127 127
127 127 127
127 127 127
127 127 127
127 120 0
127 120 0
127 120 0
127 120 0
127 120 0
127 120 0
127 127 127
127 127 127
127 127 127
127 127 127
127 120 0
0 0 0
127 120 0
127 120 0
0 0 0
127 120 0
127 127 127
127 127 127
127 127 127
127 127 127
127 120 0
127 120 0
127 120 0
127 120 0
127 120 0
127 120 0
127 127 127
127 127 127
127 127 127
127 127 127
127 120 0
0 0 0
127 120 0
127 120 0
0 0 0
127 120 0
127 127 127
127 127 127
127 127 127
127 127 127
127 120 0
0 0 0
0 0 0
0 0 0
0 0 0
127 120 0
127 127 127
127 127 127
127 127 127
127 127 127
127 120 0
127 120 0
127 120 0
127 120 0
127 120 0
127 120 0
127 127 127
127 127 127
127 127 127
127 127 127
127 127 127
127 127 127
127 127 127
127 127 127
127 127 127
127 127 127
127 127 127
84 116 12
127 127 127
127 127 127
127 127 127
127 127 127
127 127 127
127 127 127
127 127 127
127 127 127
127 127 127
127 127 127
