P3
#sanity40
10 10
255

255 255 255
255 255 255
255 255 255
255 255 255
255 255 255
255 255 255
255 255 255
255 255 255
255 255 255
255 255 255
255 255 255
255 255 255
255 255 255
255 255 255
255 255 255
255 255 255
255 255 255
255 255 255
255 255 255
255 255 255
255 255 255
255 255 255
255 255 255
255 255 255
255 255 255
255 255 255
255 255 255
255 255 255
255 255 255
255 255 255
255 255 255
255 255 255
255 255 255
255 0 0
255 0 0
255 0 0
255 0 0
254 0 0
255 0 0
254 0 0
255 255 255
255 255 255
255 255 255
255 0 0
255 0 0
255 0 0
253 0 0
11 0 0
11 0 0
253 0 0
255 255 255
255 255 255
255 255 255
255 0 0
254 0 0
234 0 0
255 0 0
255 0 0
255 0 0
255 0 0
255 255 255
255 255 255
255 255 255
254 0 0
253 0 0
255 0 0
255 255 255
255 255 255
255 255 255
255 255 253
255 255 255
255 255 255
255 255 255
255 0 0
10 0 0
255 0 0
255 255 255
255 255 255
255 255 255
253 253 253
255 255 255
255 255 255
255 255 255
255 0 0
10 0 0
0 0 0
255 255 255
254 255 255
234 228 20
255 228 0
255 255 255
255 255 255
255 255 255
255 0 0
253 0 0
255 0 0
254 254 254
253 253 253
255 228 0
1 2 4
