P3
#sanity38
10 10
255

255 255 255
255 255 255
255 255 255
255 255 255
255 255 255
255 255 255
255 255 255
255 255 255
255 255 255
255 255 255
255 255 255
255 255 255
255 255 255
255 255 255
255 255 255
255 255 255
255 255 255
255 255 255
255 255 255
255 255 255
255 255 255
255 255 255
255 255 255
255 255 255
255 255 255
255 255 255
255 255 255
255 255 255
255 255 255
255 255 255
255 255 255
255 255 255
255 255 255
255 255 255
255 255 255
255 255 255
255 255 253
254 255 255
255 255 255
254 255 255
255 255 255
255 255 255
255 255 255
255 255 255
255 255 255
255 255 255
253 253 253
11 1 0
11 1 0
253 253 253
255 255 255
255 255 255
255 255 255
255 255 255
254 255 255
234 228 20
255 228 0
255 228 0
255 229 0
255 228 0
255 255 255
255 255 255
255 255 255
254 254 254
253 253 253
255 228 0
255 255 255
255 255 255
255 255 255
255 255 253
255 255 255
255 255 255
255 255 255
255 254 255
10 0 0
255 228 0
255 255 255
255 255 255
255 255 255
253 253 253
255 255 255
255 255 255
255 255 255
255 255 255
10 0 0
0 0 0
255 255 255
254 255 255
234 228 20
255 228 0
255 255 255
255 255 255
255 255 255
255 255 255
253 253 253
255 228 0
254 254 254
253 253 253
255 228 0
1 2 4
