P3
#woah
15 15
255

0 0 255
0 0 255
0 0 255
0 0 253
0 0 255
0 0 255
0 0 255
0 0 255
0 0 255
0 0 255
255 255 255
255 255 255
255 255 255
255 255 255
255 255 255
0 0 255
0 0 255
0 0 255
0 0 253
0 0 0
0 0 0
0 0 253
0 0 255
0 0 253
0 0 255
255 255 255
255 255 255
255 255 255
255 255 255
255 255 255
0 0 255
0 0 255
0 0 20
0 0 0
0 0 0
0 0 0
0 0 0
0 0 15
0 0 255
0 0 255
255 255 255
255 255 255
255 255 255
255 255 255
255 255 255
0 0 254
0 0 253
0 0 0
0 0 4
0 0 0
0 0 0
0 0 11
0 0 2
0 0 254
0 0 255
255 255 255
255 255 255
255 255 255
255 255 255
255 255 255
0 0 255
0 0 0
0 0 0
0 0 1
0 0 0
0 0 0
0 0 1
0 0 0
0 0 0
0 0 255
255 255 255
255 255 255
255 255 255
255 255 255
255 255 255
0 0 255
0 0 0
0 0 0
0 0 0
0 0 0
0 0 1
0 0 0
0 0 0
0 0 0
0 0 255
255 255 255
255 255 255
255 255 255
255 255 255
255 255 255
0 0 255
0 0 253
0 0 0
0 0 2
0 0 0
0 0 0
0 0 5
0 0 0
0 0 254
0 0 255
255 255 255
255 255 255
255 255 255
255 255 255
255 255 255
0 0 255
0 0 255
0 0 14
0 0 0
0 0 2
0 0 1
0 0 0
255 0 0
255 0 0
255 0 0
255 0 0
254 0 0
255 0 0
254 0 0
255 0 0
0 0 255
0 0 253
0 0 255
0 0 253
0 0 0
0 0 0
0 0 252
255 0 0
255 0 0
255 0 0
253 0 0
11 0 0
11 0 0
253 0 0
255 0 0
0 0 255
0 0 255
0 0 255
0 0 255
0 0 255
0 0 255
0 0 255
255 0 0
254 0 0
234 0 0
255 0 0
255 0 0
255 0 0
255 0 0
234 0 0
255 255 255
255 255 255
255 255 255
255 255 255
255 255 255
255 255 255
255 255 255
254 0 0
253 0 0
255 0 0
1 0 0
254 0 0
253 0 0
1 0 0
255 0 0
255 255 255
255 255 255
255 255 255
255 255 255
255 255 255
255 255 255
255 255 255
255 0 0
10 0 0
255 0 0
0 0 0
255 0 0
255 0 0
1 0 0
255 0 0
255 255 255
255 255 255
255 255 255
255 255 255
255 255 255
255 255 255
255 255 255
255 0 0
10 0 0
0 0 0
255 0 0
255 0 0
255 0 0
254 0 0
0 0 0
255 255 255
255 255 255
255 255 255
255 255 255
255 255 255
255 255 255
255 255 255
255 0 0
253 0 0
255 0 0
255 0 0
255 0 0
255 0 0
254 0 0
253 0 0
255 255 255
255 255 255
255 255 255
255 255 255
255 255 255
255 255 255
255 255 255
255 0 0
255 0 0
233 0 0
255 0 0
5 0 0
4 0 0
255 0 0
240 0 0
