P3
#cherryNewBrightenLuma
50 50
255

255 255 255
255 255 255
255 255 255
255 255 255
255 255 255
255 255 255
255 255 255
255 255 255
255 255 255
255 255 255
255 255 255
255 255 255
255 255 255
255 255 255
255 255 255
255 255 255
255 255 255
255 255 255
255 255 255
255 255 255
255 255 255
255 255 255
255 255 255
255 255 255
255 255 255
255 255 255
255 255 255
255 255 255
255 255 255
255 255 255
255 255 255
255 255 255
255 255 255
255 255 255
255 255 255
255 255 255
255 255 255
255 255 255
255 255 255
255 255 255
255 255 255
255 255 255
255 255 255
255 255 255
255 255 255
255 255 255
255 255 255
255 255 255
255 255 255
255 255 255
255 255 255
255 255 255
255 255 255
255 255 255
255 255 255
255 255 255
255 255 255
255 255 255
255 255 255
255 255 255
255 255 255
255 255 255
255 255 255
255 255 255
255 255 255
255 255 255
255 255 255
255 255 255
255 255 255
255 255 255
255 255 255
255 255 255
255 255 255
255 255 255
255 255 255
255 255 255
255 255 255
255 255 255
255 255 255
255 255 255
255 255 255
255 255 255
255 255 255
255 255 255
255 255 255
255 255 255
255 255 255
255 255 255
255 255 255
255 255 255
255 255 255
255 255 255
255 255 255
255 255 255
255 255 255
255 255 255
255 255 255
255 255 255
255 255 255
255 255 255
255 255 255
255 255 255
255 255 255
255 255 255
255 255 255
255 255 255
255 255 255
255 255 255
255 255 255
255 255 255
255 255 255
255 255 255
255 211 216
207 186 192
215 222 226
255 255 255
255 255 255
255 255 255
255 255 255
255 255 255
255 255 255
255 255 255
255 255 255
255 255 255
255 255 255
255 255 255
255 255 255
255 255 255
255 255 255
255 255 255
255 255 255
255 255 255
255 255 255
255 255 255
255 255 255
255 255 255
255 255 255
255 255 255
255 255 255
255 255 255
255 255 255
255 255 255
255 255 255
255 255 255
255 255 255
255 255 255
255 255 255
255 255 255
255 255 255
255 255 255
255 255 255
255 255 255
255 255 255
255 255 255
255 255 255
255 255 255
255 255 255
255 255 255
255 234 240
216 186 192
197 180 187
186 161 168
168 143 150
158 140 147
159 145 152
175 174 180
194 182 188
211 212 217
255 255 255
255 255 255
255 255 255
255 255 255
255 255 255
255 255 255
255 255 255
255 255 255
255 255 255
255 255 255
255 255 255
255 255 255
255 255 255
255 255 255
255 255 255
255 255 255
255 255 255
255 255 255
255 255 255
255 255 255
255 255 255
255 255 255
255 255 255
255 255 255
255 255 255
255 255 255
255 255 255
255 255 255
255 255 255
255 255 255
255 255 255
255 255 255
255 255 255
255 255 255
255 255 255
255 255 255
255 255 255
255 255 255
255 235 241
214 181 187
179 147 154
159 140 147
157 140 147
159 145 152
175 174 181
195 181 187
189 165 171
170 144 151
158 140 147
158 143 150
173 172 179
207 211 217
255 255 255
255 255 255
255 255 255
255 255 255
255 255 255
255 255 255
255 255 255
255 255 255
255 255 255
255 255 255
255 255 255
255 255 255
255 255 255
255 255 255
255 255 255
255 255 255
255 255 255
255 255 255
255 255 255
255 255 255
255 255 255
255 255 255
255 255 255
255 255 255
255 255 255
255 255 255
255 255 255
255 255 255
255 255 255
255 255 255
255 255 255
255 255 255
255 255 255
255 255 255
255 255 255
255 231 236
197 150 157
159 140 147
159 145 151
175 176 182
198 188 193
218 226 230
255 255 255
255 255 255
255 255 255
255 217 221
210 187 193
198 180 186
180 147 154
161 144 151
187 204 209
255 255 255
255 255 255
255 255 255
255 255 255
255 255 255
255 255 255
255 255 255
255 255 255
255 255 255
255 255 255
255 255 255
255 255 255
255 255 255
255 255 255
255 255 255
255 255 255
255 255 255
255 255 255
255 255 255
255 255 255
255 255 255
255 255 255
255 255 255
255 255 255
255 255 255
255 255 255
255 255 255
255 255 255
255 255 255
255 255 255
255 255 255
255 255 255
255 255 255
255 231 236
197 150 157
161 145 151
175 176 182
211 217 221
255 255 255
255 255 255
255 255 255
255 255 255
255 255 255
255 255 255
255 255 255
255 255 255
255 255 255
255 233 238
199 152 158
161 144 151
187 204 209
255 255 255
255 255 255
255 255 255
255 255 255
255 255 255
255 255 255
255 255 255
255 255 255
255 255 255
255 255 255
255 255 255
255 255 255
255 255 255
255 255 255
255 255 255
255 255 255
255 255 255
255 255 255
255 255 255
255 255 255
255 255 255
255 255 255
255 255 255
255 255 255
255 255 255
255 255 255
255 255 255
255 255 255
255 255 255
255 255 255
255 255 255
255 231 236
197 150 157
161 145 151
188 206 212
255 255 255
255 255 255
255 255 255
255 255 255
255 255 255
255 255 255
255 255 255
255 255 255
255 255 255
255 255 255
255 255 255
255 255 255
255 211 226
189 147 155
159 143 150
187 204 209
255 255 255
255 255 255
255 255 255
255 255 255
255 255 255
255 255 255
255 255 255
255 255 255
255 255 255
255 255 255
255 255 255
255 255 255
255 255 255
255 255 255
255 255 255
255 255 255
255 255 255
255 255 255
255 255 255
255 255 255
255 255 255
255 255 255
255 255 255
255 255 255
255 255 255
255 255 255
255 255 255
255 255 255
255 255 255
255 243 248
204 153 160
162 144 151
188 206 212
255 255 255
255 255 255
255 255 255
255 255 255
255 255 255
255 255 255
255 255 255
255 255 255
255 255 255
255 255 255
255 255 255
255 255 255
255 255 255
255 255 255
255 184 207
181 146 154
160 145 150
189 208 214
255 255 255
255 255 255
255 255 255
255 255 255
255 255 255
255 255 255
255 255 255
255 255 255
255 255 255
255 255 255
255 255 255
255 255 255
255 255 255
255 255 255
255 255 255
255 255 255
255 255 255
255 255 255
255 255 255
255 255 255
255 255 255
255 255 255
255 255 255
255 255 255
255 255 255
255 255 255
255 255 255
255 255 255
255 202 208
178 143 150
172 175 181
255 255 255
255 255 255
255 255 255
255 255 255
255 255 255
255 255 255
255 255 255
255 255 255
255 255 255
255 255 255
255 255 255
255 255 255
255 255 255
255 255 255
255 255 255
255 255 255
255 178 197
175 143 151
170 170 177
255 255 255
255 255 255
255 255 255
255 255 255
255 255 255
255 255 255
255 255 255
255 255 255
255 255 255
255 255 255
255 255 255
255 255 255
255 255 255
255 255 255
255 255 255
255 255 255
255 255 255
255 255 255
255 255 255
255 255 255
255 255 255
255 255 255
255 255 255
255 255 255
255 255 255
255 255 255
255 255 255
255 243 248
203 153 160
161 145 151
188 206 213
255 255 255
255 239 255
255 255 255
255 255 255
255 255 255
255 255 255
255 255 255
255 255 255
255 255 255
255 255 255
255 255 255
255 255 255
255 255 255
255 255 255
255 255 255
255 255 255
255 235 255
223 160 172
165 144 151
186 201 207
255 255 255
255 255 255
255 255 255
255 255 255
255 255 255
255 255 255
255 255 255
255 255 255
255 255 255
255 255 255
255 255 255
255 255 255
255 255 255
255 255 255
255 255 255
255 255 255
255 255 255
255 255 255
255 255 255
255 255 255
255 255 255
255 255 255
255 255 255
255 255 255
255 255 255
255 255 255
255 209 215
181 144 151
172 175 181
255 255 255
255 175 255
219 78 222
206 100 239
255 238 255
255 255 255
255 255 255
255 255 255
255 255 255
255 255 255
255 255 255
255 255 255
255 255 255
255 255 255
255 255 255
255 255 255
255 255 255
255 255 255
255 185 209
182 146 154
159 143 150
190 210 215
255 255 255
255 255 255
255 255 255
255 255 255
255 255 255
255 255 255
255 255 255
255 255 255
255 255 255
255 255 255
255 234 240
216 186 192
198 183 189
198 183 189
198 183 189
200 188 194
226 242 247
255 255 255
255 255 255
255 255 255
255 255 255
255 255 255
255 255 255
255 255 255
255 255 255
255 209 215
181 144 151
172 174 182
255 255 255
255 116 250
197 53 206
184 54 206
195 79 224
221 127 255
255 246 255
255 255 255
255 255 255
255 255 255
255 255 255
255 255 255
255 255 255
255 255 255
255 255 255
255 255 255
255 255 255
255 255 255
255 255 255
254 170 185
169 142 149
172 174 180
255 255 255
255 255 255
255 255 255
255 255 255
255 255 255
255 255 255
255 255 255
255 255 255
255 235 241
214 181 187
179 147 154
159 140 147
157 140 147
157 140 147
157 140 147
157 140 147
161 149 156
190 205 210
255 255 255
255 255 255
255 255 255
255 255 255
255 255 255
255 255 255
255 255 255
255 209 215
181 144 151
155 134 157
149 92 213
190 57 208
184 51 204
183 51 204
183 51 204
186 58 209
204 98 238
255 238 255
255 255 255
255 255 255
255 255 255
255 255 255
255 255 255
255 255 255
255 255 255
255 255 255
255 255 255
255 255 255
255 255 255
255 188 212
182 146 154
159 143 150
190 210 215
255 255 255
255 255 255
255 255 255
255 255 255
255 255 255
255 255 255
255 231 236
197 150 157
158 138 146
155 136 147
153 127 151
158 128 153
159 128 153
159 128 153
160 131 152
162 139 148
158 143 150
187 204 208
255 255 255
255 255 255
255 255 255
255 255 255
255 255 255
255 255 255
255 209 215
181 144 151
152 127 152
130 52 187
174 49 202
183 51 204
183 51 204
183 51 204
183 51 204
184 54 206
194 77 222
214 113 246
255 243 255
255 255 255
255 255 255
255 255 255
255 255 255
255 255 255
255 255 255
255 255 255
255 255 255
255 255 255
255 255 255
254 170 185
169 142 149
172 175 180
255 255 255
255 255 255
255 255 255
255 255 255
255 255 255
255 241 246
201 151 158
158 138 146
153 131 148
148 108 157
141 60 184
172 59 194
178 60 195
179 62 195
187 85 193
195 128 163
168 140 149
158 143 150
187 204 210
255 255 255
255 255 255
255 255 255
255 255 255
255 255 255
255 209 215
181 144 151
152 128 152
131 54 188
174 49 202
183 51 204
183 51 204
183 51 204
183 51 204
183 51 204
183 51 204
185 56 207
203 98 238
255 238 255
255 255 255
255 255 255
255 255 255
255 255 255
255 255 255
255 255 255
255 255 255
255 255 255
255 255 255
255 186 212
182 146 154
159 143 150
189 208 214
255 255 255
255 255 255
255 255 255
255 255 255
255 200 206
177 143 150
154 133 148
141 93 165
149 57 189
172 49 200
181 50 203
183 51 204
183 51 203
183 54 202
188 71 193
200 129 164
167 140 149
159 145 152
195 219 223
255 255 255
255 255 255
255 255 255
255 255 255
255 209 215
181 144 151
152 127 152
130 52 187
174 49 202
183 51 204
183 51 204
183 51 204
183 51 204
183 51 204
183 51 204
183 51 204
184 54 206
194 77 222
211 109 244
255 243 255
255 255 255
255 255 255
255 255 255
255 255 255
255 255 255
255 255 255
255 255 255
255 255 255
255 171 187
169 142 149
172 174 180
255 255 255
255 255 255
255 255 255
255 238 244
201 151 158
158 138 147
149 119 156
138 58 187
172 49 201
181 50 203
183 51 204
183 51 204
183 51 204
183 51 204
184 54 203
193 81 193
201 138 159
163 141 148
175 181 187
255 255 255
255 255 255
255 255 255
255 255 255
255 209 215
181 144 151
152 127 152
131 55 187
174 49 201
183 51 204
183 51 204
183 51 204
183 51 204
183 51 204
183 51 204
183 51 204
183 51 204
183 51 204
184 54 206
203 98 238
255 238 255
255 255 255
255 255 255
255 255 255
255 255 255
255 255 255
255 255 255
255 255 255
255 186 212
182 146 154
159 143 150
190 210 215
255 255 255
255 255 255
255 200 206
177 143 150
152 127 151
132 61 182
169 50 200
181 50 203
183 51 204
183 51 204
183 51 204
183 51 204
183 51 204
183 51 204
188 64 198
207 136 161
164 141 148
174 179 185
255 255 255
255 255 255
255 255 255
255 255 255
255 231 237
196 150 157
156 132 152
140 81 183
166 52 199
180 50 203
183 51 204
183 51 204
183 51 204
183 51 204
183 51 204
183 51 204
183 51 204
183 51 204
183 51 204
184 54 206
193 75 221
210 104 242
255 242 255
255 255 255
255 255 255
255 255 255
255 255 255
255 255 255
255 255 255
254 170 185
169 142 149
172 174 180
255 255 255
255 227 232
197 150 157
158 137 147
146 112 155
135 51 189
175 49 202
183 51 204
183 51 204
183 51 204
183 51 204
183 51 204
183 51 204
183 51 204
187 62 197
207 136 161
164 141 148
174 179 185
255 255 255
255 255 255
255 255 255
255 255 255
255 255 255
255 189 196
173 141 150
150 122 155
137 59 184
169 48 199
181 50 203
183 51 204
183 51 204
183 51 204
183 51 204
183 51 204
183 51 204
183 51 204
183 51 204
183 51 204
183 51 204
184 54 206
203 98 238
255 236 255
255 255 255
255 255 255
255 255 255
255 255 255
255 255 255
255 188 212
182 146 154
159 143 150
172 169 176
175 146 153
159 140 147
152 128 151
132 61 183
169 50 200
181 50 203
183 51 204
183 51 204
183 51 204
183 51 204
183 51 204
183 51 204
183 51 204
187 62 197
207 136 161
164 141 148
174 179 185
255 255 255
255 255 255
255 255 255
255 255 255
255 255 255
255 228 234
195 150 157
156 135 147
142 100 155
140 54 190
174 49 201
181 50 203
183 51 204
183 51 204
183 51 204
183 51 204
183 51 204
183 51 204
183 51 204
183 51 204
183 51 204
183 51 204
184 54 206
193 75 221
209 102 241
255 242 255
255 255 255
255 255 255
255 255 255
255 255 255
254 170 185
169 142 149
157 140 147
157 140 147
156 138 147
148 117 156
135 51 188
175 49 202
183 51 204
183 51 204
183 51 204
183 51 204
183 51 204
183 51 204
183 51 204
183 51 204
188 64 198
207 136 161
164 141 148
174 179 185
255 255 255
255 255 255
255 255 255
255 255 255
255 255 255
255 255 255
255 186 193
172 141 149
152 128 150
142 86 181
164 59 193
175 51 201
181 50 203
183 51 204
183 51 204
183 51 204
183 51 204
183 51 204
183 51 204
183 51 204
183 51 204
183 51 204
183 51 204
183 51 204
184 54 206
203 98 238
255 236 255
255 255 255
255 255 255
255 255 255
255 188 212
183 146 154
158 140 147
157 140 147
153 130 152
132 61 182
169 50 200
181 50 203
183 51 204
183 51 204
183 51 204
183 51 204
183 51 204
183 51 204
183 51 204
184 54 203
192 81 193
200 138 159
163 142 149
181 192 198
255 255 255
255 255 255
255 255 255
255 255 255
255 255 255
255 255 255
255 237 242
199 150 157
158 138 147
154 132 151
153 115 158
141 63 185
172 58 196
176 51 201
181 50 203
183 51 204
183 51 204
183 51 204
183 51 204
183 51 204
183 51 204
183 51 204
183 51 204
183 51 204
183 51 204
184 54 206
193 75 221
209 102 241
255 242 255
255 255 255
255 255 255
254 170 185
169 142 149
156 138 147
149 120 156
135 53 189
175 49 202
183 51 204
183 51 204
183 51 204
183 51 204
183 51 204
183 51 204
183 51 203
183 55 198
185 71 193
199 129 164
168 140 149
164 157 163
233 255 255
255 255 255
255 255 255
255 255 255
255 255 255
255 255 255
255 255 255
255 255 255
255 231 236
197 150 157
159 140 147
155 136 146
152 127 151
153 113 158
141 63 185
172 59 194
178 60 195
178 60 196
176 55 196
177 53 202
180 50 202
183 51 204
183 51 204
183 51 204
183 51 204
183 51 204
183 51 204
183 51 204
184 54 206
203 98 238
255 235 255
255 251 255
255 170 188
170 142 149
154 133 150
141 87 175
157 51 197
179 50 203
183 51 203
183 54 203
183 57 199
181 61 197
178 60 195
178 60 195
181 67 193
190 103 169
172 127 155
163 139 148
158 143 150
188 206 212
255 255 255
255 255 255
255 255 255
255 255 255
255 255 255
255 255 255
255 255 255
255 255 255
255 255 255
255 235 240
208 170 177
172 144 151
158 140 147
155 136 146
153 128 151
158 128 153
159 128 153
157 123 153
148 98 156
149 77 186
171 62 194
178 60 195
178 60 195
178 60 195
178 60 195
178 60 195
178 60 195
178 60 195
178 60 195
180 64 198
191 87 215
200 99 210
207 141 163
164 141 148
156 138 147
150 122 155
137 62 184
173 61 195
182 69 197
186 83 192
185 99 169
173 126 158
161 128 153
159 128 153
159 128 152
161 134 148
158 138 146
158 143 150
187 204 209
255 255 255
255 255 255
255 255 255
255 255 255
255 255 255
255 255 255
255 255 255
255 255 255
255 255 255
255 255 255
255 255 255
255 255 255
255 219 225
208 180 186
179 147 154
159 140 147
157 140 147
157 140 147
156 138 146
155 135 147
154 130 151
158 128 153
159 128 153
159 128 153
159 128 153
159 128 153
159 128 153
159 128 153
159 128 153
159 128 153
159 128 153
159 128 153
160 130 153
162 139 148
157 140 147
157 140 147
156 138 147
152 128 151
158 128 153
160 130 154
160 131 152
160 134 148
158 138 146
157 140 147
157 140 147
157 140 147
158 143 150
174 174 180
207 211 216
255 255 255
255 255 255
255 255 255
255 255 255
255 255 255
255 255 255
255 255 255
255 255 255
255 255 255
255 255 255
255 255 255
255 255 255
255 255 255
255 255 255
255 255 255
255 234 240
216 186 192
198 183 189
197 181 187
191 169 176
174 146 153
158 140 147
157 140 147
157 140 147
157 140 147
157 140 147
157 140 147
157 140 147
157 140 147
157 140 147
157 140 147
157 140 147
157 140 147
157 140 147
157 140 147
157 140 147
157 140 147
157 140 147
157 140 147
157 140 147
157 140 147
157 141 148
162 152 159
181 177 183
196 183 189
198 183 189
198 183 189
211 212 218
255 255 255
255 255 255
255 255 255
255 255 255
255 255 255
255 255 255
255 255 255
255 255 255
255 255 255
255 255 255
255 255 255
255 255 255
255 255 255
255 255 255
255 255 255
255 255 255
255 255 255
255 255 255
255 255 255
255 255 255
255 255 255
255 255 255
255 223 228
210 185 191
198 183 189
198 183 189
198 183 189
198 183 189
198 183 189
198 183 189
198 183 189
198 183 189
198 183 189
198 183 189
198 183 189
196 178 184
179 147 154
159 140 147
158 143 150
175 176 182
196 183 189
198 183 189
198 183 189
203 194 200
241 255 255
255 255 255
255 255 255
255 255 255
255 255 255
255 255 255
255 255 255
255 255 255
255 255 255
255 255 255
255 255 255
255 255 255
255 255 255
255 255 255
255 255 255
255 255 255
255 255 255
255 255 255
255 255 255
255 255 255
255 255 255
255 255 255
255 255 255
255 255 255
255 255 255
255 255 255
255 255 255
255 255 255
255 255 255
255 255 255
255 255 255
255 255 255
255 255 255
255 255 255
255 255 255
255 255 255
255 255 255
255 255 255
255 255 255
255 255 255
255 255 255
255 255 255
255 200 206
177 143 150
172 174 180
255 255 255
255 255 255
255 255 255
255 255 255
255 255 255
255 255 255
255 255 255
255 255 255
255 255 255
255 255 255
255 255 255
255 255 255
255 255 255
255 255 255
255 255 255
255 255 255
255 255 255
255 255 255
255 255 255
255 255 255
255 255 255
255 255 255
255 255 255
255 255 255
255 255 255
255 255 255
255 255 255
255 255 255
255 255 255
255 255 255
255 255 255
255 255 255
255 255 255
255 255 255
255 255 255
255 255 255
255 255 255
255 255 255
255 255 255
255 255 255
255 255 255
255 255 255
255 255 255
255 255 255
255 255 255
255 255 255
255 255 255
255 209 215
181 144 151
174 179 185
255 255 255
255 255 255
255 255 255
255 255 255
255 255 255
255 255 255
255 255 255
255 255 255
255 255 255
255 255 255
255 255 255
255 255 255
255 255 255
255 255 255
255 255 255
255 255 255
255 255 255
255 255 255
255 255 255
255 255 255
255 255 255
255 255 255
255 255 255
255 255 255
255 255 255
255 255 255
255 255 255
255 255 255
255 255 255
255 255 255
255 255 255
255 255 255
255 255 255
255 255 255
255 255 255
255 255 255
255 234 240
216 186 192
200 188 194
229 248 251
255 255 255
255 255 255
255 255 255
255 255 255
255 255 255
255 255 255
255 255 255
255 209 215
181 144 151
174 179 185
255 255 255
255 255 255
255 255 255
255 255 255
255 255 255
255 255 255
255 255 255
255 255 255
228 192 198
199 183 189
211 212 218
255 255 255
255 255 255
255 255 255
255 255 255
255 255 255
255 255 255
255 255 255
255 255 255
255 255 255
255 255 255
255 255 255
255 255 255
255 255 255
255 255 255
255 255 255
255 255 255
255 255 255
255 255 255
255 255 255
255 255 255
255 255 255
255 255 255
255 236 241
218 187 193
195 176 183
179 147 154
159 140 147
157 140 147
161 149 156
178 175 182
208 211 217
255 255 255
255 255 255
255 255 255
255 255 255
255 255 255
255 209 215
181 144 151
174 179 185
255 255 255
255 255 255
255 255 255
255 255 255
255 255 255
255 243 248
216 181 188
180 150 157
161 140 147
157 140 147
158 143 150
174 174 180
194 182 188
212 215 219
255 255 255
255 255 255
255 255 255
255 255 255
255 255 255
255 255 255
255 255 255
255 255 255
255 255 255
255 255 255
255 255 255
255 255 255
255 255 255
255 255 255
255 255 255
255 255 255
255 255 255
255 255 255
255 231 236
197 150 157
159 140 147
158 143 149
169 165 171
188 181 185
192 176 169
166 146 150
157 140 147
158 143 150
174 174 180
209 216 222
255 255 255
255 255 255
255 255 255
255 243 249
219 187 193
213 217 223
255 255 255
255 255 255
255 255 255
255 255 255
255 255 255
255 193 198
174 143 150
158 143 148
164 158 154
166 160 155
162 150 152
158 140 147
157 140 147
158 143 150
187 204 209
255 255 255
255 255 255
255 255 255
255 255 255
255 255 255
255 255 255
255 255 255
255 255 255
255 255 255
255 255 255
255 255 255
255 255 255
255 255 255
255 255 255
255 255 255
255 255 255
255 231 236
197 150 157
161 145 151
175 176 182
205 204 210
255 255 255
255 255 255
255 255 255
255 226 197
183 178 166
162 145 149
157 140 147
174 179 185
255 255 255
255 255 255
255 255 255
255 255 255
255 255 255
255 255 255
255 255 255
255 255 255
255 255 255
255 255 255
255 255 255
247 196 185
176 164 158
175 181 164
216 255 208
230 255 214
210 234 195
182 174 164
173 171 163
162 144 149
158 143 150
187 204 209
255 255 255
255 255 255
255 255 255
255 255 255
255 255 255
255 255 255
255 255 255
255 255 255
255 255 255
255 255 255
255 255 255
255 255 255
255 255 255
255 255 255
255 234 239
198 150 157
161 145 151
188 206 212
255 255 255
255 255 255
255 255 255
255 255 255
255 255 255
255 255 255
255 255 255
224 222 189
181 182 168
193 216 204
255 255 255
255 255 255
255 255 255
255 255 255
255 255 255
255 255 255
255 255 255
255 255 255
255 255 255
255 255 255
255 255 245
246 255 222
236 255 218
237 255 220
243 255 226
245 255 228
243 255 225
251 255 237
255 255 255
216 209 185
166 146 150
158 143 150
188 206 212
255 255 255
255 255 255
255 255 255
255 255 255
255 255 255
255 255 255
255 255 255
255 255 255
255 255 255
255 255 255
255 255 255
255 255 255
255 255 255
242 168 174
167 145 150
184 203 196
255 255 255
255 255 255
255 255 255
255 255 255
255 255 255
255 255 255
255 255 255
255 255 255
255 255 255
255 255 255
255 255 255
255 255 255
255 255 255
255 255 255
255 225 230
223 212 216
255 255 255
255 255 255
255 255 255
255 255 255
255 255 255
255 255 233
247 255 229
247 255 229
247 255 229
247 255 229
250 255 233
255 255 246
255 255 255
255 255 255
255 255 255
218 206 184
168 145 150
168 166 173
255 255 255
255 255 255
255 255 255
255 255 255
255 255 255
255 255 255
255 255 255
255 255 255
255 255 255
255 255 255
255 255 255
255 255 255
255 218 224
188 147 153
170 171 163
255 255 255
255 255 255
255 255 255
255 255 255
255 255 255
255 255 255
255 255 255
255 255 255
255 255 255
255 255 255
255 255 255
255 255 255
225 213 204
199 182 188
191 169 176
174 146 153
159 143 150
170 167 173
189 180 186
203 198 196
245 255 237
255 255 226
247 255 228
246 255 229
248 255 230
254 255 238
255 255 242
255 255 255
255 255 255
255 255 255
255 255 255
255 255 255
255 255 255
209 178 170
163 144 151
186 201 207
255 255 255
255 255 255
255 255 255
255 255 255
255 255 255
255 255 255
255 255 255
255 255 255
255 255 255
255 255 255
255 255 255
255 209 215
181 144 151
173 178 166
255 255 255
255 255 255
255 255 255
255 255 255
255 255 255
255 255 255
255 255 255
255 255 255
255 255 250
244 255 224
197 198 177
177 172 164
163 144 149
157 140 147
157 141 148
166 159 164
174 159 159
161 142 148
157 140 147
157 141 147
164 157 154
174 179 164
219 255 210
242 255 227
252 255 237
255 255 255
255 255 255
255 255 255
255 255 255
255 255 255
255 255 255
255 255 255
255 255 255
213 185 173
161 140 147
174 179 185
255 255 255
255 255 255
255 255 255
255 255 255
255 255 255
255 255 255
255 255 255
255 255 255
255 255 255
255 255 255
255 255 255
255 207 214
181 144 151
173 179 166
255 255 255
255 255 255
255 255 255
255 255 255
255 255 255
255 255 255
255 255 251
255 255 237
236 255 214
184 176 164
161 142 148
157 140 147
160 147 153
176 176 182
203 200 205
255 255 255
255 255 255
230 205 186
181 176 166
164 147 150
157 140 147
157 141 147
171 174 162
218 255 209
248 255 235
255 255 255
255 255 255
255 255 255
255 255 255
255 255 255
255 255 255
255 255 255
255 255 255
213 186 173
161 140 147
174 179 185
255 255 255
255 255 255
255 255 255
255 255 255
255 255 255
255 255 255
255 255 255
255 255 255
255 255 255
255 255 255
255 255 255
255 206 212
180 144 151
173 179 166
255 255 255
255 255 255
255 255 255
255 255 255
255 255 255
255 255 249
253 255 231
239 255 220
188 183 166
160 143 148
158 143 150
173 172 177
211 225 229
255 255 255
255 255 255
255 255 255
255 255 255
255 255 255
255 255 255
227 230 191
171 158 155
159 142 148
157 141 147
173 179 163
225 255 218
255 255 245
255 255 255
255 255 255
255 255 255
255 255 255
255 255 255
255 255 255
255 255 255
215 191 174
160 140 147
174 179 185
255 255 255
255 255 255
255 255 255
255 255 255
255 255 255
255 255 255
255 255 255
255 255 255
255 255 255
255 255 255
255 255 255
255 207 214
181 144 151
174 181 167
255 255 255
255 255 255
255 255 255
255 255 255
255 255 252
255 255 231
246 255 228
230 255 211
177 161 157
157 140 147
170 170 174
255 255 255
255 255 255
255 255 255
255 255 255
255 255 255
255 255 255
255 255 255
255 255 255
255 255 255
241 255 208
175 154 154
158 140 147
164 158 154
215 255 208
241 255 227
255 255 247
255 255 255
255 255 255
255 255 255
255 255 255
255 255 255
255 255 255
213 186 173
161 140 147
174 179 185
255 255 255
255 255 255
255 255 255
255 255 255
255 255 255
255 255 255
255 255 255
255 255 255
255 255 255
255 255 255
255 255 255
255 209 215
181 144 151
173 178 166
255 255 255
255 255 255
255 255 255
255 255 255
255 255 243
249 255 229
239 255 221
188 182 166
160 142 148
159 145 149
186 209 191
255 255 255
255 255 255
255 255 255
255 255 255
255 255 255
255 255 255
255 255 255
255 255 255
255 255 255
255 255 233
190 179 166
160 142 148
157 141 147
172 177 163
225 255 217
252 255 238
255 255 255
255 255 255
255 255 255
255 255 255
255 255 255
255 255 255
213 185 173
161 140 147
174 179 185
255 255 255
255 255 255
255 255 255
255 255 255
255 255 255
255 255 255
255 255 255
255 255 255
255 255 255
255 255 255
255 255 255
255 214 221
183 144 151
170 171 163
255 255 255
255 255 255
255 255 255
255 255 255
255 255 236
248 255 229
238 255 219
180 163 158
158 140 147
171 174 164
255 255 255
255 255 255
255 255 255
255 255 255
255 255 255
255 255 255
255 255 255
255 255 255
255 255 255
255 255 255
255 255 243
233 255 211
177 161 157
158 140 147
165 160 155
221 255 216
249 255 235
255 255 255
255 255 255
255 255 255
255 255 255
255 255 255
255 255 255
208 176 169
163 144 151
187 203 209
255 255 255
255 255 255
255 255 255
255 255 255
255 255 255
255 255 255
255 255 255
255 255 255
255 255 255
255 255 255
255 255 255
255 255 255
227 162 169
164 144 149
183 202 179
255 255 255
255 255 255
255 255 248
251 255 230
247 255 229
238 255 219
180 163 158
158 140 147
174 180 170
255 255 255
255 255 255
255 255 255
255 255 255
255 255 255
255 255 255
255 255 255
255 255 255
255 255 255
255 255 255
255 255 241
240 255 219
180 163 158
158 140 147
166 162 156
223 255 217
245 255 229
255 255 244
255 255 255
255 255 255
255 255 255
255 255 255
218 206 184
168 145 150
168 166 173
255 255 255
255 255 255
255 255 255
255 255 255
255 255 255
255 255 255
255 255 255
255 255 255
255 255 255
255 255 255
255 255 255
255 255 255
255 255 255
255 232 238
198 150 157
161 145 149
184 204 180
255 255 255
255 255 232
243 255 223
245 255 228
238 255 219
180 163 158
158 140 147
174 180 183
255 255 255
255 255 255
255 255 255
255 255 255
255 255 255
255 255 255
255 255 255
255 255 255
255 255 255
255 255 252
254 255 231
238 255 219
180 163 158
158 140 147
165 160 155
222 255 216
245 255 229
254 255 238
255 255 255
255 255 255
255 255 255
219 210 186
167 146 150
158 143 150
189 208 213
255 255 255
255 255 255
255 255 255
255 255 255
255 255 255
255 255 255
255 255 255
255 255 255
255 255 255
255 255 255
255 255 255
255 255 255
255 255 255
255 255 255
255 231 236
197 150 157
160 143 148
170 171 163
174 173 162
196 228 187
227 255 215
233 255 217
179 163 158
158 140 147
175 182 183
255 255 255
255 255 255
255 255 255
255 255 255
255 255 255
255 255 255
255 255 255
255 255 255
255 255 255
255 255 241
249 255 229
238 255 219
180 164 158
158 140 147
165 160 155
220 255 214
235 255 219
235 255 219
231 255 218
196 196 176
178 175 165
163 144 149
158 143 150
187 204 209
255 255 255
255 255 255
255 255 255
255 255 255
255 255 255
255 255 255
255 255 255
255 255 255
255 255 255
255 255 255
255 255 255
255 255 255
255 255 255
255 255 255
255 255 255
255 255 255
255 231 236
197 150 157
159 140 147
157 140 147
161 150 151
174 181 168
225 255 229
195 167 164
161 140 147
171 174 166
255 255 255
255 255 255
255 255 255
255 255 255
255 255 255
255 255 255
255 255 255
255 255 255
255 255 249
253 255 231
245 255 226
230 255 211
177 161 157
158 140 147
166 162 159
224 255 229
204 188 174
171 161 157
166 156 155
159 142 148
157 140 147
158 143 150
187 204 209
255 255 255
255 255 255
255 255 255
255 255 255
255 255 255
255 255 255
255 255 255
255 255 255
255 255 255
255 255 255
255 255 255
255 255 255
255 255 255
255 255 255
255 255 255
255 255 255
255 255 255
255 255 255
255 236 240
213 181 187
179 147 154
159 140 147
173 177 181
255 255 255
255 229 233
197 150 157
162 147 150
193 227 186
255 255 255
255 255 255
255 255 255
255 255 255
255 255 255
255 255 255
255 255 246
253 255 231
247 255 229
239 255 220
189 185 167
159 143 148
158 143 150
188 206 210
255 255 255
255 200 204
177 143 150
158 143 150
174 174 180
194 182 188
211 213 218
255 255 255
255 255 255
255 255 255
255 255 255
255 255 255
255 255 255
255 255 255
255 255 255
255 255 255
255 255 255
255 255 255
255 255 255
255 255 255
255 255 255
255 255 255
255 255 255
255 255 255
255 255 255
255 255 255
255 255 255
255 255 255
255 231 236
198 152 159
178 183 189
255 255 255
255 255 255
255 200 206
177 143 150
172 177 164
255 255 255
255 255 255
255 255 255
255 255 252
255 255 239
255 255 235
249 255 229
247 255 229
246 255 228
230 255 211
178 161 157
158 140 147
172 174 180
255 255 255
255 255 255
255 210 216
184 149 156
187 203 209
255 255 255
255 255 255
255 255 255
255 255 255
255 255 255
255 255 255
255 255 255
255 255 255
255 255 255
255 255 255
255 255 255
255 255 255
255 255 255
255 255 255
255 255 255
255 255 255
255 255 255
255 255 255
255 255 255
255 255 255
255 255 255
255 255 255
255 255 255
255 255 255
255 255 255
255 240 245
246 249 253
255 255 255
255 255 255
255 238 244
201 151 158
160 143 148
178 190 172
225 255 218
245 255 229
246 255 227
246 255 228
246 255 228
244 255 226
237 255 219
227 255 210
186 177 165
161 142 148
158 143 150
189 208 214
255 255 255
255 255 255
255 255 255
240 220 225
255 255 255
255 255 255
255 255 255
255 255 255
255 255 255
255 255 255
255 255 255
255 255 255
255 255 255
