P3
#diff1
20 20
255

255 255 255
255 255 255
255 255 255
255 255 253
254 255 255
255 255 255
254 255 255
255 255 255
255 255 255
255 255 255
0 0 0
0 0 0
0 0 0
0 0 0
0 0 0
0 0 0
0 0 0
0 0 0
0 0 0
0 0 0
255 255 255
255 255 255
255 255 255
253 253 253
11 1 0
11 1 0
253 253 253
255 255 255
255 255 253
255 255 255
0 0 0
0 0 0
0 0 0
0 0 0
0 0 0
0 0 0
0 0 0
0 0 0
0 0 0
0 0 0
255 255 255
254 255 255
213 201 215
255 201 255
255 201 255
255 203 253
254 201 255
213 199 225
254 255 255
255 255 255
0 0 0
0 0 0
0 0 0
0 0 0
0 0 0
0 0 0
0 0 0
0 0 0
0 0 0
0 0 0
254 254 254
253 253 253
255 201 255
254 253 251
1 28 255
2 26 255
254 254 242
1 26 253
1 1 1
1 0 0
255 255 253
255 255 255
255 255 255
0 0 0
0 0 0
0 0 0
0 0 0
0 0 0
0 0 0
0 0 0
255 254 255
10 0 0
255 201 255
255 253 254
0 27 255
0 27 255
252 252 252
244 228 0
0 1 0
2 2 2
255 255 255
255 255 253
255 255 255
0 0 0
0 0 0
0 0 0
0 0 0
0 0 0
0 0 0
0 0 0
255 255 255
10 0 0
254 254 254
0 27 255
1 27 255
21 0 19
1 1 0
255 228 0
243 228 0
0 27 255
233 226 14
255 255 255
255 255 255
0 0 0
0 0 0
0 0 0
0 0 0
0 0 0
0 0 0
0 0 0
255 255 255
253 253 253
255 202 255
1 28 252
2 25 253
0 1 0
255 255 255
255 255 255
255 255 255
255 255 253
254 255 255
255 255 255
254 255 255
255 255 255
255 255 255
255 255 255
0 0 0
0 0 0
0 0 0
0 0 0
255 255 255
255 255 255
211 197 227
0 26 255
5 1 2
251 228 1
255 255 255
255 255 255
255 255 255
255 255 255
255 255 253
254 255 255
255 255 255
254 255 255
255 255 255
255 255 255
255 255 255
0 0 0
0 0 0
0 0 0
255 255 255
255 255 253
255 255 255
2 2 2
0 1 0
12 1 0
255 255 255
255 255 255
255 255 255
255 255 255
253 253 253
11 1 0
11 1 0
253 253 253
255 255 255
255 255 253
255 255 255
0 0 0
0 0 0
0 0 0
255 255 255
255 255 255
255 255 255
0 0 0
2 2 2
0 27 255
254 254 254
255 255 255
254 255 255
234 228 20
255 228 0
255 228 0
255 229 0
255 228 0
234 227 15
255 255 255
255 255 255
0 0 0
0 0 0
0 0 0
0 0 0
0 0 0
0 0 0
255 255 253
255 255 255
231 224 12
255 254 255
254 254 254
253 253 253
255 228 0
1 2 4
254 227 0
253 229 0
1 1 11
255 229 2
254 254 254
255 255 255
0 0 0
0 0 0
0 0 0
0 0 0
0 0 0
0 0 0
255 255 255
255 255 253
255 255 255
255 255 255
255 254 255
10 0 0
255 228 0
0 2 1
255 228 0
255 228 0
1 1 1
255 229 0
11 2 0
255 255 255
0 0 0
0 0 0
0 0 0
0 0 0
0 0 0
0 0 0
255 255 255
255 255 255
255 255 255
255 255 255
255 255 255
10 0 0
0 0 0
255 228 0
255 228 0
255 228 1
254 227 0
0 0 0
12 1 0
255 255 255
0 0 0
0 0 0
0 0 0
0 0 0
0 0 0
0 0 0
0 0 0
0 0 0
0 0 0
255 255 255
255 255 255
253 253 253
255 228 0
255 226 2
255 228 0
255 227 0
254 226 5
253 229 0
254 254 254
255 255 255
0 0 0
0 0 0
0 0 0
0 0 0
0 0 0
0 0 0
0 0 0
0 0 0
0 0 0
255 255 255
255 255 255
255 255 255
233 226 14
255 228 0
5 1 2
4 0 1
255 228 0
240 231 12
255 255 255
255 255 255
0 0 0
0 0 0
0 0 0
0 0 0
0 0 0
0 0 0
0 0 0
0 0 0
0 0 0
255 255 255
255 255 255
255 255 253
255 255 255
253 253 253
10 1 0
12 1 0
252 252 252
254 254 254
255 255 255
255 255 255
0 0 0
0 0 0
0 0 0
0 0 0
0 0 0
0 0 0
0 0 0
0 0 0
0 0 0
0 0 0
255 255 255
255 255 255
255 255 255
255 255 255
255 255 255
255 255 255
255 255 255
255 255 253
255 255 255
255 255 255
0 0 0
0 0 0
0 0 0
0 0 0
0 0 0
0 0 0
0 0 0
0 0 0
0 0 0
0 0 0
0 0 0
0 0 0
0 0 0
0 0 0
0 0 0
0 0 0
0 0 0
0 0 0
0 0 0
0 0 0
0 0 0
0 0 0
0 0 0
0 0 0
0 0 0
0 0 0
0 0 0
0 0 0
0 0 0
0 0 0
0 0 0
0 0 0
0 0 0
0 0 0
0 0 0
0 0 0
0 0 0
0 0 0
0 0 0
0 0 0
0 0 0
0 0 0
0 0 0
0 0 0
0 0 0
0 0 0
0 0 0
0 0 0
0 0 0
0 0 0
0 0 0
0 0 0
0 0 0
0 0 0
0 0 0
0 0 0
0 0 0
0 0 0
0 0 0
0 0 0
0 0 0
0 0 0
0 0 0
