P3
#redcheck3
10 10
255

1 255 255
1 255 255
1 255 255
1 255 253
0 255 255
1 255 255
0 255 255
1 255 255
1 255 255
1 255 255
1 255 255
1 255 255
1 255 255
1 253 253
243 1 0
243 1 0
1 253 253
1 255 255
1 255 253
1 255 255
1 255 255
0 255 255
20 228 20
1 228 0
1 228 0
1 229 0
1 228 0
20 227 15
1 255 255
1 255 255
0 254 254
1 253 253
1 228 0
253 2 4
0 227 0
1 229 0
253 1 11
1 229 2
0 254 254
1 255 255
1 254 255
244 0 0
1 228 0
254 2 1
1 228 0
1 228 0
253 1 1
1 229 0
243 2 0
1 255 255
1 255 255
244 0 0
254 0 0
1 228 0
1 228 0
1 228 1
0 227 0
254 0 0
242 1 0
1 255 255
1 255 255
1 253 253
1 228 0
1 226 2
1 228 0
1 227 0
0 226 5
1 229 0
0 254 254
1 255 255
1 255 255
1 255 255
21 226 14
1 228 0
249 1 2
250 0 1
1 228 0
14 231 12
1 255 255
1 255 255
1 255 255
1 255 253
1 255 255
1 253 253
244 1 0
242 1 0
2 252 252
0 254 254
1 255 255
1 255 255
1 255 255
1 255 255
1 255 255
1 255 255
1 255 255
1 255 255
1 255 255
1 255 253
1 255 255
1 255 255
