P3
#redcheck
10 10
255

127 127 127
127 127 127
127 127 127
253 253 0
0 253 253
127 127 127
0 253 253
127 127 127
127 127 127
127 127 127
127 127 127
127 127 127
127 127 127
126 126 126
5 0 0
5 0 0
126 126 126
127 127 127
253 253 0
127 127 127
127 127 127
0 253 253
116 113 9
127 113 0
127 113 0
127 114 0
127 113 0
116 113 7
127 127 127
127 127 127
126 126 126
126 126 126
127 113 0
0 0 1
126 113 0
126 114 0
0 0 5
127 114 0
126 126 126
127 127 127
253 0 253
4 0 0
127 113 0
0 0 0
127 113 0
127 113 0
0 0 0
127 114 0
5 0 0
127 127 127
127 127 127
4 0 0
0 0 0
127 113 0
127 113 0
127 113 0
126 113 0
0 0 0
5 0 0
127 127 127
127 127 127
126 126 126
127 113 0
127 113 0
127 113 0
127 113 0
128 114 0
126 114 0
126 126 126
127 127 127
127 127 127
127 127 127
116 112 6
127 113 0
2 0 0
1 0 0
127 113 0
119 115 5
127 127 127
127 127 127
127 127 127
253 253 0
127 127 127
126 126 126
4 0 0
5 0 0
125 125 125
126 126 126
127 127 127
127 127 127
127 127 127
127 127 127
127 127 127
127 127 127
127 127 127
127 127 127
127 127 127
253 253 0
127 127 127
127 127 127
