P3
#redcheck2b
10 10
255

255 255 255
255 255 255
255 255 255
255 255 253
254 255 255
255 255 255
254 255 255
255 255 255
255 255 255
255 255 255
255 255 255
255 255 255
255 255 255
253 253 253
255 27 4
255 27 4
253 253 253
255 255 255
255 255 253
255 255 255
255 255 255
254 255 255
244 241 136
255 241 127
255 241 127
255 241 127
255 241 127
247 243 131
255 255 255
255 255 255
254 254 254
253 253 253
255 241 127
52 102 204
255 241 126
255 242 125
25 25 234
255 241 128
254 254 254
255 255 255
255 254 255
255 4 4
255 241 127
0 255 127
255 241 127
255 241 127
127 127 127
255 241 127
255 50 4
255 255 255
255 255 255
255 4 4
127 127 127
255 241 127
255 241 127
255 241 127
255 241 126
127 127 127
254 25 5
255 255 255
255 255 255
253 253 253
255 241 127
255 240 128
255 241 127
255 240 127
254 240 129
255 242 125
254 254 254
255 255 255
255 255 255
255 255 255
247 243 130
255 241 127
212 44 86
255 1 64
255 241 127
248 244 131
255 255 255
255 255 255
255 255 255
255 255 253
255 255 255
253 253 253
255 29 4
254 25 5
253 253 253
254 254 254
255 255 255
255 255 255
255 255 255
255 255 255
255 255 255
255 255 255
255 255 255
255 255 255
255 255 255
255 255 253
255 255 255
255 255 255
