P3
#sane3
10 10
255

1 255 255
101 0 48
1 255 255
1 255 255
1 255 255
1 255 255
1 255 255
1 255 255
1 255 255
1 255 255
1 255 255
1 255 255
1 255 255
1 255 255
1 255 255
1 255 255
1 255 255
1 255 255
1 255 255
1 255 255
1 255 255
1 255 255
1 242 0
1 242 0
1 242 0
1 242 0
1 242 0
1 242 0
1 255 255
1 255 255
1 255 255
1 255 255
1 242 0
254 0 0
1 242 0
1 242 0
254 0 0
1 242 0
1 255 255
1 255 255
1 255 255
1 255 255
1 242 0
1 242 0
1 242 0
1 242 0
1 242 0
1 242 0
1 255 255
1 255 255
1 255 255
1 255 255
1 242 0
254 0 0
1 242 0
1 242 0
254 0 0
1 242 0
1 255 255
1 255 255
1 255 255
1 255 255
1 242 0
254 0 0
254 0 0
254 0 0
254 0 0
1 242 0
1 255 255
1 255 255
1 255 255
1 255 255
1 242 0
1 242 0
1 242 0
1 242 0
1 242 0
1 242 0
1 255 255
1 255 255
1 255 255
1 255 255
1 255 255
1 255 255
1 255 255
1 255 255
1 255 255
1 255 255
1 255 255
86 230 29
1 255 255
1 255 255
1 255 255
1 255 255
1 255 255
1 255 255
1 255 255
1 255 255
1 255 255
1 255 255
