P3
#sanity3
10 10
255

255 0 0
255 0 0
255 0 0
255 0 0
254 0 0
255 0 0
254 0 0
255 0 0
255 0 0
255 0 0
255 0 0
255 0 0
255 0 0
253 0 0
11 0 0
11 0 0
253 0 0
255 0 0
255 0 0
255 0 0
255 0 0
254 0 0
234 0 0
255 0 0
255 0 0
255 0 0
255 0 0
234 0 0
255 0 0
255 0 0
254 0 0
253 0 0
255 0 0
1 0 0
254 0 0
253 0 0
1 0 0
255 0 0
254 0 0
255 0 0
255 0 0
10 0 0
255 0 0
0 0 0
255 0 0
255 0 0
1 0 0
255 0 0
11 0 0
255 0 0
255 0 0
10 0 0
0 0 0
255 0 0
255 0 0
255 0 0
254 0 0
0 0 0
12 0 0
255 0 0
255 0 0
253 0 0
255 0 0
255 0 0
255 0 0
255 0 0
254 0 0
253 0 0
254 0 0
255 0 0
255 0 0
255 0 0
233 0 0
255 0 0
5 0 0
4 0 0
255 0 0
240 0 0
255 0 0
255 0 0
255 0 0
255 0 0
255 0 0
253 0 0
10 0 0
12 0 0
252 0 0
254 0 0
255 0 0
255 0 0
255 0 0
255 0 0
255 0 0
255 0 0
255 0 0
255 0 0
255 0 0
255 0 0
255 0 0
255 0 0
